<?xml version="1.0"?>
<svg xmlns="http://www.w3.org/2000/svg"
xmlns:xlink="http://www.w3.org/1999/xlink" xmlns:cml="http://www.xml-cml.org/schema" width="298.564" height="293.205" x="0" y="0" font-family="sans-serif" stroke="rgb(0,0,0)" stroke-width="4"  stroke-linecap="round">
<rect x="0%" y="0%" width="100%" height="100%" stroke-width="0" fill="rgb(255,255,255)"  />
<line x1="74.6" y1="118.6" x2="51.3" y2="105.1" stroke="rgb(0,0,0)"  stroke-width="4.0"/>
<line x1="178.6" y1="178.6" x2="213.2" y2="198.6" stroke="rgb(0,0,0)"  stroke-width="4.0"/>
<line x1="178.6" y1="178.6" x2="198.6" y2="143.9" stroke="rgb(0,0,0)"  stroke-width="4.0"/>
<line x1="178.6" y1="178.6" x2="143.9" y2="158.6" stroke="rgb(0,0,0)"  stroke-width="4.0"/>
<line x1="158.6" y1="213.2" x2="178.6" y2="178.6" stroke="rgb(0,0,0)"  stroke-width="4.0"/>
<line x1="158.6" y1="240.2" x2="158.6" y2="213.2" stroke="rgb(0,0,0)"  stroke-width="4.0"/>
<line x1="181.9" y1="226.7" x2="158.6" y2="213.2" stroke="rgb(0,0,0)"  stroke-width="4.0"/>
<line x1="131.6" y1="213.2" x2="158.6" y2="213.2" stroke="rgb(0,0,0)"  stroke-width="4.0"/>
<line x1="213.2" y1="198.6" x2="240.2" y2="198.6" stroke="rgb(0,0,0)"  stroke-width="4.0"/>
<line x1="226.7" y1="175.2" x2="213.2" y2="198.6" stroke="rgb(0,0,0)"  stroke-width="4.0"/>
<line x1="213.2" y1="225.6" x2="213.2" y2="198.6" stroke="rgb(0,0,0)"  stroke-width="4.0"/>
<line x1="238.6" y1="74.6" x2="252.1" y2="51.3" stroke="rgb(0,0,0)"  stroke-width="4.0"/>
<line x1="143.9" y1="118.6" x2="109.3" y2="98.6" stroke="rgb(0,0,0)"  stroke-width="4.0"/>
<line x1="109.3" y1="98.6" x2="74.6" y2="118.6" stroke="rgb(0,0,0)"  stroke-width="4.0"/>
<line x1="107.7" y1="107.8" x2="83.4" y2="121.8" stroke="rgb(0,0,0)"  stroke-width="4.0"/>
<line x1="74.6" y1="118.6" x2="74.6" y2="158.6" stroke="rgb(0,0,0)"  stroke-width="4.0"/>
<line x1="74.6" y1="158.6" x2="109.3" y2="178.6" stroke="rgb(0,0,0)"  stroke-width="4.0"/>
<line x1="83.4" y1="155.3" x2="107.7" y2="169.3" stroke="rgb(0,0,0)"  stroke-width="4.0"/>
<line x1="109.3" y1="178.6" x2="143.9" y2="158.6" stroke="rgb(0,0,0)"  stroke-width="4.0"/>
<line x1="143.9" y1="158.6" x2="143.9" y2="118.6" stroke="rgb(0,0,0)"  stroke-width="4.0"/>
<line x1="136.7" y1="152.6" x2="136.7" y2="124.6" stroke="rgb(0,0,0)"  stroke-width="4.0"/>
<line x1="198.6" y1="143.9" x2="238.6" y2="143.9" stroke="rgb(0,0,0)"  stroke-width="4.0"/>
<line x1="238.6" y1="143.9" x2="258.6" y2="109.3" stroke="rgb(0,0,0)"  stroke-width="4.0"/>
<line x1="235.3" y1="135.1" x2="249.3" y2="110.9" stroke="rgb(0,0,0)"  stroke-width="4.0"/>
<line x1="258.6" y1="109.3" x2="238.6" y2="74.6" stroke="rgb(0,0,0)"  stroke-width="4.0"/>
<line x1="238.6" y1="74.6" x2="198.6" y2="74.6" stroke="rgb(0,0,0)"  stroke-width="4.0"/>
<line x1="232.6" y1="81.8" x2="204.6" y2="81.8" stroke="rgb(0,0,0)"  stroke-width="4.0"/>
<line x1="198.6" y1="74.6" x2="178.6" y2="109.3" stroke="rgb(0,0,0)"  stroke-width="4.0"/>
<line x1="178.6" y1="109.3" x2="198.6" y2="143.9" stroke="rgb(0,0,0)"  stroke-width="4.0"/>
<line x1="187.8" y1="110.9" x2="201.8" y2="135.1" stroke="rgb(0,0,0)"  stroke-width="4.0"/>
<text x="22.000000" y="106.564065" fill="rgb(0,0,0)"  stroke="rgb(0,0,0)" stroke-width="1" font-size="16" >HO</text>
<text x="152.564065" y="261.205081" fill="rgb(0,0,0)"  stroke="rgb(0,0,0)" stroke-width="1" font-size="16" >F</text>
<text x="187.205081" y="241.205081" fill="rgb(0,0,0)"  stroke="rgb(0,0,0)" stroke-width="1" font-size="16" >F</text>
<text x="112.564065" y="221.205081" fill="rgb(0,0,0)"  stroke="rgb(0,0,0)" stroke-width="1" font-size="16" >F</text>
<text x="227.205081" y="171.923048" fill="rgb(0,0,0)"  stroke="rgb(0,0,0)" stroke-width="1" font-size="16" >F</text>
<text x="207.205081" y="246.564065" fill="rgb(0,0,0)"  stroke="rgb(0,0,0)" stroke-width="1" font-size="16" >F</text>
<text x="247.205081" y="206.564065" fill="rgb(0,0,0)"  stroke="rgb(0,0,0)" stroke-width="1" font-size="16" >F</text>
<text x="252.564065" y="48.000000" fill="rgb(0,0,0)"  stroke="rgb(0,0,0)" stroke-width="1" font-size="16" >OH</text>
<title>0CZ - OBDepict</title>
</svg>
