<?xml version="1.0"?>
<svg xmlns="http://www.w3.org/2000/svg"
xmlns:xlink="http://www.w3.org/1999/xlink" xmlns:cml="http://www.xml-cml.org/schema" width="366.842" height="358.029" x="0" y="0" font-family="sans-serif" stroke="rgb(0,0,0)" stroke-width="4"  stroke-linecap="round">
<rect x="0%" y="0%" width="100%" height="100%" stroke-width="0" fill="rgb(255,255,255)"  />
<line x1="318.1" y1="308.4" x2="300.1" y2="288.3" stroke="rgb(0,0,0)"  stroke-width="4.0"/>
<line x1="246.5" y1="228.9" x2="219.8" y2="199.1" stroke="rgb(0,0,0)"  stroke-width="4.0"/>
<line x1="193.5" y1="100.0" x2="158.8" y2="80.0" stroke="rgb(0,0,0)"  stroke-width="4.0"/>
<line x1="158.8" y1="80.0" x2="131.8" y2="80.0" stroke="rgb(0,0,0)"  stroke-width="4.0"/>
<line x1="158.8" y1="80.0" x2="145.3" y2="103.4" stroke="rgb(0,0,0)"  stroke-width="4.0"/>
<line x1="158.8" y1="53.0" x2="158.8" y2="80.0" stroke="rgb(0,0,0)"  stroke-width="4.0"/>
<line x1="160.0" y1="237.9" x2="120.0" y2="237.9" stroke="rgb(0,0,0)"  stroke-width="4.0"/>
<line x1="160.0" y1="237.9" x2="173.5" y2="214.6" stroke="rgb(0,0,0)"  stroke-width="4.0"/>
<line x1="234.2" y1="266.9" x2="207.8" y2="272.5" stroke="rgb(0,0,0)"  stroke-width="4.0"/>
<line x1="192.9" y1="201.9" x2="219.8" y2="199.1" stroke="rgb(0,0,0)"  stroke-width="4.0"/>
<line x1="219.8" y1="199.1" x2="228.1" y2="160.0" stroke="rgb(0,0,0)"  stroke-width="4.0"/>
<line x1="214.0" y1="191.8" x2="219.8" y2="164.4" stroke="rgb(0,0,0)"  stroke-width="4.0"/>
<line x1="228.1" y1="160.0" x2="193.5" y2="140.0" stroke="rgb(0,0,0)"  stroke-width="4.0"/>
<line x1="193.5" y1="140.0" x2="173.5" y2="157.9" stroke="rgb(0,0,0)"  stroke-width="4.0"/>
<line x1="193.8" y1="149.4" x2="179.8" y2="161.9" stroke="rgb(0,0,0)"  stroke-width="4.0"/>
<line x1="169.0" y1="178.6" x2="174.7" y2="191.4" stroke="rgb(0,0,0)"  stroke-width="4.0"/>
<line x1="300.1" y1="288.3" x2="312.4" y2="250.3" stroke="rgb(0,0,0)"  stroke-width="4.0"/>
<line x1="312.4" y1="250.3" x2="285.7" y2="220.5" stroke="rgb(0,0,0)"  stroke-width="4.0"/>
<line x1="303.1" y1="250.6" x2="284.3" y2="229.8" stroke="rgb(0,0,0)"  stroke-width="4.0"/>
<line x1="285.7" y1="220.5" x2="246.5" y2="228.9" stroke="rgb(0,0,0)"  stroke-width="4.0"/>
<line x1="246.5" y1="228.9" x2="234.2" y2="266.9" stroke="rgb(0,0,0)"  stroke-width="4.0"/>
<line x1="251.5" y1="236.8" x2="242.9" y2="263.4" stroke="rgb(0,0,0)"  stroke-width="4.0"/>
<line x1="234.2" y1="266.9" x2="261.0" y2="296.6" stroke="rgb(0,0,0)"  stroke-width="4.0"/>
<line x1="261.0" y1="296.6" x2="300.1" y2="288.3" stroke="rgb(0,0,0)"  stroke-width="4.0"/>
<line x1="265.3" y1="288.3" x2="292.7" y2="282.5" stroke="rgb(0,0,0)"  stroke-width="4.0"/>
<line x1="228.1" y1="160.0" x2="262.7" y2="140.0" stroke="rgb(0,0,0)"  stroke-width="4.0"/>
<line x1="262.7" y1="140.0" x2="262.7" y2="100.0" stroke="rgb(0,0,0)"  stroke-width="4.0"/>
<line x1="255.5" y1="134.0" x2="255.5" y2="106.0" stroke="rgb(0,0,0)"  stroke-width="4.0"/>
<line x1="262.7" y1="100.0" x2="228.1" y2="80.0" stroke="rgb(0,0,0)"  stroke-width="4.0"/>
<line x1="228.1" y1="80.0" x2="193.5" y2="100.0" stroke="rgb(0,0,0)"  stroke-width="4.0"/>
<line x1="226.5" y1="89.2" x2="202.3" y2="103.2" stroke="rgb(0,0,0)"  stroke-width="4.0"/>
<line x1="193.5" y1="100.0" x2="193.5" y2="140.0" stroke="rgb(0,0,0)"  stroke-width="4.0"/>
<line x1="120.0" y1="237.9" x2="100.0" y2="203.3" stroke="rgb(0,0,0)"  stroke-width="4.0"/>
<line x1="100.0" y1="203.3" x2="60.0" y2="203.3" stroke="rgb(0,0,0)"  stroke-width="4.0"/>
<line x1="94.0" y1="210.5" x2="66.0" y2="210.5" stroke="rgb(0,0,0)"  stroke-width="4.0"/>
<line x1="60.0" y1="203.3" x2="40.0" y2="237.9" stroke="rgb(0,0,0)"  stroke-width="4.0"/>
<line x1="40.0" y1="237.9" x2="60.0" y2="272.6" stroke="rgb(0,0,0)"  stroke-width="4.0"/>
<line x1="49.2" y1="239.5" x2="63.2" y2="263.8" stroke="rgb(0,0,0)"  stroke-width="4.0"/>
<line x1="60.0" y1="272.6" x2="100.0" y2="272.6" stroke="rgb(0,0,0)"  stroke-width="4.0"/>
<line x1="100.0" y1="272.6" x2="120.0" y2="237.9" stroke="rgb(0,0,0)"  stroke-width="4.0"/>
<line x1="96.8" y1="263.8" x2="110.8" y2="239.5" stroke="rgb(0,0,0)"  stroke-width="4.0"/>
<text x="320.841773" y="326.029076" fill="rgb(0,0,0)"  stroke="rgb(0,0,0)" stroke-width="1" font-size="16" >OH</text>
<text x="112.815311" y="88.000000" fill="rgb(0,0,0)"  stroke="rgb(0,0,0)" stroke-width="1" font-size="16" >F</text>
<text x="152.815311" y="48.000000" fill="rgb(0,0,0)"  stroke="rgb(0,0,0)" stroke-width="1" font-size="16" >F</text>
<text x="132.815311" y="122.641016" fill="rgb(0,0,0)"  stroke="rgb(0,0,0)" stroke-width="1" font-size="16" >F</text>
<text x="157.730534" y="174.765224" fill="rgb(0,0,0)"  stroke="rgb(0,0,0)" stroke-width="1" font-size="16" >N</text>
<text x="174.000000" y="211.307043" fill="rgb(0,0,0)"  stroke="rgb(0,0,0)" stroke-width="1" font-size="16" >N</text>
<text x="177.059516" y="283.210425" fill="rgb(0,0,0)"  stroke="rgb(0,0,0)" stroke-width="1" font-size="16" >HO</text>
<title>1GJ - OBDepict</title>
</svg>
