<?xml version="1.0"?>
<svg xmlns="http://www.w3.org/2000/svg"
xmlns:xlink="http://www.w3.org/1999/xlink" xmlns:cml="http://www.xml-cml.org/schema" width="385.804" height="289.543" x="0" y="0" font-family="sans-serif" stroke="rgb(0,0,0)" stroke-width="4"  stroke-linecap="round">
<rect x="0%" y="0%" width="100%" height="100%" stroke-width="0" fill="rgb(255,255,255)"  />
<line x1="307.8" y1="154.9" x2="333.4" y2="163.2" stroke="rgb(0,0,0)"  stroke-width="4.0"/>
<line x1="307.8" y1="154.9" x2="327.8" y2="136.8" stroke="rgb(0,0,0)"  stroke-width="4.0"/>
<line x1="307.8" y1="154.9" x2="281.0" y2="125.1" stroke="rgb(0,0,0)"  stroke-width="4.0"/>
<line x1="334.0" y1="249.5" x2="294.2" y2="245.4" stroke="rgb(0,0,0)"  stroke-width="4.0"/>
<line x1="277.9" y1="208.8" x2="294.2" y2="245.4" stroke="rgb(0,0,0)"  stroke-width="4.0"/>
<line x1="238.1" y1="204.6" x2="277.9" y2="208.8" stroke="rgb(0,0,0)"  stroke-width="4.0"/>
<line x1="238.1" y1="204.6" x2="227.2" y2="180.0" stroke="rgb(0,0,0)"  stroke-width="4.0"/>
<line x1="178.6" y1="120.0" x2="143.9" y2="100.0" stroke="rgb(0,0,0)"  stroke-width="4.0"/>
<line x1="74.6" y1="60.0" x2="51.3" y2="46.5" stroke="rgb(0,0,0)"  stroke-width="4.0"/>
<line x1="109.3" y1="147.0" x2="109.3" y2="120.0" stroke="rgb(0,0,0)"  stroke-width="4.0"/>
<line x1="299.4" y1="180.5" x2="307.8" y2="154.9" stroke="rgb(0,0,0)"  stroke-width="4.0"/>
<line x1="195.5" y1="162.5" x2="209.2" y2="165.4" stroke="rgb(0,0,0)"  stroke-width="4.0"/>
<line x1="228.4" y1="156.8" x2="241.9" y2="133.5" stroke="rgb(0,0,0)"  stroke-width="4.0"/>
<line x1="241.9" y1="133.5" x2="215.1" y2="103.7" stroke="rgb(0,0,0)"  stroke-width="4.0"/>
<line x1="215.1" y1="103.7" x2="178.6" y2="120.0" stroke="rgb(0,0,0)"  stroke-width="4.0"/>
<line x1="178.6" y1="120.0" x2="181.4" y2="146.7" stroke="rgb(0,0,0)"  stroke-width="4.0"/>
<line x1="186.4" y1="125.2" x2="188.3" y2="143.9" stroke="rgb(0,0,0)"  stroke-width="4.0"/>
<line x1="227.5" y1="65.7" x2="215.1" y2="103.7" stroke="rgb(0,0,0)"  stroke-width="4.0"/>
<line x1="232.5" y1="73.6" x2="223.8" y2="100.2" stroke="rgb(0,0,0)"  stroke-width="4.0"/>
<line x1="241.9" y1="133.5" x2="281.0" y2="125.1" stroke="rgb(0,0,0)"  stroke-width="4.0"/>
<line x1="246.2" y1="125.2" x2="273.6" y2="119.3" stroke="rgb(0,0,0)"  stroke-width="4.0"/>
<line x1="281.0" y1="125.1" x2="293.4" y2="87.1" stroke="rgb(0,0,0)"  stroke-width="4.0"/>
<line x1="293.4" y1="87.1" x2="266.6" y2="57.4" stroke="rgb(0,0,0)"  stroke-width="4.0"/>
<line x1="284.0" y1="87.5" x2="265.3" y2="66.6" stroke="rgb(0,0,0)"  stroke-width="4.0"/>
<line x1="266.6" y1="57.4" x2="227.5" y2="65.7" stroke="rgb(0,0,0)"  stroke-width="4.0"/>
<line x1="109.3" y1="40.0" x2="143.9" y2="60.0" stroke="rgb(0,0,0)"  stroke-width="4.0"/>
<line x1="143.9" y1="60.0" x2="143.9" y2="100.0" stroke="rgb(0,0,0)"  stroke-width="4.0"/>
<line x1="136.7" y1="66.0" x2="136.7" y2="94.0" stroke="rgb(0,0,0)"  stroke-width="4.0"/>
<line x1="143.9" y1="100.0" x2="109.3" y2="120.0" stroke="rgb(0,0,0)"  stroke-width="4.0"/>
<line x1="109.3" y1="120.0" x2="74.6" y2="100.0" stroke="rgb(0,0,0)"  stroke-width="4.0"/>
<line x1="107.7" y1="110.8" x2="83.4" y2="96.8" stroke="rgb(0,0,0)"  stroke-width="4.0"/>
<line x1="74.6" y1="100.0" x2="74.6" y2="60.0" stroke="rgb(0,0,0)"  stroke-width="4.0"/>
<line x1="74.6" y1="60.0" x2="109.3" y2="40.0" stroke="rgb(0,0,0)"  stroke-width="4.0"/>
<line x1="83.4" y1="63.2" x2="107.7" y2="49.2" stroke="rgb(0,0,0)"  stroke-width="4.0"/>
<text x="215.871107" y="176.097343" fill="rgb(0,0,0)"  stroke="rgb(0,0,0)" stroke-width="1" font-size="16" >N</text>
<text x="176.745203" y="167.780876" fill="rgb(0,0,0)"  stroke="rgb(0,0,0)" stroke-width="1" font-size="16" >N</text>
<text x="22.000000" y="48.000000" fill="rgb(0,0,0)"  stroke="rgb(0,0,0)" stroke-width="1" font-size="16" >HO</text>
<text x="103.282032" y="168.000000" fill="rgb(0,0,0)"  stroke="rgb(0,0,0)" stroke-width="1" font-size="16" >OH</text>
<text x="339.804496" y="175.226332" fill="rgb(0,0,0)"  stroke="rgb(0,0,0)" stroke-width="1" font-size="16" >F</text>
<text x="289.401556" y="200.907913" fill="rgb(0,0,0)"  stroke="rgb(0,0,0)" stroke-width="1" font-size="16" >F</text>
<text x="331.488028" y="136.100428" fill="rgb(0,0,0)"  stroke="rgb(0,0,0)" stroke-width="1" font-size="16" >F</text>
<title>1GQ - OBDepict</title>
</svg>
