<?xml version="1.0"?>
<svg xmlns="http://www.w3.org/2000/svg"
xmlns:xlink="http://www.w3.org/1999/xlink" xmlns:cml="http://www.xml-cml.org/schema" width="385.804" height="313.542" x="0" y="0" font-family="sans-serif" stroke="rgb(0,0,0)" stroke-width="4"  stroke-linecap="round">
<rect x="0%" y="0%" width="100%" height="100%" stroke-width="0" fill="rgb(255,255,255)"  />
<line x1="211.0" y1="80.7" x2="171.2" y2="76.5" stroke="rgb(0,0,0)"  stroke-width="4.0"/>
<line x1="171.2" y1="76.5" x2="147.7" y2="108.9" stroke="rgb(0,0,0)"  stroke-width="4.0"/>
<line x1="171.2" y1="76.5" x2="154.9" y2="40.0" stroke="rgb(0,0,0)"  stroke-width="4.0"/>
<line x1="158.6" y1="133.6" x2="147.7" y2="108.9" stroke="rgb(0,0,0)"  stroke-width="4.0"/>
<line x1="104.8" y1="188.4" x2="78.0" y2="158.7" stroke="rgb(0,0,0)"  stroke-width="4.0"/>
<line x1="78.0" y1="158.7" x2="52.4" y2="150.3" stroke="rgb(0,0,0)"  stroke-width="4.0"/>
<line x1="78.0" y1="158.7" x2="58.0" y2="176.7" stroke="rgb(0,0,0)"  stroke-width="4.0"/>
<line x1="78.0" y1="158.7" x2="86.4" y2="133.0" stroke="rgb(0,0,0)"  stroke-width="4.0"/>
<line x1="241.9" y1="213.5" x2="207.2" y2="193.5" stroke="rgb(0,0,0)"  stroke-width="4.0"/>
<line x1="334.5" y1="267.0" x2="311.2" y2="253.5" stroke="rgb(0,0,0)"  stroke-width="4.0"/>
<line x1="241.9" y1="253.5" x2="218.5" y2="267.0" stroke="rgb(0,0,0)"  stroke-width="4.0"/>
<line x1="204.4" y1="166.9" x2="207.2" y2="193.5" stroke="rgb(0,0,0)"  stroke-width="4.0"/>
<line x1="197.5" y1="169.6" x2="199.5" y2="188.3" stroke="rgb(0,0,0)"  stroke-width="4.0"/>
<line x1="207.2" y1="193.5" x2="170.7" y2="209.8" stroke="rgb(0,0,0)"  stroke-width="4.0"/>
<line x1="170.7" y1="209.8" x2="143.9" y2="180.1" stroke="rgb(0,0,0)"  stroke-width="4.0"/>
<line x1="143.9" y1="180.1" x2="157.4" y2="156.7" stroke="rgb(0,0,0)"  stroke-width="4.0"/>
<line x1="176.6" y1="148.1" x2="190.3" y2="151.1" stroke="rgb(0,0,0)"  stroke-width="4.0"/>
<line x1="170.7" y1="209.8" x2="158.3" y2="247.9" stroke="rgb(0,0,0)"  stroke-width="4.0"/>
<line x1="162.0" y1="213.3" x2="153.3" y2="239.9" stroke="rgb(0,0,0)"  stroke-width="4.0"/>
<line x1="158.3" y1="247.9" x2="119.2" y2="256.2" stroke="rgb(0,0,0)"  stroke-width="4.0"/>
<line x1="119.2" y1="256.2" x2="92.4" y2="226.4" stroke="rgb(0,0,0)"  stroke-width="4.0"/>
<line x1="120.5" y1="246.9" x2="101.8" y2="226.1" stroke="rgb(0,0,0)"  stroke-width="4.0"/>
<line x1="92.4" y1="226.4" x2="104.8" y2="188.4" stroke="rgb(0,0,0)"  stroke-width="4.0"/>
<line x1="104.8" y1="188.4" x2="143.9" y2="180.1" stroke="rgb(0,0,0)"  stroke-width="4.0"/>
<line x1="112.2" y1="194.2" x2="139.6" y2="188.4" stroke="rgb(0,0,0)"  stroke-width="4.0"/>
<line x1="241.9" y1="213.5" x2="276.5" y2="193.5" stroke="rgb(0,0,0)"  stroke-width="4.0"/>
<line x1="250.7" y1="216.8" x2="274.9" y2="202.8" stroke="rgb(0,0,0)"  stroke-width="4.0"/>
<line x1="276.5" y1="193.5" x2="311.2" y2="213.5" stroke="rgb(0,0,0)"  stroke-width="4.0"/>
<line x1="311.2" y1="213.5" x2="311.2" y2="253.5" stroke="rgb(0,0,0)"  stroke-width="4.0"/>
<line x1="304.0" y1="219.5" x2="304.0" y2="247.5" stroke="rgb(0,0,0)"  stroke-width="4.0"/>
<line x1="311.2" y1="253.5" x2="276.5" y2="273.5" stroke="rgb(0,0,0)"  stroke-width="4.0"/>
<line x1="276.5" y1="273.5" x2="241.9" y2="253.5" stroke="rgb(0,0,0)"  stroke-width="4.0"/>
<line x1="274.9" y1="264.3" x2="250.7" y2="250.3" stroke="rgb(0,0,0)"  stroke-width="4.0"/>
<line x1="241.9" y1="253.5" x2="241.9" y2="213.5" stroke="rgb(0,0,0)"  stroke-width="4.0"/>
<text x="157.933389" y="153.444316" fill="rgb(0,0,0)"  stroke="rgb(0,0,0)" stroke-width="1" font-size="16" >N</text>
<text x="197.059293" y="161.760784" fill="rgb(0,0,0)"  stroke="rgb(0,0,0)" stroke-width="1" font-size="16" >N</text>
<text x="84.402940" y="128.633746" fill="rgb(0,0,0)"  stroke="rgb(0,0,0)" stroke-width="1" font-size="16" >F</text>
<text x="34.000000" y="154.315327" fill="rgb(0,0,0)"  stroke="rgb(0,0,0)" stroke-width="1" font-size="16" >F</text>
<text x="42.316468" y="193.441231" fill="rgb(0,0,0)"  stroke="rgb(0,0,0)" stroke-width="1" font-size="16" >F</text>
<text x="339.804496" y="281.541660" fill="rgb(0,0,0)"  stroke="rgb(0,0,0)" stroke-width="1" font-size="16" >OH</text>
<text x="189.240431" y="281.541660" fill="rgb(0,0,0)"  stroke="rgb(0,0,0)" stroke-width="1" font-size="16" >HO</text>
<title>1GR - OBDepict</title>
</svg>
