<?xml version="1.0"?>
<svg xmlns="http://www.w3.org/2000/svg"
xmlns:xlink="http://www.w3.org/1999/xlink" xmlns:cml="http://www.xml-cml.org/schema" width="386.888" height="292.437" x="0" y="0" font-family="sans-serif" stroke="rgb(0,0,0)" stroke-width="4"  stroke-linecap="round">
<rect x="0%" y="0%" width="100%" height="100%" stroke-width="0" fill="rgb(255,255,255)"  />
<line x1="187.5" y1="238.0" x2="225.6" y2="225.7" stroke="rgb(0,0,0)"  stroke-width="4.0"/>
<line x1="255.3" y1="252.4" x2="225.6" y2="225.7" stroke="rgb(0,0,0)"  stroke-width="4.0"/>
<line x1="233.9" y1="186.5" x2="213.8" y2="168.5" stroke="rgb(0,0,0)"  stroke-width="4.0"/>
<line x1="233.9" y1="186.5" x2="225.6" y2="225.7" stroke="rgb(0,0,0)"  stroke-width="4.0"/>
<line x1="105.9" y1="125.1" x2="79.1" y2="154.9" stroke="rgb(0,0,0)"  stroke-width="4.0"/>
<line x1="79.1" y1="154.9" x2="73.5" y2="181.3" stroke="rgb(0,0,0)"  stroke-width="4.0"/>
<line x1="79.1" y1="154.9" x2="99.2" y2="172.9" stroke="rgb(0,0,0)"  stroke-width="4.0"/>
<line x1="52.7" y1="149.3" x2="79.1" y2="154.9" stroke="rgb(0,0,0)"  stroke-width="4.0"/>
<line x1="243.0" y1="100.0" x2="208.3" y2="120.0" stroke="rgb(0,0,0)"  stroke-width="4.0"/>
<line x1="335.6" y1="46.5" x2="312.2" y2="60.0" stroke="rgb(0,0,0)"  stroke-width="4.0"/>
<line x1="277.6" y1="120.0" x2="277.6" y2="147.0" stroke="rgb(0,0,0)"  stroke-width="4.0"/>
<line x1="205.5" y1="146.9" x2="208.3" y2="120.0" stroke="rgb(0,0,0)"  stroke-width="4.0"/>
<line x1="208.3" y1="120.0" x2="171.8" y2="103.7" stroke="rgb(0,0,0)"  stroke-width="4.0"/>
<line x1="199.9" y1="124.1" x2="174.3" y2="112.7" stroke="rgb(0,0,0)"  stroke-width="4.0"/>
<line x1="171.8" y1="103.7" x2="145.0" y2="133.5" stroke="rgb(0,0,0)"  stroke-width="4.0"/>
<line x1="145.0" y1="133.5" x2="158.4" y2="156.7" stroke="rgb(0,0,0)"  stroke-width="4.0"/>
<line x1="154.3" y1="135.1" x2="163.7" y2="151.3" stroke="rgb(0,0,0)"  stroke-width="4.0"/>
<line x1="177.7" y1="165.4" x2="191.4" y2="162.5" stroke="rgb(0,0,0)"  stroke-width="4.0"/>
<line x1="171.8" y1="103.7" x2="159.4" y2="65.7" stroke="rgb(0,0,0)"  stroke-width="4.0"/>
<line x1="159.4" y1="65.7" x2="120.3" y2="57.4" stroke="rgb(0,0,0)"  stroke-width="4.0"/>
<line x1="152.1" y1="71.5" x2="124.7" y2="65.7" stroke="rgb(0,0,0)"  stroke-width="4.0"/>
<line x1="120.3" y1="57.4" x2="93.5" y2="87.1" stroke="rgb(0,0,0)"  stroke-width="4.0"/>
<line x1="93.5" y1="87.1" x2="105.9" y2="125.1" stroke="rgb(0,0,0)"  stroke-width="4.0"/>
<line x1="102.2" y1="90.6" x2="110.9" y2="117.2" stroke="rgb(0,0,0)"  stroke-width="4.0"/>
<line x1="105.9" y1="125.1" x2="145.0" y2="133.5" stroke="rgb(0,0,0)"  stroke-width="4.0"/>
<line x1="243.0" y1="100.0" x2="243.0" y2="60.0" stroke="rgb(0,0,0)"  stroke-width="4.0"/>
<line x1="243.0" y1="60.0" x2="277.6" y2="40.0" stroke="rgb(0,0,0)"  stroke-width="4.0"/>
<line x1="251.8" y1="63.2" x2="276.0" y2="49.2" stroke="rgb(0,0,0)"  stroke-width="4.0"/>
<line x1="277.6" y1="40.0" x2="312.2" y2="60.0" stroke="rgb(0,0,0)"  stroke-width="4.0"/>
<line x1="312.2" y1="60.0" x2="312.2" y2="100.0" stroke="rgb(0,0,0)"  stroke-width="4.0"/>
<line x1="305.0" y1="66.0" x2="305.0" y2="94.0" stroke="rgb(0,0,0)"  stroke-width="4.0"/>
<line x1="312.2" y1="100.0" x2="277.6" y2="120.0" stroke="rgb(0,0,0)"  stroke-width="4.0"/>
<line x1="277.6" y1="120.0" x2="243.0" y2="100.0" stroke="rgb(0,0,0)"  stroke-width="4.0"/>
<line x1="276.0" y1="110.8" x2="251.8" y2="96.8" stroke="rgb(0,0,0)"  stroke-width="4.0"/>
<text x="198.142936" y="167.780876" fill="rgb(0,0,0)"  stroke="rgb(0,0,0)" stroke-width="1" font-size="16" >N</text>
<text x="159.017032" y="176.097343" fill="rgb(0,0,0)"  stroke="rgb(0,0,0)" stroke-width="1" font-size="16" >N</text>
<text x="102.851697" y="189.630877" fill="rgb(0,0,0)"  stroke="rgb(0,0,0)" stroke-width="1" font-size="16" >F</text>
<text x="34.000000" y="154.549185" fill="rgb(0,0,0)"  stroke="rgb(0,0,0)" stroke-width="1" font-size="16" >F</text>
<text x="64.809436" y="201.991557" fill="rgb(0,0,0)"  stroke="rgb(0,0,0)" stroke-width="1" font-size="16" >F</text>
<text x="340.888139" y="48.000000" fill="rgb(0,0,0)"  stroke="rgb(0,0,0)" stroke-width="1" font-size="16" >OH</text>
<text x="271.606107" y="168.000000" fill="rgb(0,0,0)"  stroke="rgb(0,0,0)" stroke-width="1" font-size="16" >OH</text>
<title>1GS - OBDepict</title>
</svg>
