<?xml version="1.0"?>
<svg xmlns="http://www.w3.org/2000/svg"
xmlns:xlink="http://www.w3.org/1999/xlink" xmlns:cml="http://www.xml-cml.org/schema" width="386.888" height="292.437" x="0" y="0" font-family="sans-serif" stroke="rgb(0,0,0)" stroke-width="4"  stroke-linecap="round">
<rect x="0%" y="0%" width="100%" height="100%" stroke-width="0" fill="rgb(255,255,255)"  />
<line x1="256.2" y1="37.1" x2="294.2" y2="49.5" stroke="rgb(0,0,0)"  stroke-width="4.0"/>
<line x1="254.4" y1="42.9" x2="292.4" y2="55.2" stroke="rgb(0,0,0)"  stroke-width="4.0"/>
<line x1="225.6" y1="66.8" x2="255.3" y2="40.0" stroke="rgb(0,0,0)"  stroke-width="4.0"/>
<line x1="233.9" y1="105.9" x2="225.6" y2="66.8" stroke="rgb(0,0,0)"  stroke-width="4.0"/>
<line x1="233.9" y1="105.9" x2="213.8" y2="124.0" stroke="rgb(0,0,0)"  stroke-width="4.0"/>
<line x1="105.9" y1="167.3" x2="79.1" y2="137.6" stroke="rgb(0,0,0)"  stroke-width="4.0"/>
<line x1="79.1" y1="137.6" x2="73.5" y2="111.2" stroke="rgb(0,0,0)"  stroke-width="4.0"/>
<line x1="79.1" y1="137.6" x2="99.2" y2="119.5" stroke="rgb(0,0,0)"  stroke-width="4.0"/>
<line x1="52.7" y1="143.2" x2="79.1" y2="137.6" stroke="rgb(0,0,0)"  stroke-width="4.0"/>
<line x1="243.0" y1="192.4" x2="208.3" y2="172.4" stroke="rgb(0,0,0)"  stroke-width="4.0"/>
<line x1="335.6" y1="245.9" x2="312.2" y2="232.4" stroke="rgb(0,0,0)"  stroke-width="4.0"/>
<line x1="277.6" y1="172.4" x2="277.6" y2="145.4" stroke="rgb(0,0,0)"  stroke-width="4.0"/>
<line x1="205.5" y1="145.6" x2="208.3" y2="172.4" stroke="rgb(0,0,0)"  stroke-width="4.0"/>
<line x1="208.3" y1="172.4" x2="171.8" y2="188.7" stroke="rgb(0,0,0)"  stroke-width="4.0"/>
<line x1="199.9" y1="168.3" x2="174.3" y2="179.7" stroke="rgb(0,0,0)"  stroke-width="4.0"/>
<line x1="171.8" y1="188.7" x2="145.0" y2="159.0" stroke="rgb(0,0,0)"  stroke-width="4.0"/>
<line x1="145.0" y1="159.0" x2="158.4" y2="135.8" stroke="rgb(0,0,0)"  stroke-width="4.0"/>
<line x1="154.3" y1="157.4" x2="163.7" y2="141.1" stroke="rgb(0,0,0)"  stroke-width="4.0"/>
<line x1="177.7" y1="127.0" x2="191.4" y2="130.0" stroke="rgb(0,0,0)"  stroke-width="4.0"/>
<line x1="171.8" y1="188.7" x2="159.4" y2="226.7" stroke="rgb(0,0,0)"  stroke-width="4.0"/>
<line x1="159.4" y1="226.7" x2="120.3" y2="235.1" stroke="rgb(0,0,0)"  stroke-width="4.0"/>
<line x1="152.1" y1="221.0" x2="124.7" y2="226.8" stroke="rgb(0,0,0)"  stroke-width="4.0"/>
<line x1="120.3" y1="235.1" x2="93.5" y2="205.3" stroke="rgb(0,0,0)"  stroke-width="4.0"/>
<line x1="93.5" y1="205.3" x2="105.9" y2="167.3" stroke="rgb(0,0,0)"  stroke-width="4.0"/>
<line x1="102.2" y1="201.9" x2="110.9" y2="175.2" stroke="rgb(0,0,0)"  stroke-width="4.0"/>
<line x1="105.9" y1="167.3" x2="145.0" y2="159.0" stroke="rgb(0,0,0)"  stroke-width="4.0"/>
<line x1="243.0" y1="192.4" x2="243.0" y2="232.4" stroke="rgb(0,0,0)"  stroke-width="4.0"/>
<line x1="243.0" y1="232.4" x2="277.6" y2="252.4" stroke="rgb(0,0,0)"  stroke-width="4.0"/>
<line x1="251.8" y1="229.2" x2="276.0" y2="243.2" stroke="rgb(0,0,0)"  stroke-width="4.0"/>
<line x1="277.6" y1="252.4" x2="312.2" y2="232.4" stroke="rgb(0,0,0)"  stroke-width="4.0"/>
<line x1="312.2" y1="232.4" x2="312.2" y2="192.4" stroke="rgb(0,0,0)"  stroke-width="4.0"/>
<line x1="305.0" y1="226.4" x2="305.0" y2="198.4" stroke="rgb(0,0,0)"  stroke-width="4.0"/>
<line x1="312.2" y1="192.4" x2="277.6" y2="172.4" stroke="rgb(0,0,0)"  stroke-width="4.0"/>
<line x1="277.6" y1="172.4" x2="243.0" y2="192.4" stroke="rgb(0,0,0)"  stroke-width="4.0"/>
<line x1="276.0" y1="181.7" x2="251.8" y2="195.7" stroke="rgb(0,0,0)"  stroke-width="4.0"/>
<text x="198.142936" y="140.656353" fill="rgb(0,0,0)"  stroke="rgb(0,0,0)" stroke-width="1" font-size="16" >N</text>
<text x="159.017032" y="132.339885" fill="rgb(0,0,0)"  stroke="rgb(0,0,0)" stroke-width="1" font-size="16" >N</text>
<text x="34.000000" y="153.888043" fill="rgb(0,0,0)"  stroke="rgb(0,0,0)" stroke-width="1" font-size="16" >F</text>
<text x="102.851697" y="118.806351" fill="rgb(0,0,0)"  stroke="rgb(0,0,0)" stroke-width="1" font-size="16" >F</text>
<text x="64.809436" y="106.445672" fill="rgb(0,0,0)"  stroke="rgb(0,0,0)" stroke-width="1" font-size="16" >F</text>
<text x="340.888139" y="260.437228" fill="rgb(0,0,0)"  stroke="rgb(0,0,0)" stroke-width="1" font-size="16" >OH</text>
<text x="271.606107" y="140.437228" fill="rgb(0,0,0)"  stroke="rgb(0,0,0)" stroke-width="1" font-size="16" >OH</text>
<title>1GU - OBDepict</title>
</svg>
