<?xml version="1.0"?>
<svg xmlns="http://www.w3.org/2000/svg"
xmlns:xlink="http://www.w3.org/1999/xlink" xmlns:cml="http://www.xml-cml.org/schema" width="389.4" height="220" x="0" y="0" font-family="sans-serif" stroke="rgb(0,0,0)" stroke-width="4"  stroke-linecap="round">
<rect x="0%" y="0%" width="100%" height="100%" stroke-width="0" fill="rgb(255,255,255)"  />
<line x1="99.5" y1="124.7" x2="91.2" y2="150.4" stroke="rgb(0,0,0)"  stroke-width="4.0"/>
<line x1="80.0" y1="80.0" x2="53.0" y2="80.0" stroke="rgb(0,0,0)"  stroke-width="4.0"/>
<line x1="245.5" y1="120.0" x2="210.8" y2="100.0" stroke="rgb(0,0,0)"  stroke-width="4.0"/>
<line x1="338.1" y1="173.5" x2="314.8" y2="160.0" stroke="rgb(0,0,0)"  stroke-width="4.0"/>
<line x1="141.6" y1="100.0" x2="141.6" y2="60.0" stroke="rgb(0,0,0)"  stroke-width="4.0"/>
<line x1="134.4" y1="94.0" x2="134.4" y2="66.0" stroke="rgb(0,0,0)"  stroke-width="4.0"/>
<line x1="141.6" y1="60.0" x2="115.9" y2="51.7" stroke="rgb(0,0,0)"  stroke-width="4.0"/>
<line x1="95.8" y1="58.3" x2="80.0" y2="80.0" stroke="rgb(0,0,0)"  stroke-width="4.0"/>
<line x1="100.4" y1="64.2" x2="89.4" y2="79.4" stroke="rgb(0,0,0)"  stroke-width="4.0"/>
<line x1="80.0" y1="80.0" x2="95.9" y2="101.8" stroke="rgb(0,0,0)"  stroke-width="4.0"/>
<line x1="115.9" y1="108.3" x2="141.6" y2="100.0" stroke="rgb(0,0,0)"  stroke-width="4.0"/>
<line x1="176.2" y1="120.0" x2="210.8" y2="100.0" stroke="rgb(0,0,0)"  stroke-width="4.0"/>
<line x1="177.8" y1="110.8" x2="202.0" y2="96.8" stroke="rgb(0,0,0)"  stroke-width="4.0"/>
<line x1="210.8" y1="100.0" x2="210.8" y2="60.0" stroke="rgb(0,0,0)"  stroke-width="4.0"/>
<line x1="210.8" y1="60.0" x2="187.6" y2="46.6" stroke="rgb(0,0,0)"  stroke-width="4.0"/>
<line x1="202.0" y1="63.2" x2="185.8" y2="53.8" stroke="rgb(0,0,0)"  stroke-width="4.0"/>
<line x1="164.9" y1="46.5" x2="141.6" y2="60.0" stroke="rgb(0,0,0)"  stroke-width="4.0"/>
<line x1="141.6" y1="100.0" x2="176.2" y2="120.0" stroke="rgb(0,0,0)"  stroke-width="4.0"/>
<line x1="245.5" y1="120.0" x2="245.5" y2="160.0" stroke="rgb(0,0,0)"  stroke-width="4.0"/>
<line x1="245.5" y1="160.0" x2="280.1" y2="180.0" stroke="rgb(0,0,0)"  stroke-width="4.0"/>
<line x1="254.3" y1="156.8" x2="278.5" y2="170.8" stroke="rgb(0,0,0)"  stroke-width="4.0"/>
<line x1="280.1" y1="180.0" x2="314.8" y2="160.0" stroke="rgb(0,0,0)"  stroke-width="4.0"/>
<line x1="314.8" y1="160.0" x2="314.8" y2="120.0" stroke="rgb(0,0,0)"  stroke-width="4.0"/>
<line x1="307.6" y1="154.0" x2="307.6" y2="126.0" stroke="rgb(0,0,0)"  stroke-width="4.0"/>
<line x1="314.8" y1="120.0" x2="280.1" y2="100.0" stroke="rgb(0,0,0)"  stroke-width="4.0"/>
<line x1="280.1" y1="100.0" x2="245.5" y2="120.0" stroke="rgb(0,0,0)"  stroke-width="4.0"/>
<line x1="278.5" y1="109.2" x2="254.3" y2="123.2" stroke="rgb(0,0,0)"  stroke-width="4.0"/>
<text x="97.511410" y="120.360680" fill="rgb(0,0,0)"  stroke="rgb(0,0,0)" stroke-width="1" font-size="16" >N</text>
<text x="14.000000" y="88.000000" fill="rgb(0,0,0)"  stroke="rgb(0,0,0)" stroke-width="1" font-size="16" >H</text>
<text x="26.000000" y="91.680000" fill="rgb(0,0,0)"  stroke="rgb(0,0,0)" stroke-width="1" font-size="13" >2</text>
<text x="32.500000" y="88.000000" fill="rgb(0,0,0)"  stroke="rgb(0,0,0)" stroke-width="1" font-size="16" >N</text>
<text x="97.511410" y="55.639320" fill="rgb(0,0,0)"  stroke="rgb(0,0,0)" stroke-width="1" font-size="16" >N</text>
<text x="170.194687" y="48.000000" fill="rgb(0,0,0)"  stroke="rgb(0,0,0)" stroke-width="1" font-size="16" >N</text>
<text x="343.399768" y="188.000000" fill="rgb(0,0,0)"  stroke="rgb(0,0,0)" stroke-width="1" font-size="16" >OH</text>
<title>1HP - OBDepict</title>
</svg>
