<?xml version="1.0"?>
<svg xmlns="http://www.w3.org/2000/svg"
xmlns:xlink="http://www.w3.org/1999/xlink" xmlns:cml="http://www.xml-cml.org/schema" width="405.477" height="240" x="0" y="0" font-family="sans-serif" stroke="rgb(0,0,0)" stroke-width="4"  stroke-linecap="round">
<rect x="0%" y="0%" width="100%" height="100%" stroke-width="0" fill="rgb(255,255,255)"  />
<line x1="296.2" y1="120.0" x2="296.2" y2="80.0" stroke="rgb(0,0,0)"  stroke-width="4.0"/>
<line x1="330.8" y1="180.0" x2="354.2" y2="193.5" stroke="rgb(0,0,0)"  stroke-width="4.0"/>
<line x1="200.0" y1="160.0" x2="160.0" y2="160.0" stroke="rgb(0,0,0)"  stroke-width="4.0"/>
<line x1="296.2" y1="80.0" x2="330.8" y2="60.0" stroke="rgb(0,0,0)"  stroke-width="4.0"/>
<line x1="330.8" y1="60.0" x2="354.2" y2="46.5" stroke="rgb(0,0,0)"  stroke-width="4.0"/>
<line x1="328.7" y1="56.4" x2="352.1" y2="42.9" stroke="rgb(0,0,0)"  stroke-width="4.0"/>
<line x1="332.9" y1="63.6" x2="356.3" y2="50.1" stroke="rgb(0,0,0)"  stroke-width="4.0"/>
<line x1="80.0" y1="160.0" x2="53.0" y2="160.0" stroke="rgb(0,0,0)"  stroke-width="4.0"/>
<line x1="200.0" y1="160.0" x2="223.5" y2="192.4" stroke="rgb(0,0,0)"  stroke-width="4.0"/>
<line x1="209.4" y1="160.6" x2="225.8" y2="183.3" stroke="rgb(0,0,0)"  stroke-width="4.0"/>
<line x1="223.5" y1="192.4" x2="261.6" y2="180.0" stroke="rgb(0,0,0)"  stroke-width="4.0"/>
<line x1="261.6" y1="180.0" x2="261.6" y2="140.0" stroke="rgb(0,0,0)"  stroke-width="4.0"/>
<line x1="254.4" y1="174.0" x2="254.4" y2="146.0" stroke="rgb(0,0,0)"  stroke-width="4.0"/>
<line x1="261.6" y1="140.0" x2="235.9" y2="131.7" stroke="rgb(0,0,0)"  stroke-width="4.0"/>
<line x1="215.9" y1="138.2" x2="200.0" y2="160.0" stroke="rgb(0,0,0)"  stroke-width="4.0"/>
<line x1="330.8" y1="140.0" x2="296.2" y2="120.0" stroke="rgb(0,0,0)"  stroke-width="4.0"/>
<line x1="322.0" y1="143.2" x2="297.8" y2="129.2" stroke="rgb(0,0,0)"  stroke-width="4.0"/>
<line x1="296.2" y1="120.0" x2="261.6" y2="140.0" stroke="rgb(0,0,0)"  stroke-width="4.0"/>
<line x1="261.6" y1="180.0" x2="296.2" y2="200.0" stroke="rgb(0,0,0)"  stroke-width="4.0"/>
<line x1="296.2" y1="200.0" x2="330.8" y2="180.0" stroke="rgb(0,0,0)"  stroke-width="4.0"/>
<line x1="297.8" y1="190.8" x2="322.0" y2="176.8" stroke="rgb(0,0,0)"  stroke-width="4.0"/>
<line x1="330.8" y1="180.0" x2="330.8" y2="140.0" stroke="rgb(0,0,0)"  stroke-width="4.0"/>
<line x1="160.0" y1="160.0" x2="140.0" y2="194.6" stroke="rgb(0,0,0)"  stroke-width="4.0"/>
<line x1="150.8" y1="161.6" x2="136.8" y2="185.8" stroke="rgb(0,0,0)"  stroke-width="4.0"/>
<line x1="140.0" y1="194.6" x2="100.0" y2="194.6" stroke="rgb(0,0,0)"  stroke-width="4.0"/>
<line x1="100.0" y1="194.6" x2="80.0" y2="160.0" stroke="rgb(0,0,0)"  stroke-width="4.0"/>
<line x1="103.2" y1="185.8" x2="89.2" y2="161.6" stroke="rgb(0,0,0)"  stroke-width="4.0"/>
<line x1="80.0" y1="160.0" x2="100.0" y2="125.4" stroke="rgb(0,0,0)"  stroke-width="4.0"/>
<line x1="100.0" y1="125.4" x2="140.0" y2="125.4" stroke="rgb(0,0,0)"  stroke-width="4.0"/>
<line x1="106.0" y1="132.6" x2="134.0" y2="132.6" stroke="rgb(0,0,0)"  stroke-width="4.0"/>
<line x1="140.0" y1="125.4" x2="160.0" y2="160.0" stroke="rgb(0,0,0)"  stroke-width="4.0"/>
<text x="217.511410" y="135.639320" fill="rgb(0,0,0)"  stroke="rgb(0,0,0)" stroke-width="1" font-size="16" >O</text>
<text x="359.476719" y="208.000000" fill="rgb(0,0,0)"  stroke="rgb(0,0,0)" stroke-width="1" font-size="16" >OH</text>
<text x="359.476719" y="48.000000" fill="rgb(0,0,0)"  stroke="rgb(0,0,0)" stroke-width="1" font-size="16" >N</text>
<text x="22.000000" y="168.000000" fill="rgb(0,0,0)"  stroke="rgb(0,0,0)" stroke-width="1" font-size="16" >HO</text>
<title>244 - OBDepict</title>
</svg>
