<?xml version="1.0"?>
<svg xmlns="http://www.w3.org/2000/svg"
xmlns:xlink="http://www.w3.org/1999/xlink" xmlns:cml="http://www.xml-cml.org/schema" width="357.128" height="194.641" x="0" y="0" font-family="sans-serif" stroke="rgb(0,0,0)" stroke-width="4"  stroke-linecap="round">
<rect x="0%" y="0%" width="100%" height="100%" stroke-width="0" fill="rgb(255,255,255)"  />
<line x1="305.9" y1="46.5" x2="282.5" y2="60.0" stroke="rgb(0,0,0)"  stroke-width="4.0"/>
<line x1="213.2" y1="100.0" x2="178.6" y2="120.0" stroke="rgb(0,0,0)"  stroke-width="4.0"/>
<line x1="178.6" y1="120.0" x2="143.9" y2="100.0" stroke="rgb(0,0,0)"  stroke-width="4.0"/>
<line x1="178.6" y1="120.0" x2="158.6" y2="154.6" stroke="rgb(0,0,0)"  stroke-width="4.0"/>
<line x1="178.6" y1="120.0" x2="198.6" y2="154.6" stroke="rgb(0,0,0)"  stroke-width="4.0"/>
<line x1="74.6" y1="60.0" x2="51.3" y2="46.5" stroke="rgb(0,0,0)"  stroke-width="4.0"/>
<line x1="282.5" y1="60.0" x2="247.8" y2="40.0" stroke="rgb(0,0,0)"  stroke-width="4.0"/>
<line x1="273.7" y1="63.2" x2="249.4" y2="49.2" stroke="rgb(0,0,0)"  stroke-width="4.0"/>
<line x1="247.8" y1="40.0" x2="213.2" y2="60.0" stroke="rgb(0,0,0)"  stroke-width="4.0"/>
<line x1="213.2" y1="60.0" x2="213.2" y2="100.0" stroke="rgb(0,0,0)"  stroke-width="4.0"/>
<line x1="220.4" y1="66.0" x2="220.4" y2="94.0" stroke="rgb(0,0,0)"  stroke-width="4.0"/>
<line x1="213.2" y1="100.0" x2="247.8" y2="120.0" stroke="rgb(0,0,0)"  stroke-width="4.0"/>
<line x1="247.8" y1="120.0" x2="282.5" y2="100.0" stroke="rgb(0,0,0)"  stroke-width="4.0"/>
<line x1="249.4" y1="110.8" x2="273.7" y2="96.8" stroke="rgb(0,0,0)"  stroke-width="4.0"/>
<line x1="282.5" y1="100.0" x2="282.5" y2="60.0" stroke="rgb(0,0,0)"  stroke-width="4.0"/>
<line x1="143.9" y1="100.0" x2="143.9" y2="60.0" stroke="rgb(0,0,0)"  stroke-width="4.0"/>
<line x1="143.9" y1="60.0" x2="109.3" y2="40.0" stroke="rgb(0,0,0)"  stroke-width="4.0"/>
<line x1="135.1" y1="63.2" x2="110.9" y2="49.2" stroke="rgb(0,0,0)"  stroke-width="4.0"/>
<line x1="109.3" y1="40.0" x2="74.6" y2="60.0" stroke="rgb(0,0,0)"  stroke-width="4.0"/>
<line x1="74.6" y1="60.0" x2="74.6" y2="100.0" stroke="rgb(0,0,0)"  stroke-width="4.0"/>
<line x1="81.8" y1="66.0" x2="81.8" y2="94.0" stroke="rgb(0,0,0)"  stroke-width="4.0"/>
<line x1="74.6" y1="100.0" x2="109.3" y2="120.0" stroke="rgb(0,0,0)"  stroke-width="4.0"/>
<line x1="109.3" y1="120.0" x2="143.9" y2="100.0" stroke="rgb(0,0,0)"  stroke-width="4.0"/>
<line x1="110.9" y1="110.8" x2="135.1" y2="96.8" stroke="rgb(0,0,0)"  stroke-width="4.0"/>
<text x="311.128129" y="48.000000" fill="rgb(0,0,0)"  stroke="rgb(0,0,0)" stroke-width="1" font-size="16" >OH</text>
<text x="22.000000" y="48.000000" fill="rgb(0,0,0)"  stroke="rgb(0,0,0)" stroke-width="1" font-size="16" >HO</text>
<title>2OH - OBDepict</title>
</svg>
