<?xml version="1.0"?>
<svg xmlns="http://www.w3.org/2000/svg"
xmlns:xlink="http://www.w3.org/1999/xlink" xmlns:cml="http://www.xml-cml.org/schema" width="338.083" height="250.631" x="0" y="0" font-family="sans-serif" stroke="rgb(0,0,0)" stroke-width="4"  stroke-linecap="round">
<rect x="0%" y="0%" width="100%" height="100%" stroke-width="0" fill="rgb(255,255,255)"  />
<polygon points="221.035 114.961 152.76 80.1557 156.76 73.2277 " stroke-width="4" fill="rgb(0,0,0)"  stroke="rgb(0,0,0)" />
<line x1="220.2" y1="145.6" x2="221.8" y2="145.6" stroke="rgb(0,0,0)"  stroke-width="4.0"/>
<line x1="219.6" y1="139.5" x2="222.5" y2="139.5" stroke="rgb(0,0,0)"  stroke-width="4.0"/>
<line x1="218.9" y1="133.3" x2="223.1" y2="133.3" stroke="rgb(0,0,0)"  stroke-width="4.0"/>
<line x1="218.3" y1="127.2" x2="223.8" y2="127.2" stroke="rgb(0,0,0)"  stroke-width="4.0"/>
<line x1="217.7" y1="121.1" x2="224.4" y2="121.1" stroke="rgb(0,0,0)"  stroke-width="4.0"/>
<line x1="217.0" y1="115.0" x2="225.0" y2="115.0" stroke="rgb(0,0,0)"  stroke-width="4.0"/>
<line x1="255.0" y1="180.0" x2="253.4" y2="180.0" stroke="rgb(0,0,0)"  stroke-width="4.0"/>
<line x1="255.6" y1="186.1" x2="252.7" y2="186.1" stroke="rgb(0,0,0)"  stroke-width="4.0"/>
<line x1="256.2" y1="192.3" x2="252.1" y2="192.3" stroke="rgb(0,0,0)"  stroke-width="4.0"/>
<line x1="256.9" y1="198.4" x2="251.4" y2="198.4" stroke="rgb(0,0,0)"  stroke-width="4.0"/>
<line x1="257.5" y1="204.5" x2="250.8" y2="204.5" stroke="rgb(0,0,0)"  stroke-width="4.0"/>
<line x1="258.2" y1="210.6" x2="250.2" y2="210.6" stroke="rgb(0,0,0)"  stroke-width="4.0"/>
<line x1="260.4" y1="91.3" x2="261.2" y2="92.7" stroke="rgb(0,0,0)"  stroke-width="4.0"/>
<line x1="265.4" y1="87.7" x2="266.8" y2="90.2" stroke="rgb(0,0,0)"  stroke-width="4.0"/>
<line x1="270.4" y1="84.1" x2="272.4" y2="87.7" stroke="rgb(0,0,0)"  stroke-width="4.0"/>
<line x1="275.3" y1="80.5" x2="278.1" y2="85.2" stroke="rgb(0,0,0)"  stroke-width="4.0"/>
<line x1="280.3" y1="76.9" x2="283.7" y2="82.7" stroke="rgb(0,0,0)"  stroke-width="4.0"/>
<line x1="285.3" y1="73.2" x2="289.3" y2="80.2" stroke="rgb(0,0,0)"  stroke-width="4.0"/>
<line x1="287.3" y1="76.7" x2="294.4" y2="52.5" stroke="rgb(0,0,0)"  stroke-width="4.0"/>
<polygon points="187.895682 134.100466 156.765683 156.692181 152.765683 149.763978 " stroke-width="4.000000" fill="rgb(0,0,0)"  stroke="rgb(0,0,0)" />
<line x1="78.3" y1="153.2" x2="53.0" y2="153.2" stroke="rgb(0,0,0)"  stroke-width="4.0"/>
<line x1="221.0" y1="115.0" x2="221.0" y2="153.2" stroke="rgb(0,0,0)"  stroke-width="4.0"/>
<line x1="221.0" y1="153.2" x2="254.2" y2="172.4" stroke="rgb(0,0,0)"  stroke-width="4.0"/>
<line x1="254.2" y1="172.4" x2="287.3" y2="153.2" stroke="rgb(0,0,0)"  stroke-width="4.0"/>
<line x1="287.3" y1="153.2" x2="287.3" y2="115.0" stroke="rgb(0,0,0)"  stroke-width="4.0"/>
<line x1="287.3" y1="115.0" x2="254.2" y2="95.8" stroke="rgb(0,0,0)"  stroke-width="4.0"/>
<line x1="254.2" y1="95.8" x2="221.0" y2="115.0" stroke="rgb(0,0,0)"  stroke-width="4.0"/>
<line x1="254.2" y1="95.8" x2="221.0" y2="76.7" stroke="rgb(0,0,0)"  stroke-width="4.0"/>
<line x1="221.0" y1="76.7" x2="199.2" y2="89.3" stroke="rgb(0,0,0)"  stroke-width="4.0"/>
<line x1="187.9" y1="108.8" x2="187.9" y2="134.1" stroke="rgb(0,0,0)"  stroke-width="4.0"/>
<line x1="187.9" y1="134.1" x2="221.0" y2="153.2" stroke="rgb(0,0,0)"  stroke-width="4.0"/>
<line x1="154.8" y1="153.2" x2="135.6" y2="186.4" stroke="rgb(0,0,0)"  stroke-width="4.0"/>
<line x1="135.6" y1="186.4" x2="97.4" y2="186.4" stroke="rgb(0,0,0)"  stroke-width="4.0"/>
<line x1="129.6" y1="179.2" x2="103.4" y2="179.2" stroke="rgb(0,0,0)"  stroke-width="4.0"/>
<line x1="97.4" y1="186.4" x2="78.3" y2="153.2" stroke="rgb(0,0,0)"  stroke-width="4.0"/>
<line x1="78.3" y1="153.2" x2="97.4" y2="120.1" stroke="rgb(0,0,0)"  stroke-width="4.0"/>
<line x1="87.5" y1="151.6" x2="100.6" y2="128.9" stroke="rgb(0,0,0)"  stroke-width="4.0"/>
<line x1="97.4" y1="120.1" x2="135.6" y2="120.1" stroke="rgb(0,0,0)"  stroke-width="4.0"/>
<line x1="135.6" y1="120.1" x2="154.8" y2="153.2" stroke="rgb(0,0,0)"  stroke-width="4.0"/>
<line x1="132.4" y1="128.9" x2="145.5" y2="151.6" stroke="rgb(0,0,0)"  stroke-width="4.0"/>
<text x="292.082751" y="48.000000" fill="rgb(0,0,0)"  stroke="rgb(0,0,0)" stroke-width="1" font-size="16" >OH</text>
<text x="181.896111" y="103.825544" fill="rgb(0,0,0)"  stroke="rgb(0,0,0)" stroke-width="1" font-size="16" >O</text>
<text x="22.000000" y="161.228080" fill="rgb(0,0,0)"  stroke="rgb(0,0,0)" stroke-width="1" font-size="16" >HO</text>
<title>459 - OBDepict</title>
</svg>
