<?xml version="1.0"?>
<svg xmlns="http://www.w3.org/2000/svg"
xmlns:xlink="http://www.w3.org/1999/xlink" xmlns:cml="http://www.xml-cml.org/schema" width="383.238" height="255.694" x="0" y="0" font-family="sans-serif" stroke="rgb(0,0,0)" stroke-width="4"  stroke-linecap="round">
<rect x="0%" y="0%" width="100%" height="100%" stroke-width="0" fill="rgb(255,255,255)"  />
<polygon points="208.33 98.54 204.319 59.9429 212.319 59.9406 " stroke-width="4" fill="rgb(0,0,0)"  stroke="rgb(0,0,0)" />
<line x1="234.7" y1="114.7" x2="235.5" y2="113.3" stroke="rgb(0,0,0)"  stroke-width="4.0"/>
<line x1="229.0" y1="112.1" x2="230.4" y2="109.6" stroke="rgb(0,0,0)"  stroke-width="4.0"/>
<line x1="223.3" y1="109.6" x2="225.4" y2="106.0" stroke="rgb(0,0,0)"  stroke-width="4.0"/>
<line x1="217.7" y1="107.1" x2="220.4" y2="102.4" stroke="rgb(0,0,0)"  stroke-width="4.0"/>
<line x1="212.0" y1="104.5" x2="215.4" y2="98.7" stroke="rgb(0,0,0)"  stroke-width="4.0"/>
<line x1="206.3" y1="102.0" x2="210.3" y2="95.1" stroke="rgb(0,0,0)"  stroke-width="4.0"/>
<line x1="167.8" y1="114.7" x2="168.6" y2="113.3" stroke="rgb(0,0,0)"  stroke-width="4.0"/>
<line x1="162.2" y1="112.2" x2="163.6" y2="109.7" stroke="rgb(0,0,0)"  stroke-width="4.0"/>
<line x1="156.5" y1="109.6" x2="158.6" y2="106.0" stroke="rgb(0,0,0)"  stroke-width="4.0"/>
<line x1="150.8" y1="107.1" x2="153.5" y2="102.4" stroke="rgb(0,0,0)"  stroke-width="4.0"/>
<line x1="145.1" y1="104.6" x2="148.5" y2="98.7" stroke="rgb(0,0,0)"  stroke-width="4.0"/>
<line x1="139.5" y1="102.0" x2="143.5" y2="95.1" stroke="rgb(0,0,0)"  stroke-width="4.0"/>
<line x1="242.6" y1="164.4" x2="241.0" y2="164.4" stroke="rgb(0,0,0)"  stroke-width="4.0"/>
<line x1="243.2" y1="170.8" x2="240.3" y2="170.8" stroke="rgb(0,0,0)"  stroke-width="4.0"/>
<line x1="243.9" y1="177.2" x2="239.7" y2="177.2" stroke="rgb(0,0,0)"  stroke-width="4.0"/>
<line x1="244.5" y1="183.6" x2="239.1" y2="183.6" stroke="rgb(0,0,0)"  stroke-width="4.0"/>
<line x1="245.1" y1="190.0" x2="238.4" y2="190.0" stroke="rgb(0,0,0)"  stroke-width="4.0"/>
<line x1="245.8" y1="196.4" x2="237.8" y2="196.4" stroke="rgb(0,0,0)"  stroke-width="4.0"/>
<polygon points="308.574417 117.810449 324.690232 96.026957 330.348701 101.682196 " stroke-width="4.000000" fill="rgb(0,0,0)"  stroke="rgb(0,0,0)" />
<line x1="276.0" y1="181.1" x2="274.4" y2="181.1" stroke="rgb(0,0,0)"  stroke-width="4.0"/>
<line x1="276.7" y1="185.3" x2="273.8" y2="185.3" stroke="rgb(0,0,0)"  stroke-width="4.0"/>
<line x1="277.3" y1="189.6" x2="273.1" y2="189.6" stroke="rgb(0,0,0)"  stroke-width="4.0"/>
<line x1="277.9" y1="193.9" x2="272.5" y2="193.9" stroke="rgb(0,0,0)"  stroke-width="4.0"/>
<line x1="278.6" y1="198.2" x2="271.9" y2="198.2" stroke="rgb(0,0,0)"  stroke-width="4.0"/>
<line x1="279.2" y1="202.5" x2="271.2" y2="202.5" stroke="rgb(0,0,0)"  stroke-width="4.0"/>
<polygon points="308.585433 156.385286 333.800674 166.306559 329.804693 173.237081 " stroke-width="4.000000" fill="rgb(0,0,0)"  stroke="rgb(0,0,0)" />
<line x1="74.7" y1="60.0" x2="51.3" y2="46.5" stroke="rgb(0,0,0)"  stroke-width="4.0"/>
<line x1="275.2" y1="175.7" x2="241.8" y2="156.4" stroke="rgb(0,0,0)"  stroke-width="4.0"/>
<line x1="241.8" y1="156.4" x2="241.8" y2="117.8" stroke="rgb(0,0,0)"  stroke-width="4.0"/>
<line x1="241.8" y1="117.8" x2="308.6" y2="117.8" stroke="rgb(0,0,0)"  stroke-width="4.0"/>
<line x1="308.6" y1="117.8" x2="308.6" y2="156.4" stroke="rgb(0,0,0)"  stroke-width="4.0"/>
<line x1="308.6" y1="156.4" x2="275.2" y2="175.7" stroke="rgb(0,0,0)"  stroke-width="4.0"/>
<line x1="208.3" y1="98.5" x2="241.8" y2="117.8" stroke="rgb(0,0,0)"  stroke-width="4.0"/>
<line x1="241.8" y1="156.4" x2="208.4" y2="175.7" stroke="rgb(0,0,0)"  stroke-width="4.0"/>
<line x1="208.4" y1="175.7" x2="174.9" y2="156.4" stroke="rgb(0,0,0)"  stroke-width="4.0"/>
<line x1="174.9" y1="156.4" x2="174.9" y2="117.8" stroke="rgb(0,0,0)"  stroke-width="4.0"/>
<line x1="174.9" y1="117.8" x2="208.3" y2="98.5" stroke="rgb(0,0,0)"  stroke-width="4.0"/>
<line x1="208.3" y1="98.5" x2="208.3" y2="59.9" stroke="rgb(0,0,0)"  stroke-width="4.0"/>
<line x1="208.3" y1="59.9" x2="174.9" y2="40.7" stroke="rgb(0,0,0)"  stroke-width="4.0"/>
<line x1="174.9" y1="40.7" x2="141.5" y2="60.0" stroke="rgb(0,0,0)"  stroke-width="4.0"/>
<line x1="141.5" y1="60.0" x2="141.5" y2="98.6" stroke="rgb(0,0,0)"  stroke-width="4.0"/>
<line x1="148.7" y1="66.0" x2="148.7" y2="92.6" stroke="rgb(0,0,0)"  stroke-width="4.0"/>
<line x1="141.5" y1="98.6" x2="174.9" y2="117.8" stroke="rgb(0,0,0)"  stroke-width="4.0"/>
<line x1="108.1" y1="117.9" x2="74.7" y2="98.6" stroke="rgb(0,0,0)"  stroke-width="4.0"/>
<line x1="106.5" y1="108.6" x2="83.5" y2="95.3" stroke="rgb(0,0,0)"  stroke-width="4.0"/>
<line x1="74.7" y1="98.6" x2="74.7" y2="60.0" stroke="rgb(0,0,0)"  stroke-width="4.0"/>
<line x1="74.7" y1="60.0" x2="108.1" y2="40.7" stroke="rgb(0,0,0)"  stroke-width="4.0"/>
<line x1="83.5" y1="63.2" x2="106.5" y2="49.9" stroke="rgb(0,0,0)"  stroke-width="4.0"/>
<line x1="108.1" y1="40.7" x2="141.5" y2="60.0" stroke="rgb(0,0,0)"  stroke-width="4.0"/>
<line x1="141.5" y1="98.6" x2="108.1" y2="117.9" stroke="rgb(0,0,0)"  stroke-width="4.0"/>
<text x="330.850610" y="97.518102" fill="rgb(0,0,0)"  stroke="rgb(0,0,0)" stroke-width="1" font-size="16" >OH</text>
<text x="269.232880" y="223.693927" fill="rgb(0,0,0)"  stroke="rgb(0,0,0)" stroke-width="1" font-size="16" >OH</text>
<text x="337.238046" y="184.365187" fill="rgb(0,0,0)"  stroke="rgb(0,0,0)" stroke-width="1" font-size="16" >OH</text>
<text x="22.000000" y="48.000000" fill="rgb(0,0,0)"  stroke="rgb(0,0,0)" stroke-width="1" font-size="16" >HO</text>
<title>4OH - OBDepict</title>
</svg>
