<?xml version="1.0"?>
<svg xmlns="http://www.w3.org/2000/svg"
xmlns:xlink="http://www.w3.org/1999/xlink" xmlns:cml="http://www.xml-cml.org/schema" width="495.692" height="340" x="0" y="0" font-family="sans-serif" stroke="rgb(0,0,0)" stroke-width="4"  stroke-linecap="round">
<rect x="0%" y="0%" width="100%" height="100%" stroke-width="0" fill="rgb(255,255,255)"  />
<line x1="444.4" y1="233.5" x2="421.1" y2="220.0" stroke="rgb(0,0,0)"  stroke-width="4.0"/>
<polygon points="317.128129 160.000000 284.487113 183.464102 280.487113 176.535898 " stroke-width="4.000000" fill="rgb(0,0,0)"  stroke="rgb(0,0,0)" />
<line x1="305.9" y1="113.5" x2="282.5" y2="100.0" stroke="rgb(0,0,0)"  stroke-width="4.0"/>
<line x1="213.2" y1="220.0" x2="189.8" y2="233.5" stroke="rgb(0,0,0)"  stroke-width="4.0"/>
<line x1="125.8" y1="288.6" x2="125.0" y2="290.0" stroke="rgb(0,0,0)"  stroke-width="4.0"/>
<line x1="129.8" y1="290.2" x2="128.3" y2="292.7" stroke="rgb(0,0,0)"  stroke-width="4.0"/>
<line x1="133.8" y1="291.8" x2="131.7" y2="295.4" stroke="rgb(0,0,0)"  stroke-width="4.0"/>
<line x1="137.9" y1="293.4" x2="135.1" y2="298.1" stroke="rgb(0,0,0)"  stroke-width="4.0"/>
<line x1="141.9" y1="294.9" x2="138.5" y2="300.8" stroke="rgb(0,0,0)"  stroke-width="4.0"/>
<line x1="145.9" y1="296.5" x2="141.9" y2="303.5" stroke="rgb(0,0,0)"  stroke-width="4.0"/>
<polygon points="109.282032 240.000000 141.923048 216.535898 145.923048 223.464102 " stroke-width="4.000000" fill="rgb(0,0,0)"  stroke="rgb(0,0,0)" />
<line x1="421.1" y1="220.0" x2="386.4" y2="240.0" stroke="rgb(0,0,0)"  stroke-width="4.0"/>
<line x1="412.3" y1="216.8" x2="388.0" y2="230.8" stroke="rgb(0,0,0)"  stroke-width="4.0"/>
<line x1="386.4" y1="240.0" x2="351.8" y2="220.0" stroke="rgb(0,0,0)"  stroke-width="4.0"/>
<line x1="351.8" y1="220.0" x2="351.8" y2="180.0" stroke="rgb(0,0,0)"  stroke-width="4.0"/>
<line x1="359.0" y1="214.0" x2="359.0" y2="186.0" stroke="rgb(0,0,0)"  stroke-width="4.0"/>
<line x1="351.8" y1="180.0" x2="386.4" y2="160.0" stroke="rgb(0,0,0)"  stroke-width="4.0"/>
<line x1="386.4" y1="160.0" x2="421.1" y2="180.0" stroke="rgb(0,0,0)"  stroke-width="4.0"/>
<line x1="388.0" y1="169.2" x2="412.3" y2="183.2" stroke="rgb(0,0,0)"  stroke-width="4.0"/>
<line x1="421.1" y1="180.0" x2="421.1" y2="220.0" stroke="rgb(0,0,0)"  stroke-width="4.0"/>
<line x1="317.1" y1="160.0" x2="351.8" y2="180.0" stroke="rgb(0,0,0)"  stroke-width="4.0"/>
<line x1="386.4" y1="160.0" x2="386.4" y2="120.0" stroke="rgb(0,0,0)"  stroke-width="4.0"/>
<line x1="386.4" y1="120.0" x2="351.8" y2="100.0" stroke="rgb(0,0,0)"  stroke-width="4.0"/>
<line x1="351.8" y1="100.0" x2="328.4" y2="113.5" stroke="rgb(0,0,0)"  stroke-width="4.0"/>
<line x1="317.1" y1="133.0" x2="317.1" y2="160.0" stroke="rgb(0,0,0)"  stroke-width="4.0"/>
<line x1="282.5" y1="100.0" x2="247.8" y2="120.0" stroke="rgb(0,0,0)"  stroke-width="4.0"/>
<line x1="273.7" y1="96.8" x2="249.4" y2="110.8" stroke="rgb(0,0,0)"  stroke-width="4.0"/>
<line x1="247.8" y1="120.0" x2="213.2" y2="100.0" stroke="rgb(0,0,0)"  stroke-width="4.0"/>
<line x1="213.2" y1="100.0" x2="213.2" y2="60.0" stroke="rgb(0,0,0)"  stroke-width="4.0"/>
<line x1="220.4" y1="94.0" x2="220.4" y2="66.0" stroke="rgb(0,0,0)"  stroke-width="4.0"/>
<line x1="213.2" y1="60.0" x2="247.8" y2="40.0" stroke="rgb(0,0,0)"  stroke-width="4.0"/>
<line x1="247.8" y1="40.0" x2="282.5" y2="60.0" stroke="rgb(0,0,0)"  stroke-width="4.0"/>
<line x1="249.4" y1="49.2" x2="273.7" y2="63.2" stroke="rgb(0,0,0)"  stroke-width="4.0"/>
<line x1="282.5" y1="60.0" x2="282.5" y2="100.0" stroke="rgb(0,0,0)"  stroke-width="4.0"/>
<line x1="282.5" y1="180.0" x2="282.5" y2="220.0" stroke="rgb(0,0,0)"  stroke-width="4.0"/>
<line x1="275.3" y1="186.0" x2="275.3" y2="214.0" stroke="rgb(0,0,0)"  stroke-width="4.0"/>
<line x1="282.5" y1="220.0" x2="247.8" y2="240.0" stroke="rgb(0,0,0)"  stroke-width="4.0"/>
<line x1="247.8" y1="240.0" x2="213.2" y2="220.0" stroke="rgb(0,0,0)"  stroke-width="4.0"/>
<line x1="246.2" y1="230.8" x2="222.0" y2="216.8" stroke="rgb(0,0,0)"  stroke-width="4.0"/>
<line x1="213.2" y1="220.0" x2="213.2" y2="180.0" stroke="rgb(0,0,0)"  stroke-width="4.0"/>
<line x1="213.2" y1="180.0" x2="247.8" y2="160.0" stroke="rgb(0,0,0)"  stroke-width="4.0"/>
<line x1="222.0" y1="183.2" x2="246.2" y2="169.2" stroke="rgb(0,0,0)"  stroke-width="4.0"/>
<line x1="247.8" y1="160.0" x2="282.5" y2="180.0" stroke="rgb(0,0,0)"  stroke-width="4.0"/>
<line x1="178.6" y1="253.0" x2="178.6" y2="280.0" stroke="rgb(0,0,0)"  stroke-width="4.0"/>
<line x1="178.6" y1="280.0" x2="143.9" y2="300.0" stroke="rgb(0,0,0)"  stroke-width="4.0"/>
<line x1="143.9" y1="300.0" x2="120.5" y2="286.5" stroke="rgb(0,0,0)"  stroke-width="4.0"/>
<line x1="109.3" y1="267.0" x2="109.3" y2="240.0" stroke="rgb(0,0,0)"  stroke-width="4.0"/>
<line x1="109.3" y1="240.0" x2="143.9" y2="220.0" stroke="rgb(0,0,0)"  stroke-width="4.0"/>
<line x1="143.9" y1="220.0" x2="167.3" y2="233.5" stroke="rgb(0,0,0)"  stroke-width="4.0"/>
<line x1="74.6" y1="220.0" x2="40.0" y2="240.0" stroke="rgb(0,0,0)"  stroke-width="4.0"/>
<line x1="40.0" y1="240.0" x2="40.0" y2="280.0" stroke="rgb(0,0,0)"  stroke-width="4.0"/>
<line x1="40.0" y1="280.0" x2="74.6" y2="300.0" stroke="rgb(0,0,0)"  stroke-width="4.0"/>
<line x1="74.6" y1="300.0" x2="98.0" y2="286.5" stroke="rgb(0,0,0)"  stroke-width="4.0"/>
<line x1="109.3" y1="240.0" x2="74.6" y2="220.0" stroke="rgb(0,0,0)"  stroke-width="4.0"/>
<text x="449.692194" y="248.000000" fill="rgb(0,0,0)"  stroke="rgb(0,0,0)" stroke-width="1" font-size="16" >OH</text>
<text x="311.128129" y="128.000000" fill="rgb(0,0,0)"  stroke="rgb(0,0,0)" stroke-width="1" font-size="16" >N</text>
<text x="172.564065" y="248.000000" fill="rgb(0,0,0)"  stroke="rgb(0,0,0)" stroke-width="1" font-size="16" >N</text>
<text x="103.282032" y="288.000000" fill="rgb(0,0,0)"  stroke="rgb(0,0,0)" stroke-width="1" font-size="16" >N</text>
<title>AEJ - OBDepict</title>
</svg>
