<?xml version="1.0"?>
<svg xmlns="http://www.w3.org/2000/svg"
xmlns:xlink="http://www.w3.org/1999/xlink" xmlns:cml="http://www.xml-cml.org/schema" width="564.139" height="340" x="0" y="0" font-family="sans-serif" stroke="rgb(0,0,0)" stroke-width="4"  stroke-linecap="round">
<rect x="0%" y="0%" width="100%" height="100%" stroke-width="0" fill="rgb(255,255,255)"  />
<line x1="344.4" y1="224.7" x2="343.6" y2="223.3" stroke="rgb(0,0,0)"  stroke-width="4.0"/>
<line x1="339.2" y1="228.4" x2="337.7" y2="226.0" stroke="rgb(0,0,0)"  stroke-width="4.0"/>
<line x1="334.0" y1="232.2" x2="331.9" y2="228.6" stroke="rgb(0,0,0)"  stroke-width="4.0"/>
<line x1="328.7" y1="236.0" x2="326.0" y2="231.2" stroke="rgb(0,0,0)"  stroke-width="4.0"/>
<line x1="323.5" y1="239.7" x2="320.2" y2="233.9" stroke="rgb(0,0,0)"  stroke-width="4.0"/>
<line x1="318.3" y1="243.5" x2="314.3" y2="236.5" stroke="rgb(0,0,0)"  stroke-width="4.0"/>
<line x1="343.6" y1="176.7" x2="344.4" y2="175.3" stroke="rgb(0,0,0)"  stroke-width="4.0"/>
<line x1="337.7" y1="174.0" x2="339.2" y2="171.6" stroke="rgb(0,0,0)"  stroke-width="4.0"/>
<line x1="331.9" y1="171.4" x2="334.0" y2="167.8" stroke="rgb(0,0,0)"  stroke-width="4.0"/>
<line x1="326.0" y1="168.8" x2="328.7" y2="164.0" stroke="rgb(0,0,0)"  stroke-width="4.0"/>
<line x1="320.2" y1="166.1" x2="323.5" y2="160.3" stroke="rgb(0,0,0)"  stroke-width="4.0"/>
<line x1="314.3" y1="163.5" x2="318.3" y2="156.5" stroke="rgb(0,0,0)"  stroke-width="4.0"/>
<line x1="489.5" y1="220.0" x2="512.9" y2="233.5" stroke="rgb(0,0,0)"  stroke-width="4.0"/>
<line x1="247.0" y1="280.0" x2="223.6" y2="293.5" stroke="rgb(0,0,0)"  stroke-width="4.0"/>
<line x1="247.0" y1="120.0" x2="223.6" y2="106.5" stroke="rgb(0,0,0)"  stroke-width="4.0"/>
<line x1="212.4" y1="87.0" x2="212.4" y2="60.0" stroke="rgb(0,0,0)"  stroke-width="4.0"/>
<line x1="212.4" y1="60.0" x2="177.7" y2="40.0" stroke="rgb(0,0,0)"  stroke-width="4.0"/>
<line x1="177.7" y1="40.0" x2="154.3" y2="53.5" stroke="rgb(0,0,0)"  stroke-width="4.0"/>
<line x1="97.3" y1="115.7" x2="95.8" y2="115.1" stroke="rgb(0,0,0)"  stroke-width="4.0"/>
<line x1="95.2" y1="121.8" x2="92.6" y2="120.7" stroke="rgb(0,0,0)"  stroke-width="4.0"/>
<line x1="93.2" y1="127.9" x2="89.4" y2="126.3" stroke="rgb(0,0,0)"  stroke-width="4.0"/>
<line x1="91.2" y1="134.1" x2="86.2" y2="131.8" stroke="rgb(0,0,0)"  stroke-width="4.0"/>
<line x1="89.2" y1="140.2" x2="83.0" y2="137.4" stroke="rgb(0,0,0)"  stroke-width="4.0"/>
<line x1="87.2" y1="146.3" x2="79.9" y2="143.0" stroke="rgb(0,0,0)"  stroke-width="4.0"/>
<polygon points="79.780876 73.456327 39.581886 73.253276 40.418114 65.297101 " stroke-width="4.000000" fill="rgb(0,0,0)"  stroke="rgb(0,0,0)" />
<line x1="141.7" y1="72.9" x2="138.9" y2="99.8" stroke="rgb(0,0,0)"  stroke-width="4.0"/>
<line x1="138.9" y1="99.8" x2="99.8" y2="108.1" stroke="rgb(0,0,0)"  stroke-width="4.0"/>
<line x1="99.8" y1="108.1" x2="79.8" y2="73.5" stroke="rgb(0,0,0)"  stroke-width="4.0"/>
<line x1="79.8" y1="73.5" x2="106.5" y2="43.7" stroke="rgb(0,0,0)"  stroke-width="4.0"/>
<line x1="106.5" y1="43.7" x2="131.2" y2="54.7" stroke="rgb(0,0,0)"  stroke-width="4.0"/>
<line x1="350.9" y1="220.0" x2="350.9" y2="180.0" stroke="rgb(0,0,0)"  stroke-width="4.0"/>
<line x1="350.9" y1="180.0" x2="374.3" y2="166.5" stroke="rgb(0,0,0)"  stroke-width="4.0"/>
<line x1="396.8" y1="166.5" x2="420.2" y2="180.0" stroke="rgb(0,0,0)"  stroke-width="4.0"/>
<line x1="420.2" y1="180.0" x2="420.2" y2="220.0" stroke="rgb(0,0,0)"  stroke-width="4.0"/>
<line x1="420.2" y1="220.0" x2="396.8" y2="233.5" stroke="rgb(0,0,0)"  stroke-width="4.0"/>
<line x1="374.3" y1="233.5" x2="350.9" y2="220.0" stroke="rgb(0,0,0)"  stroke-width="4.0"/>
<line x1="454.9" y1="160.0" x2="420.2" y2="180.0" stroke="rgb(0,0,0)"  stroke-width="4.0"/>
<line x1="453.3" y1="169.2" x2="429.0" y2="183.2" stroke="rgb(0,0,0)"  stroke-width="4.0"/>
<line x1="420.2" y1="220.0" x2="454.9" y2="240.0" stroke="rgb(0,0,0)"  stroke-width="4.0"/>
<line x1="429.0" y1="216.8" x2="453.3" y2="230.8" stroke="rgb(0,0,0)"  stroke-width="4.0"/>
<line x1="454.9" y1="240.0" x2="489.5" y2="220.0" stroke="rgb(0,0,0)"  stroke-width="4.0"/>
<line x1="489.5" y1="220.0" x2="489.5" y2="180.0" stroke="rgb(0,0,0)"  stroke-width="4.0"/>
<line x1="482.3" y1="214.0" x2="482.3" y2="186.0" stroke="rgb(0,0,0)"  stroke-width="4.0"/>
<line x1="489.5" y1="180.0" x2="454.9" y2="160.0" stroke="rgb(0,0,0)"  stroke-width="4.0"/>
<line x1="316.3" y1="240.0" x2="316.3" y2="280.0" stroke="rgb(0,0,0)"  stroke-width="4.0"/>
<line x1="309.1" y1="246.0" x2="309.1" y2="274.0" stroke="rgb(0,0,0)"  stroke-width="4.0"/>
<line x1="316.3" y1="280.0" x2="281.7" y2="300.0" stroke="rgb(0,0,0)"  stroke-width="4.0"/>
<line x1="281.7" y1="300.0" x2="247.0" y2="280.0" stroke="rgb(0,0,0)"  stroke-width="4.0"/>
<line x1="280.1" y1="290.8" x2="255.8" y2="276.8" stroke="rgb(0,0,0)"  stroke-width="4.0"/>
<line x1="247.0" y1="280.0" x2="247.0" y2="240.0" stroke="rgb(0,0,0)"  stroke-width="4.0"/>
<line x1="247.0" y1="240.0" x2="281.7" y2="220.0" stroke="rgb(0,0,0)"  stroke-width="4.0"/>
<line x1="255.8" y1="243.2" x2="280.1" y2="229.2" stroke="rgb(0,0,0)"  stroke-width="4.0"/>
<line x1="281.7" y1="220.0" x2="316.3" y2="240.0" stroke="rgb(0,0,0)"  stroke-width="4.0"/>
<line x1="316.3" y1="160.0" x2="316.3" y2="120.0" stroke="rgb(0,0,0)"  stroke-width="4.0"/>
<line x1="309.1" y1="154.0" x2="309.1" y2="126.0" stroke="rgb(0,0,0)"  stroke-width="4.0"/>
<line x1="316.3" y1="120.0" x2="281.7" y2="100.0" stroke="rgb(0,0,0)"  stroke-width="4.0"/>
<line x1="281.7" y1="100.0" x2="247.0" y2="120.0" stroke="rgb(0,0,0)"  stroke-width="4.0"/>
<line x1="280.1" y1="109.2" x2="255.8" y2="123.2" stroke="rgb(0,0,0)"  stroke-width="4.0"/>
<line x1="247.0" y1="120.0" x2="247.0" y2="160.0" stroke="rgb(0,0,0)"  stroke-width="4.0"/>
<line x1="247.0" y1="160.0" x2="281.7" y2="180.0" stroke="rgb(0,0,0)"  stroke-width="4.0"/>
<line x1="255.8" y1="156.8" x2="280.1" y2="170.8" stroke="rgb(0,0,0)"  stroke-width="4.0"/>
<line x1="281.7" y1="180.0" x2="316.3" y2="160.0" stroke="rgb(0,0,0)"  stroke-width="4.0"/>
<text x="379.575031" y="168.000000" fill="rgb(0,0,0)"  stroke="rgb(0,0,0)" stroke-width="1" font-size="16" >O</text>
<text x="518.139096" y="248.000000" fill="rgb(0,0,0)"  stroke="rgb(0,0,0)" stroke-width="1" font-size="16" >OH</text>
<text x="379.575031" y="248.000000" fill="rgb(0,0,0)"  stroke="rgb(0,0,0)" stroke-width="1" font-size="16" >S</text>
<text x="194.369951" y="308.000000" fill="rgb(0,0,0)"  stroke="rgb(0,0,0)" stroke-width="1" font-size="16" >HO</text>
<text x="206.369951" y="108.000000" fill="rgb(0,0,0)"  stroke="rgb(0,0,0)" stroke-width="1" font-size="16" >O</text>
<text x="137.087918" y="68.000000" fill="rgb(0,0,0)"  stroke="rgb(0,0,0)" stroke-width="1" font-size="16" >N</text>
<title>AIH - OBDepict</title>
</svg>
