<?xml version="1.0"?>
<svg xmlns="http://www.w3.org/2000/svg"
xmlns:xlink="http://www.w3.org/1999/xlink" xmlns:cml="http://www.xml-cml.org/schema" width="524.358" height="380" x="0" y="0" font-family="sans-serif" stroke="rgb(0,0,0)" stroke-width="4"  stroke-linecap="round">
<rect x="0%" y="0%" width="100%" height="100%" stroke-width="0" fill="rgb(255,255,255)"  />
<line x1="304.6" y1="264.7" x2="303.8" y2="263.3" stroke="rgb(0,0,0)"  stroke-width="4.0"/>
<line x1="299.4" y1="268.4" x2="298.0" y2="266.0" stroke="rgb(0,0,0)"  stroke-width="4.0"/>
<line x1="294.2" y1="272.2" x2="292.1" y2="268.6" stroke="rgb(0,0,0)"  stroke-width="4.0"/>
<line x1="289.0" y1="276.0" x2="286.2" y2="271.2" stroke="rgb(0,0,0)"  stroke-width="4.0"/>
<line x1="283.7" y1="279.7" x2="280.4" y2="273.9" stroke="rgb(0,0,0)"  stroke-width="4.0"/>
<line x1="278.5" y1="283.5" x2="274.5" y2="276.5" stroke="rgb(0,0,0)"  stroke-width="4.0"/>
<line x1="303.8" y1="216.7" x2="304.6" y2="215.3" stroke="rgb(0,0,0)"  stroke-width="4.0"/>
<line x1="298.0" y1="214.0" x2="299.4" y2="211.6" stroke="rgb(0,0,0)"  stroke-width="4.0"/>
<line x1="292.1" y1="211.4" x2="294.2" y2="207.8" stroke="rgb(0,0,0)"  stroke-width="4.0"/>
<line x1="286.2" y1="208.8" x2="289.0" y2="204.0" stroke="rgb(0,0,0)"  stroke-width="4.0"/>
<line x1="280.4" y1="206.1" x2="283.7" y2="200.3" stroke="rgb(0,0,0)"  stroke-width="4.0"/>
<line x1="274.5" y1="203.5" x2="278.5" y2="196.5" stroke="rgb(0,0,0)"  stroke-width="4.0"/>
<line x1="449.7" y1="260.0" x2="473.1" y2="273.5" stroke="rgb(0,0,0)"  stroke-width="4.0"/>
<line x1="207.2" y1="320.0" x2="183.8" y2="333.5" stroke="rgb(0,0,0)"  stroke-width="4.0"/>
<line x1="207.2" y1="160.0" x2="183.8" y2="146.5" stroke="rgb(0,0,0)"  stroke-width="4.0"/>
<line x1="172.6" y1="127.0" x2="172.6" y2="100.0" stroke="rgb(0,0,0)"  stroke-width="4.0"/>
<line x1="145.3" y1="83.3" x2="144.5" y2="84.7" stroke="rgb(0,0,0)"  stroke-width="4.0"/>
<line x1="151.1" y1="86.0" x2="149.7" y2="88.4" stroke="rgb(0,0,0)"  stroke-width="4.0"/>
<line x1="157.0" y1="88.6" x2="154.9" y2="92.2" stroke="rgb(0,0,0)"  stroke-width="4.0"/>
<line x1="162.9" y1="91.2" x2="160.1" y2="96.0" stroke="rgb(0,0,0)"  stroke-width="4.0"/>
<line x1="168.7" y1="93.9" x2="165.4" y2="99.7" stroke="rgb(0,0,0)"  stroke-width="4.0"/>
<line x1="174.6" y1="96.5" x2="170.6" y2="103.5" stroke="rgb(0,0,0)"  stroke-width="4.0"/>
<line x1="137.9" y1="80.0" x2="137.9" y2="40.0" stroke="rgb(0,0,0)"  stroke-width="4.0"/>
<line x1="137.9" y1="80.0" x2="114.6" y2="93.5" stroke="rgb(0,0,0)"  stroke-width="4.0"/>
<line x1="101.9" y1="112.9" x2="99.1" y2="139.8" stroke="rgb(0,0,0)"  stroke-width="4.0"/>
<line x1="99.1" y1="139.8" x2="60.0" y2="148.1" stroke="rgb(0,0,0)"  stroke-width="4.0"/>
<line x1="60.0" y1="148.1" x2="40.0" y2="113.5" stroke="rgb(0,0,0)"  stroke-width="4.0"/>
<line x1="40.0" y1="113.5" x2="66.8" y2="83.7" stroke="rgb(0,0,0)"  stroke-width="4.0"/>
<line x1="66.8" y1="83.7" x2="91.4" y2="94.7" stroke="rgb(0,0,0)"  stroke-width="4.0"/>
<line x1="311.2" y1="260.0" x2="311.2" y2="220.0" stroke="rgb(0,0,0)"  stroke-width="4.0"/>
<line x1="311.2" y1="220.0" x2="334.5" y2="206.5" stroke="rgb(0,0,0)"  stroke-width="4.0"/>
<line x1="357.1" y1="206.5" x2="380.4" y2="220.0" stroke="rgb(0,0,0)"  stroke-width="4.0"/>
<line x1="380.4" y1="220.0" x2="380.4" y2="260.0" stroke="rgb(0,0,0)"  stroke-width="4.0"/>
<line x1="380.4" y1="260.0" x2="357.1" y2="273.5" stroke="rgb(0,0,0)"  stroke-width="4.0"/>
<line x1="334.5" y1="273.5" x2="311.2" y2="260.0" stroke="rgb(0,0,0)"  stroke-width="4.0"/>
<line x1="415.1" y1="200.0" x2="380.4" y2="220.0" stroke="rgb(0,0,0)"  stroke-width="4.0"/>
<line x1="413.5" y1="209.2" x2="389.2" y2="223.2" stroke="rgb(0,0,0)"  stroke-width="4.0"/>
<line x1="380.4" y1="260.0" x2="415.1" y2="280.0" stroke="rgb(0,0,0)"  stroke-width="4.0"/>
<line x1="389.2" y1="256.8" x2="413.5" y2="270.8" stroke="rgb(0,0,0)"  stroke-width="4.0"/>
<line x1="415.1" y1="280.0" x2="449.7" y2="260.0" stroke="rgb(0,0,0)"  stroke-width="4.0"/>
<line x1="449.7" y1="260.0" x2="449.7" y2="220.0" stroke="rgb(0,0,0)"  stroke-width="4.0"/>
<line x1="442.5" y1="254.0" x2="442.5" y2="226.0" stroke="rgb(0,0,0)"  stroke-width="4.0"/>
<line x1="449.7" y1="220.0" x2="415.1" y2="200.0" stroke="rgb(0,0,0)"  stroke-width="4.0"/>
<line x1="276.5" y1="280.0" x2="276.5" y2="320.0" stroke="rgb(0,0,0)"  stroke-width="4.0"/>
<line x1="269.3" y1="286.0" x2="269.3" y2="314.0" stroke="rgb(0,0,0)"  stroke-width="4.0"/>
<line x1="276.5" y1="320.0" x2="241.9" y2="340.0" stroke="rgb(0,0,0)"  stroke-width="4.0"/>
<line x1="241.9" y1="340.0" x2="207.2" y2="320.0" stroke="rgb(0,0,0)"  stroke-width="4.0"/>
<line x1="240.3" y1="330.8" x2="216.0" y2="316.8" stroke="rgb(0,0,0)"  stroke-width="4.0"/>
<line x1="207.2" y1="320.0" x2="207.2" y2="280.0" stroke="rgb(0,0,0)"  stroke-width="4.0"/>
<line x1="207.2" y1="280.0" x2="241.9" y2="260.0" stroke="rgb(0,0,0)"  stroke-width="4.0"/>
<line x1="216.0" y1="283.2" x2="240.3" y2="269.2" stroke="rgb(0,0,0)"  stroke-width="4.0"/>
<line x1="241.9" y1="260.0" x2="276.5" y2="280.0" stroke="rgb(0,0,0)"  stroke-width="4.0"/>
<line x1="276.5" y1="200.0" x2="276.5" y2="160.0" stroke="rgb(0,0,0)"  stroke-width="4.0"/>
<line x1="269.3" y1="194.0" x2="269.3" y2="166.0" stroke="rgb(0,0,0)"  stroke-width="4.0"/>
<line x1="276.5" y1="160.0" x2="241.9" y2="140.0" stroke="rgb(0,0,0)"  stroke-width="4.0"/>
<line x1="241.9" y1="140.0" x2="207.2" y2="160.0" stroke="rgb(0,0,0)"  stroke-width="4.0"/>
<line x1="240.3" y1="149.2" x2="216.0" y2="163.2" stroke="rgb(0,0,0)"  stroke-width="4.0"/>
<line x1="207.2" y1="160.0" x2="207.2" y2="200.0" stroke="rgb(0,0,0)"  stroke-width="4.0"/>
<line x1="207.2" y1="200.0" x2="241.9" y2="220.0" stroke="rgb(0,0,0)"  stroke-width="4.0"/>
<line x1="216.0" y1="196.8" x2="240.3" y2="210.8" stroke="rgb(0,0,0)"  stroke-width="4.0"/>
<line x1="241.9" y1="220.0" x2="276.5" y2="200.0" stroke="rgb(0,0,0)"  stroke-width="4.0"/>
<text x="339.794156" y="208.000000" fill="rgb(0,0,0)"  stroke="rgb(0,0,0)" stroke-width="1" font-size="16" >O</text>
<text x="478.358220" y="288.000000" fill="rgb(0,0,0)"  stroke="rgb(0,0,0)" stroke-width="1" font-size="16" >OH</text>
<text x="339.794156" y="288.000000" fill="rgb(0,0,0)"  stroke="rgb(0,0,0)" stroke-width="1" font-size="16" >S</text>
<text x="154.589075" y="348.000000" fill="rgb(0,0,0)"  stroke="rgb(0,0,0)" stroke-width="1" font-size="16" >HO</text>
<text x="166.589075" y="148.000000" fill="rgb(0,0,0)"  stroke="rgb(0,0,0)" stroke-width="1" font-size="16" >O</text>
<text x="97.307043" y="108.000000" fill="rgb(0,0,0)"  stroke="rgb(0,0,0)" stroke-width="1" font-size="16" >N</text>
<title>AIT - OBDepict</title>
</svg>
