<?xml version="1.0"?>
<svg xmlns="http://www.w3.org/2000/svg"
xmlns:xlink="http://www.w3.org/1999/xlink" xmlns:cml="http://www.xml-cml.org/schema" width="458.771" height="381.554" x="0" y="0" font-family="sans-serif" stroke="rgb(0,0,0)" stroke-width="4"  stroke-linecap="round">
<rect x="0%" y="0%" width="100%" height="100%" stroke-width="0" fill="rgb(255,255,255)"  />
<line x1="272.9" y1="218.2" x2="273.7" y2="216.9" stroke="rgb(0,0,0)"  stroke-width="4.0"/>
<line x1="267.0" y1="215.6" x2="268.5" y2="213.1" stroke="rgb(0,0,0)"  stroke-width="4.0"/>
<line x1="261.2" y1="213.0" x2="263.2" y2="209.4" stroke="rgb(0,0,0)"  stroke-width="4.0"/>
<line x1="255.3" y1="210.3" x2="258.0" y2="205.6" stroke="rgb(0,0,0)"  stroke-width="4.0"/>
<line x1="249.4" y1="207.7" x2="252.8" y2="201.8" stroke="rgb(0,0,0)"  stroke-width="4.0"/>
<line x1="243.6" y1="205.0" x2="247.6" y2="198.1" stroke="rgb(0,0,0)"  stroke-width="4.0"/>
<line x1="273.7" y1="266.2" x2="272.9" y2="264.9" stroke="rgb(0,0,0)"  stroke-width="4.0"/>
<line x1="268.5" y1="270.0" x2="267.0" y2="267.5" stroke="rgb(0,0,0)"  stroke-width="4.0"/>
<line x1="263.2" y1="273.8" x2="261.2" y2="270.2" stroke="rgb(0,0,0)"  stroke-width="4.0"/>
<line x1="258.0" y1="277.5" x2="255.3" y2="272.8" stroke="rgb(0,0,0)"  stroke-width="4.0"/>
<line x1="252.8" y1="281.3" x2="249.4" y2="275.4" stroke="rgb(0,0,0)"  stroke-width="4.0"/>
<line x1="247.6" y1="285.0" x2="243.6" y2="278.1" stroke="rgb(0,0,0)"  stroke-width="4.0"/>
<line x1="384.1" y1="161.6" x2="407.5" y2="148.1" stroke="rgb(0,0,0)"  stroke-width="4.0"/>
<line x1="176.3" y1="161.6" x2="152.9" y2="148.1" stroke="rgb(0,0,0)"  stroke-width="4.0"/>
<line x1="107.0" y1="161.6" x2="72.4" y2="141.6" stroke="rgb(0,0,0)"  stroke-width="4.0"/>
<line x1="107.0" y1="161.6" x2="130.4" y2="148.1" stroke="rgb(0,0,0)"  stroke-width="4.0"/>
<line x1="72.4" y1="141.6" x2="72.4" y2="114.6" stroke="rgb(0,0,0)"  stroke-width="4.0"/>
<line x1="40.0" y1="78.0" x2="52.4" y2="40.0" stroke="rgb(0,0,0)"  stroke-width="4.0"/>
<line x1="52.4" y1="40.0" x2="92.4" y2="40.0" stroke="rgb(0,0,0)"  stroke-width="4.0"/>
<line x1="92.4" y1="40.0" x2="104.7" y2="78.0" stroke="rgb(0,0,0)"  stroke-width="4.0"/>
<line x1="104.7" y1="78.0" x2="82.9" y2="93.9" stroke="rgb(0,0,0)"  stroke-width="4.0"/>
<line x1="61.8" y1="93.9" x2="40.0" y2="78.0" stroke="rgb(0,0,0)"  stroke-width="4.0"/>
<line x1="280.2" y1="221.6" x2="280.2" y2="261.6" stroke="rgb(0,0,0)"  stroke-width="4.0"/>
<line x1="280.2" y1="261.6" x2="314.8" y2="281.6" stroke="rgb(0,0,0)"  stroke-width="4.0"/>
<line x1="314.8" y1="281.6" x2="349.5" y2="261.6" stroke="rgb(0,0,0)"  stroke-width="4.0"/>
<line x1="349.5" y1="261.6" x2="349.5" y2="221.6" stroke="rgb(0,0,0)"  stroke-width="4.0"/>
<line x1="349.5" y1="221.6" x2="314.8" y2="201.6" stroke="rgb(0,0,0)"  stroke-width="4.0"/>
<line x1="314.8" y1="201.6" x2="280.2" y2="221.6" stroke="rgb(0,0,0)"  stroke-width="4.0"/>
<line x1="349.5" y1="141.6" x2="314.8" y2="161.6" stroke="rgb(0,0,0)"  stroke-width="4.0"/>
<line x1="314.8" y1="161.6" x2="314.8" y2="201.6" stroke="rgb(0,0,0)"  stroke-width="4.0"/>
<line x1="322.0" y1="167.6" x2="322.0" y2="195.6" stroke="rgb(0,0,0)"  stroke-width="4.0"/>
<line x1="349.5" y1="221.6" x2="384.1" y2="201.6" stroke="rgb(0,0,0)"  stroke-width="4.0"/>
<line x1="351.1" y1="212.3" x2="375.3" y2="198.3" stroke="rgb(0,0,0)"  stroke-width="4.0"/>
<line x1="384.1" y1="201.6" x2="384.1" y2="161.6" stroke="rgb(0,0,0)"  stroke-width="4.0"/>
<line x1="384.1" y1="161.6" x2="349.5" y2="141.6" stroke="rgb(0,0,0)"  stroke-width="4.0"/>
<line x1="375.3" y1="164.8" x2="351.1" y2="150.8" stroke="rgb(0,0,0)"  stroke-width="4.0"/>
<line x1="245.6" y1="281.6" x2="210.9" y2="261.6" stroke="rgb(0,0,0)"  stroke-width="4.0"/>
<line x1="236.8" y1="284.8" x2="212.5" y2="270.8" stroke="rgb(0,0,0)"  stroke-width="4.0"/>
<line x1="210.9" y1="261.6" x2="176.3" y2="281.6" stroke="rgb(0,0,0)"  stroke-width="4.0"/>
<line x1="176.3" y1="281.6" x2="176.3" y2="321.6" stroke="rgb(0,0,0)"  stroke-width="4.0"/>
<line x1="183.5" y1="287.6" x2="183.5" y2="315.6" stroke="rgb(0,0,0)"  stroke-width="4.0"/>
<line x1="176.3" y1="321.6" x2="210.9" y2="341.6" stroke="rgb(0,0,0)"  stroke-width="4.0"/>
<line x1="210.9" y1="341.6" x2="245.6" y2="321.6" stroke="rgb(0,0,0)"  stroke-width="4.0"/>
<line x1="212.5" y1="332.3" x2="236.8" y2="318.3" stroke="rgb(0,0,0)"  stroke-width="4.0"/>
<line x1="245.6" y1="321.6" x2="245.6" y2="281.6" stroke="rgb(0,0,0)"  stroke-width="4.0"/>
<line x1="245.6" y1="201.6" x2="210.9" y2="221.6" stroke="rgb(0,0,0)"  stroke-width="4.0"/>
<line x1="236.8" y1="198.3" x2="212.5" y2="212.3" stroke="rgb(0,0,0)"  stroke-width="4.0"/>
<line x1="210.9" y1="221.6" x2="176.3" y2="201.6" stroke="rgb(0,0,0)"  stroke-width="4.0"/>
<line x1="176.3" y1="201.6" x2="176.3" y2="161.6" stroke="rgb(0,0,0)"  stroke-width="4.0"/>
<line x1="183.5" y1="195.6" x2="183.5" y2="167.6" stroke="rgb(0,0,0)"  stroke-width="4.0"/>
<line x1="176.3" y1="161.6" x2="210.9" y2="141.6" stroke="rgb(0,0,0)"  stroke-width="4.0"/>
<line x1="210.9" y1="141.6" x2="245.6" y2="161.6" stroke="rgb(0,0,0)"  stroke-width="4.0"/>
<line x1="212.5" y1="150.8" x2="236.8" y2="164.8" stroke="rgb(0,0,0)"  stroke-width="4.0"/>
<line x1="245.6" y1="161.6" x2="245.6" y2="201.6" stroke="rgb(0,0,0)"  stroke-width="4.0"/>
<text x="412.770841" y="149.553671" fill="rgb(0,0,0)"  stroke="rgb(0,0,0)" stroke-width="1" font-size="16" >OH</text>
<text x="135.642712" y="149.553671" fill="rgb(0,0,0)"  stroke="rgb(0,0,0)" stroke-width="1" font-size="16" >O</text>
<text x="66.360680" y="109.553671" fill="rgb(0,0,0)"  stroke="rgb(0,0,0)" stroke-width="1" font-size="16" >N</text>
<title>C3D - OBDepict</title>
</svg>
