<?xml version="1.0"?>
<svg xmlns="http://www.w3.org/2000/svg"
xmlns:xlink="http://www.w3.org/1999/xlink" xmlns:cml="http://www.xml-cml.org/schema" width="564.974" height="280" x="0" y="0" font-family="sans-serif" stroke="rgb(0,0,0)" stroke-width="4"  stroke-linecap="round">
<rect x="0%" y="0%" width="100%" height="100%" stroke-width="0" fill="rgb(255,255,255)"  />
<line x1="219.7" y1="115.3" x2="220.5" y2="116.7" stroke="rgb(0,0,0)"  stroke-width="4.0"/>
<line x1="225.0" y1="111.6" x2="226.4" y2="114.0" stroke="rgb(0,0,0)"  stroke-width="4.0"/>
<line x1="230.2" y1="107.8" x2="232.3" y2="111.4" stroke="rgb(0,0,0)"  stroke-width="4.0"/>
<line x1="235.4" y1="104.0" x2="238.1" y2="108.8" stroke="rgb(0,0,0)"  stroke-width="4.0"/>
<line x1="240.6" y1="100.3" x2="244.0" y2="106.1" stroke="rgb(0,0,0)"  stroke-width="4.0"/>
<line x1="245.8" y1="96.5" x2="249.8" y2="103.5" stroke="rgb(0,0,0)"  stroke-width="4.0"/>
<line x1="220.5" y1="163.3" x2="219.7" y2="164.7" stroke="rgb(0,0,0)"  stroke-width="4.0"/>
<line x1="226.4" y1="166.0" x2="225.0" y2="168.4" stroke="rgb(0,0,0)"  stroke-width="4.0"/>
<line x1="232.3" y1="168.6" x2="230.2" y2="172.2" stroke="rgb(0,0,0)"  stroke-width="4.0"/>
<line x1="238.1" y1="171.2" x2="235.4" y2="176.0" stroke="rgb(0,0,0)"  stroke-width="4.0"/>
<line x1="244.0" y1="173.9" x2="240.6" y2="179.7" stroke="rgb(0,0,0)"  stroke-width="4.0"/>
<line x1="249.8" y1="176.5" x2="245.8" y2="183.5" stroke="rgb(0,0,0)"  stroke-width="4.0"/>
<line x1="74.6" y1="120.0" x2="51.3" y2="106.5" stroke="rgb(0,0,0)"  stroke-width="4.0"/>
<line x1="109.3" y1="100.0" x2="109.3" y2="73.0" stroke="rgb(0,0,0)"  stroke-width="4.0"/>
<polygon points="178.564065 100.000000 174.564065 60.000000 182.564065 60.000000 " stroke-width="4.000000" fill="rgb(0,0,0)"  stroke="rgb(0,0,0)" />
<line x1="317.1" y1="60.0" x2="340.5" y2="46.5" stroke="rgb(0,0,0)"  stroke-width="4.0"/>
<line x1="317.1" y1="220.0" x2="340.5" y2="233.5" stroke="rgb(0,0,0)"  stroke-width="4.0"/>
<line x1="363.0" y1="233.5" x2="386.4" y2="220.0" stroke="rgb(0,0,0)"  stroke-width="4.0"/>
<line x1="386.4" y1="220.0" x2="421.1" y2="240.0" stroke="rgb(0,0,0)"  stroke-width="4.0"/>
<line x1="421.1" y1="240.0" x2="444.4" y2="226.5" stroke="rgb(0,0,0)"  stroke-width="4.0"/>
<line x1="213.2" y1="120.0" x2="213.2" y2="160.0" stroke="rgb(0,0,0)"  stroke-width="4.0"/>
<line x1="213.2" y1="160.0" x2="189.8" y2="173.5" stroke="rgb(0,0,0)"  stroke-width="4.0"/>
<line x1="167.3" y1="173.5" x2="143.9" y2="160.0" stroke="rgb(0,0,0)"  stroke-width="4.0"/>
<line x1="143.9" y1="160.0" x2="143.9" y2="120.0" stroke="rgb(0,0,0)"  stroke-width="4.0"/>
<line x1="143.9" y1="120.0" x2="178.6" y2="100.0" stroke="rgb(0,0,0)"  stroke-width="4.0"/>
<line x1="178.6" y1="100.0" x2="213.2" y2="120.0" stroke="rgb(0,0,0)"  stroke-width="4.0"/>
<line x1="109.3" y1="180.0" x2="143.9" y2="160.0" stroke="rgb(0,0,0)"  stroke-width="4.0"/>
<line x1="110.9" y1="170.8" x2="135.1" y2="156.8" stroke="rgb(0,0,0)"  stroke-width="4.0"/>
<line x1="143.9" y1="120.0" x2="109.3" y2="100.0" stroke="rgb(0,0,0)"  stroke-width="4.0"/>
<line x1="135.1" y1="123.2" x2="110.9" y2="109.2" stroke="rgb(0,0,0)"  stroke-width="4.0"/>
<line x1="109.3" y1="100.0" x2="74.6" y2="120.0" stroke="rgb(0,0,0)"  stroke-width="4.0"/>
<line x1="74.6" y1="120.0" x2="74.6" y2="160.0" stroke="rgb(0,0,0)"  stroke-width="4.0"/>
<line x1="81.8" y1="126.0" x2="81.8" y2="154.0" stroke="rgb(0,0,0)"  stroke-width="4.0"/>
<line x1="74.6" y1="160.0" x2="109.3" y2="180.0" stroke="rgb(0,0,0)"  stroke-width="4.0"/>
<line x1="247.8" y1="100.0" x2="247.8" y2="60.0" stroke="rgb(0,0,0)"  stroke-width="4.0"/>
<line x1="255.0" y1="94.0" x2="255.0" y2="66.0" stroke="rgb(0,0,0)"  stroke-width="4.0"/>
<line x1="247.8" y1="60.0" x2="282.5" y2="40.0" stroke="rgb(0,0,0)"  stroke-width="4.0"/>
<line x1="282.5" y1="40.0" x2="317.1" y2="60.0" stroke="rgb(0,0,0)"  stroke-width="4.0"/>
<line x1="284.1" y1="49.2" x2="308.3" y2="63.2" stroke="rgb(0,0,0)"  stroke-width="4.0"/>
<line x1="317.1" y1="60.0" x2="317.1" y2="100.0" stroke="rgb(0,0,0)"  stroke-width="4.0"/>
<line x1="317.1" y1="100.0" x2="282.5" y2="120.0" stroke="rgb(0,0,0)"  stroke-width="4.0"/>
<line x1="308.3" y1="96.8" x2="284.1" y2="110.8" stroke="rgb(0,0,0)"  stroke-width="4.0"/>
<line x1="282.5" y1="120.0" x2="247.8" y2="100.0" stroke="rgb(0,0,0)"  stroke-width="4.0"/>
<line x1="247.8" y1="180.0" x2="282.5" y2="160.0" stroke="rgb(0,0,0)"  stroke-width="4.0"/>
<line x1="256.6" y1="183.2" x2="280.9" y2="169.2" stroke="rgb(0,0,0)"  stroke-width="4.0"/>
<line x1="282.5" y1="160.0" x2="317.1" y2="180.0" stroke="rgb(0,0,0)"  stroke-width="4.0"/>
<line x1="317.1" y1="180.0" x2="317.1" y2="220.0" stroke="rgb(0,0,0)"  stroke-width="4.0"/>
<line x1="309.9" y1="186.0" x2="309.9" y2="214.0" stroke="rgb(0,0,0)"  stroke-width="4.0"/>
<line x1="317.1" y1="220.0" x2="282.5" y2="240.0" stroke="rgb(0,0,0)"  stroke-width="4.0"/>
<line x1="282.5" y1="240.0" x2="247.8" y2="220.0" stroke="rgb(0,0,0)"  stroke-width="4.0"/>
<line x1="280.9" y1="230.8" x2="256.6" y2="216.8" stroke="rgb(0,0,0)"  stroke-width="4.0"/>
<line x1="247.8" y1="220.0" x2="247.8" y2="180.0" stroke="rgb(0,0,0)"  stroke-width="4.0"/>
<line x1="455.7" y1="207.0" x2="455.7" y2="180.0" stroke="rgb(0,0,0)"  stroke-width="4.0"/>
<line x1="455.7" y1="180.0" x2="490.3" y2="160.0" stroke="rgb(0,0,0)"  stroke-width="4.0"/>
<line x1="490.3" y1="160.0" x2="525.0" y2="180.0" stroke="rgb(0,0,0)"  stroke-width="4.0"/>
<line x1="525.0" y1="180.0" x2="525.0" y2="220.0" stroke="rgb(0,0,0)"  stroke-width="4.0"/>
<line x1="525.0" y1="220.0" x2="490.3" y2="240.0" stroke="rgb(0,0,0)"  stroke-width="4.0"/>
<line x1="490.3" y1="240.0" x2="467.0" y2="226.5" stroke="rgb(0,0,0)"  stroke-width="4.0"/>
<text x="172.564065" y="188.000000" fill="rgb(0,0,0)"  stroke="rgb(0,0,0)" stroke-width="1" font-size="16" >O</text>
<text x="22.000000" y="108.000000" fill="rgb(0,0,0)"  stroke="rgb(0,0,0)" stroke-width="1" font-size="16" >HO</text>
<text x="103.282032" y="68.000000" fill="rgb(0,0,0)"  stroke="rgb(0,0,0)" stroke-width="1" font-size="16" >F</text>
<text x="345.769145" y="48.000000" fill="rgb(0,0,0)"  stroke="rgb(0,0,0)" stroke-width="1" font-size="16" >OH</text>
<text x="345.769145" y="248.000000" fill="rgb(0,0,0)"  stroke="rgb(0,0,0)" stroke-width="1" font-size="16" >O</text>
<text x="449.692194" y="228.000000" fill="rgb(0,0,0)"  stroke="rgb(0,0,0)" stroke-width="1" font-size="16" >N</text>
<title>CM3 - OBDepict</title>
</svg>
