<?xml version="1.0"?>
<svg xmlns="http://www.w3.org/2000/svg"
xmlns:xlink="http://www.w3.org/1999/xlink" xmlns:cml="http://www.xml-cml.org/schema" width="218.564" height="420" x="0" y="0" font-family="sans-serif" stroke="rgb(0,0,0)" stroke-width="4"  stroke-linecap="round">
<rect x="0%" y="0%" width="100%" height="100%" stroke-width="0" fill="rgb(255,255,255)"  />
<line x1="178.6" y1="260.0" x2="178.6" y2="220.0" stroke="rgb(0,0,0)"  stroke-width="4.0"/>
<line x1="178.6" y1="220.0" x2="143.9" y2="200.0" stroke="rgb(0,0,0)"  stroke-width="4.0"/>
<line x1="143.9" y1="200.0" x2="143.9" y2="160.0" stroke="rgb(0,0,0)"  stroke-width="4.0"/>
<line x1="145.4" y1="202.6" x2="110.8" y2="222.6" stroke="rgb(0,0,0)"  stroke-width="4.0"/>
<line x1="142.4" y1="197.4" x2="107.8" y2="217.4" stroke="rgb(0,0,0)"  stroke-width="4.0"/>
<line x1="143.9" y1="80.0" x2="143.9" y2="53.0" stroke="rgb(0,0,0)"  stroke-width="4.0"/>
<line x1="109.3" y1="220.0" x2="109.3" y2="260.0" stroke="rgb(0,0,0)"  stroke-width="4.0"/>
<line x1="109.3" y1="220.0" x2="74.6" y2="200.0" stroke="rgb(0,0,0)"  stroke-width="4.0"/>
<line x1="109.3" y1="340.0" x2="109.3" y2="367.0" stroke="rgb(0,0,0)"  stroke-width="4.0"/>
<line x1="74.6" y1="200.0" x2="40.0" y2="220.0" stroke="rgb(0,0,0)"  stroke-width="4.0"/>
<line x1="143.9" y1="160.0" x2="109.3" y2="140.0" stroke="rgb(0,0,0)"  stroke-width="4.0"/>
<line x1="109.3" y1="140.0" x2="109.3" y2="100.0" stroke="rgb(0,0,0)"  stroke-width="4.0"/>
<line x1="116.5" y1="134.0" x2="116.5" y2="106.0" stroke="rgb(0,0,0)"  stroke-width="4.0"/>
<line x1="109.3" y1="100.0" x2="143.9" y2="80.0" stroke="rgb(0,0,0)"  stroke-width="4.0"/>
<line x1="143.9" y1="80.0" x2="178.6" y2="100.0" stroke="rgb(0,0,0)"  stroke-width="4.0"/>
<line x1="145.5" y1="89.2" x2="169.8" y2="103.2" stroke="rgb(0,0,0)"  stroke-width="4.0"/>
<line x1="178.6" y1="100.0" x2="178.6" y2="140.0" stroke="rgb(0,0,0)"  stroke-width="4.0"/>
<line x1="178.6" y1="140.0" x2="143.9" y2="160.0" stroke="rgb(0,0,0)"  stroke-width="4.0"/>
<line x1="169.8" y1="136.8" x2="145.5" y2="150.8" stroke="rgb(0,0,0)"  stroke-width="4.0"/>
<line x1="109.3" y1="260.0" x2="74.6" y2="280.0" stroke="rgb(0,0,0)"  stroke-width="4.0"/>
<line x1="74.6" y1="280.0" x2="74.6" y2="320.0" stroke="rgb(0,0,0)"  stroke-width="4.0"/>
<line x1="81.8" y1="286.0" x2="81.8" y2="314.0" stroke="rgb(0,0,0)"  stroke-width="4.0"/>
<line x1="74.6" y1="320.0" x2="109.3" y2="340.0" stroke="rgb(0,0,0)"  stroke-width="4.0"/>
<line x1="109.3" y1="340.0" x2="143.9" y2="320.0" stroke="rgb(0,0,0)"  stroke-width="4.0"/>
<line x1="110.9" y1="330.8" x2="135.1" y2="316.8" stroke="rgb(0,0,0)"  stroke-width="4.0"/>
<line x1="143.9" y1="320.0" x2="143.9" y2="280.0" stroke="rgb(0,0,0)"  stroke-width="4.0"/>
<line x1="143.9" y1="280.0" x2="109.3" y2="260.0" stroke="rgb(0,0,0)"  stroke-width="4.0"/>
<line x1="135.1" y1="283.2" x2="110.9" y2="269.2" stroke="rgb(0,0,0)"  stroke-width="4.0"/>
<text x="137.923048" y="48.000000" fill="rgb(0,0,0)"  stroke="rgb(0,0,0)" stroke-width="1" font-size="16" >OH</text>
<text x="103.282032" y="388.000000" fill="rgb(0,0,0)"  stroke="rgb(0,0,0)" stroke-width="1" font-size="16" >OH</text>
<title>DES - OBDepict</title>
</svg>
