<?xml version="1.0"?>
<svg xmlns="http://www.w3.org/2000/svg"
xmlns:xlink="http://www.w3.org/1999/xlink" xmlns:cml="http://www.xml-cml.org/schema" width="309.543" height="361.686" x="0" y="0" font-family="sans-serif" stroke="rgb(0,0,0)" stroke-width="4"  stroke-linecap="round">
<rect x="0%" y="0%" width="100%" height="100%" stroke-width="0" fill="rgb(255,255,255)"  />
<line x1="54.0" y1="155.1" x2="66.0" y2="192.0" stroke="rgb(0,0,0)"  stroke-width="4.0"/>
<line x1="66.0" y1="192.0" x2="40.0" y2="220.9" stroke="rgb(0,0,0)"  stroke-width="4.0"/>
<line x1="42.9" y1="220.0" x2="54.9" y2="256.9" stroke="rgb(0,0,0)"  stroke-width="4.0"/>
<line x1="37.1" y1="221.8" x2="49.1" y2="258.7" stroke="rgb(0,0,0)"  stroke-width="4.0"/>
<line x1="52.0" y1="257.8" x2="90.6" y2="253.7" stroke="rgb(0,0,0)"  stroke-width="4.0"/>
<polygon points="160.759872 178.757759 148.620108 215.856809 141.311802 212.602788 " stroke-width="4.000000" fill="rgb(0,0,0)"  stroke="rgb(0,0,0)" />
<polygon points="192.361539 107.832719 165.614061 77.823180 172.086197 73.120898 " stroke-width="4.000000" fill="rgb(0,0,0)"  stroke="rgb(0,0,0)" />
<polygon points="208.155457 72.360680 189.166744 53.030165 195.638880 48.327883 " stroke-width="4.000000" fill="rgb(0,0,0)"  stroke="rgb(0,0,0)" />
<polygon points="215.170293 139.226275 267.191496 96.486386 271.893778 102.958522 " stroke-width="4.000000" fill="rgb(0,0,0)"  stroke="rgb(0,0,0)" />
<line x1="204.6" y1="180.5" x2="203.3" y2="181.5" stroke="rgb(0,0,0)"  stroke-width="4.0"/>
<line x1="208.8" y1="185.2" x2="206.4" y2="186.9" stroke="rgb(0,0,0)"  stroke-width="4.0"/>
<line x1="212.9" y1="189.8" x2="209.6" y2="192.3" stroke="rgb(0,0,0)"  stroke-width="4.0"/>
<line x1="217.1" y1="194.5" x2="212.7" y2="197.7" stroke="rgb(0,0,0)"  stroke-width="4.0"/>
<line x1="221.3" y1="199.1" x2="215.8" y2="203.1" stroke="rgb(0,0,0)"  stroke-width="4.0"/>
<line x1="225.4" y1="203.8" x2="219.0" y2="208.5" stroke="rgb(0,0,0)"  stroke-width="4.0"/>
<line x1="113.4" y1="285.1" x2="102.4" y2="309.8" stroke="rgb(0,0,0)"  stroke-width="4.0"/>
<line x1="208.2" y1="72.4" x2="192.4" y2="107.8" stroke="rgb(0,0,0)"  stroke-width="4.0"/>
<line x1="192.4" y1="107.8" x2="215.2" y2="139.2" stroke="rgb(0,0,0)"  stroke-width="4.0"/>
<line x1="215.2" y1="139.2" x2="269.5" y2="99.7" stroke="rgb(0,0,0)"  stroke-width="4.0"/>
<line x1="269.5" y1="99.7" x2="246.7" y2="68.3" stroke="rgb(0,0,0)"  stroke-width="4.0"/>
<line x1="246.7" y1="68.3" x2="208.2" y2="72.4" stroke="rgb(0,0,0)"  stroke-width="4.0"/>
<line x1="160.8" y1="178.8" x2="138.0" y2="147.4" stroke="rgb(0,0,0)"  stroke-width="4.0"/>
<line x1="138.0" y1="147.4" x2="153.7" y2="111.9" stroke="rgb(0,0,0)"  stroke-width="4.0"/>
<line x1="153.7" y1="111.9" x2="192.4" y2="107.8" stroke="rgb(0,0,0)"  stroke-width="4.0"/>
<line x1="215.2" y1="139.2" x2="199.4" y2="174.7" stroke="rgb(0,0,0)"  stroke-width="4.0"/>
<line x1="199.4" y1="174.7" x2="160.8" y2="178.8" stroke="rgb(0,0,0)"  stroke-width="4.0"/>
<line x1="145.0" y1="214.2" x2="160.8" y2="178.8" stroke="rgb(0,0,0)"  stroke-width="4.0"/>
<line x1="199.4" y1="174.7" x2="222.2" y2="206.1" stroke="rgb(0,0,0)"  stroke-width="4.0"/>
<line x1="222.2" y1="206.1" x2="206.4" y2="241.6" stroke="rgb(0,0,0)"  stroke-width="4.0"/>
<line x1="206.4" y1="241.6" x2="167.8" y2="245.6" stroke="rgb(0,0,0)"  stroke-width="4.0"/>
<line x1="167.8" y1="245.6" x2="145.0" y2="214.2" stroke="rgb(0,0,0)"  stroke-width="4.0"/>
<line x1="170.1" y1="236.6" x2="154.3" y2="214.9" stroke="rgb(0,0,0)"  stroke-width="4.0"/>
<line x1="113.4" y1="285.1" x2="90.6" y2="253.7" stroke="rgb(0,0,0)"  stroke-width="4.0"/>
<line x1="90.6" y1="253.7" x2="106.4" y2="218.3" stroke="rgb(0,0,0)"  stroke-width="4.0"/>
<line x1="99.6" y1="251.2" x2="110.5" y2="226.7" stroke="rgb(0,0,0)"  stroke-width="4.0"/>
<line x1="106.4" y1="218.3" x2="145.0" y2="214.2" stroke="rgb(0,0,0)"  stroke-width="4.0"/>
<line x1="167.8" y1="245.6" x2="152.0" y2="281.1" stroke="rgb(0,0,0)"  stroke-width="4.0"/>
<line x1="152.0" y1="281.1" x2="113.4" y2="285.1" stroke="rgb(0,0,0)"  stroke-width="4.0"/>
<line x1="145.3" y1="274.6" x2="118.6" y2="277.4" stroke="rgb(0,0,0)"  stroke-width="4.0"/>
<text x="166.644046" y="48.000000" fill="rgb(0,0,0)"  stroke="rgb(0,0,0)" stroke-width="1" font-size="16" >HO</text>
<text x="79.141513" y="329.685708" fill="rgb(0,0,0)"  stroke="rgb(0,0,0)" stroke-width="1" font-size="16" >HO</text>
<title>DRQ - OBDepict</title>
</svg>
