<?xml version="1.0"?>
<svg xmlns="http://www.w3.org/2000/svg"
xmlns:xlink="http://www.w3.org/1999/xlink" xmlns:cml="http://www.xml-cml.org/schema" width="564.974" height="280" x="0" y="0" font-family="sans-serif" stroke="rgb(0,0,0)" stroke-width="4"  stroke-linecap="round">
<rect x="0%" y="0%" width="100%" height="100%" stroke-width="0" fill="rgb(255,255,255)"  />
<line x1="345.2" y1="164.7" x2="344.4" y2="163.3" stroke="rgb(0,0,0)"  stroke-width="4.0"/>
<line x1="340.0" y1="168.4" x2="338.6" y2="166.0" stroke="rgb(0,0,0)"  stroke-width="4.0"/>
<line x1="334.8" y1="172.2" x2="332.7" y2="168.6" stroke="rgb(0,0,0)"  stroke-width="4.0"/>
<line x1="329.6" y1="176.0" x2="326.9" y2="171.2" stroke="rgb(0,0,0)"  stroke-width="4.0"/>
<line x1="324.4" y1="179.7" x2="321.0" y2="173.9" stroke="rgb(0,0,0)"  stroke-width="4.0"/>
<line x1="319.1" y1="183.5" x2="315.1" y2="176.5" stroke="rgb(0,0,0)"  stroke-width="4.0"/>
<line x1="344.4" y1="116.7" x2="345.2" y2="115.3" stroke="rgb(0,0,0)"  stroke-width="4.0"/>
<line x1="338.6" y1="114.0" x2="340.0" y2="111.6" stroke="rgb(0,0,0)"  stroke-width="4.0"/>
<line x1="332.7" y1="111.4" x2="334.8" y2="107.8" stroke="rgb(0,0,0)"  stroke-width="4.0"/>
<line x1="326.9" y1="108.8" x2="329.6" y2="104.0" stroke="rgb(0,0,0)"  stroke-width="4.0"/>
<line x1="321.0" y1="106.1" x2="324.4" y2="100.3" stroke="rgb(0,0,0)"  stroke-width="4.0"/>
<line x1="315.1" y1="103.5" x2="319.1" y2="96.5" stroke="rgb(0,0,0)"  stroke-width="4.0"/>
<line x1="490.3" y1="160.0" x2="513.7" y2="173.5" stroke="rgb(0,0,0)"  stroke-width="4.0"/>
<line x1="247.8" y1="220.0" x2="224.5" y2="233.5" stroke="rgb(0,0,0)"  stroke-width="4.0"/>
<line x1="247.8" y1="60.0" x2="224.5" y2="46.5" stroke="rgb(0,0,0)"  stroke-width="4.0"/>
<line x1="201.9" y1="46.5" x2="178.6" y2="60.0" stroke="rgb(0,0,0)"  stroke-width="4.0"/>
<line x1="178.6" y1="60.0" x2="143.9" y2="40.0" stroke="rgb(0,0,0)"  stroke-width="4.0"/>
<line x1="143.9" y1="40.0" x2="120.5" y2="53.5" stroke="rgb(0,0,0)"  stroke-width="4.0"/>
<line x1="351.8" y1="160.0" x2="351.8" y2="120.0" stroke="rgb(0,0,0)"  stroke-width="4.0"/>
<line x1="351.8" y1="120.0" x2="375.2" y2="106.5" stroke="rgb(0,0,0)"  stroke-width="4.0"/>
<line x1="397.7" y1="106.5" x2="421.1" y2="120.0" stroke="rgb(0,0,0)"  stroke-width="4.0"/>
<line x1="421.1" y1="120.0" x2="421.1" y2="160.0" stroke="rgb(0,0,0)"  stroke-width="4.0"/>
<line x1="421.1" y1="160.0" x2="397.7" y2="173.5" stroke="rgb(0,0,0)"  stroke-width="4.0"/>
<line x1="375.2" y1="173.5" x2="351.8" y2="160.0" stroke="rgb(0,0,0)"  stroke-width="4.0"/>
<line x1="455.7" y1="100.0" x2="421.1" y2="120.0" stroke="rgb(0,0,0)"  stroke-width="4.0"/>
<line x1="454.1" y1="109.2" x2="429.8" y2="123.2" stroke="rgb(0,0,0)"  stroke-width="4.0"/>
<line x1="421.1" y1="160.0" x2="455.7" y2="180.0" stroke="rgb(0,0,0)"  stroke-width="4.0"/>
<line x1="429.8" y1="156.8" x2="454.1" y2="170.8" stroke="rgb(0,0,0)"  stroke-width="4.0"/>
<line x1="455.7" y1="180.0" x2="490.3" y2="160.0" stroke="rgb(0,0,0)"  stroke-width="4.0"/>
<line x1="490.3" y1="160.0" x2="490.3" y2="120.0" stroke="rgb(0,0,0)"  stroke-width="4.0"/>
<line x1="483.1" y1="154.0" x2="483.1" y2="126.0" stroke="rgb(0,0,0)"  stroke-width="4.0"/>
<line x1="490.3" y1="120.0" x2="455.7" y2="100.0" stroke="rgb(0,0,0)"  stroke-width="4.0"/>
<line x1="317.1" y1="180.0" x2="317.1" y2="220.0" stroke="rgb(0,0,0)"  stroke-width="4.0"/>
<line x1="309.9" y1="186.0" x2="309.9" y2="214.0" stroke="rgb(0,0,0)"  stroke-width="4.0"/>
<line x1="317.1" y1="220.0" x2="282.5" y2="240.0" stroke="rgb(0,0,0)"  stroke-width="4.0"/>
<line x1="282.5" y1="240.0" x2="247.8" y2="220.0" stroke="rgb(0,0,0)"  stroke-width="4.0"/>
<line x1="280.9" y1="230.8" x2="256.6" y2="216.8" stroke="rgb(0,0,0)"  stroke-width="4.0"/>
<line x1="247.8" y1="220.0" x2="247.8" y2="180.0" stroke="rgb(0,0,0)"  stroke-width="4.0"/>
<line x1="247.8" y1="180.0" x2="282.5" y2="160.0" stroke="rgb(0,0,0)"  stroke-width="4.0"/>
<line x1="256.6" y1="183.2" x2="280.9" y2="169.2" stroke="rgb(0,0,0)"  stroke-width="4.0"/>
<line x1="282.5" y1="160.0" x2="317.1" y2="180.0" stroke="rgb(0,0,0)"  stroke-width="4.0"/>
<line x1="317.1" y1="100.0" x2="282.5" y2="120.0" stroke="rgb(0,0,0)"  stroke-width="4.0"/>
<line x1="308.3" y1="96.8" x2="284.1" y2="110.8" stroke="rgb(0,0,0)"  stroke-width="4.0"/>
<line x1="282.5" y1="120.0" x2="247.8" y2="100.0" stroke="rgb(0,0,0)"  stroke-width="4.0"/>
<line x1="247.8" y1="100.0" x2="247.8" y2="60.0" stroke="rgb(0,0,0)"  stroke-width="4.0"/>
<line x1="255.0" y1="94.0" x2="255.0" y2="66.0" stroke="rgb(0,0,0)"  stroke-width="4.0"/>
<line x1="247.8" y1="60.0" x2="282.5" y2="40.0" stroke="rgb(0,0,0)"  stroke-width="4.0"/>
<line x1="282.5" y1="40.0" x2="317.1" y2="60.0" stroke="rgb(0,0,0)"  stroke-width="4.0"/>
<line x1="284.1" y1="49.2" x2="308.3" y2="63.2" stroke="rgb(0,0,0)"  stroke-width="4.0"/>
<line x1="317.1" y1="60.0" x2="317.1" y2="100.0" stroke="rgb(0,0,0)"  stroke-width="4.0"/>
<line x1="109.3" y1="73.0" x2="109.3" y2="100.0" stroke="rgb(0,0,0)"  stroke-width="4.0"/>
<line x1="109.3" y1="100.0" x2="74.6" y2="120.0" stroke="rgb(0,0,0)"  stroke-width="4.0"/>
<line x1="74.6" y1="120.0" x2="40.0" y2="100.0" stroke="rgb(0,0,0)"  stroke-width="4.0"/>
<line x1="40.0" y1="100.0" x2="40.0" y2="60.0" stroke="rgb(0,0,0)"  stroke-width="4.0"/>
<line x1="40.0" y1="60.0" x2="74.6" y2="40.0" stroke="rgb(0,0,0)"  stroke-width="4.0"/>
<line x1="74.6" y1="40.0" x2="98.0" y2="53.5" stroke="rgb(0,0,0)"  stroke-width="4.0"/>
<text x="380.410162" y="108.000000" fill="rgb(0,0,0)"  stroke="rgb(0,0,0)" stroke-width="1" font-size="16" >O</text>
<text x="518.974226" y="188.000000" fill="rgb(0,0,0)"  stroke="rgb(0,0,0)" stroke-width="1" font-size="16" >OH</text>
<text x="380.410162" y="188.000000" fill="rgb(0,0,0)"  stroke="rgb(0,0,0)" stroke-width="1" font-size="16" >S</text>
<text x="195.205081" y="248.000000" fill="rgb(0,0,0)"  stroke="rgb(0,0,0)" stroke-width="1" font-size="16" >HO</text>
<text x="207.205081" y="48.000000" fill="rgb(0,0,0)"  stroke="rgb(0,0,0)" stroke-width="1" font-size="16" >O</text>
<text x="103.282032" y="68.000000" fill="rgb(0,0,0)"  stroke="rgb(0,0,0)" stroke-width="1" font-size="16" >N</text>
<title>E4D - OBDepict</title>
</svg>
