<?xml version="1.0"?>
<svg xmlns="http://www.w3.org/2000/svg"
xmlns:xlink="http://www.w3.org/1999/xlink" xmlns:cml="http://www.xml-cml.org/schema" width="349.691" height="256.424" x="0" y="0" font-family="sans-serif" stroke="rgb(0,0,0)" stroke-width="4"  stroke-linecap="round">
<rect x="0%" y="0%" width="100%" height="100%" stroke-width="0" fill="rgb(255,255,255)"  />
<line x1="168.3" y1="115.0" x2="169.1" y2="113.6" stroke="rgb(0,0,0)"  stroke-width="4.0"/>
<line x1="162.7" y1="112.4" x2="164.1" y2="110.0" stroke="rgb(0,0,0)"  stroke-width="4.0"/>
<line x1="157.0" y1="109.9" x2="159.0" y2="106.3" stroke="rgb(0,0,0)"  stroke-width="4.0"/>
<line x1="151.3" y1="107.4" x2="154.0" y2="102.6" stroke="rgb(0,0,0)"  stroke-width="4.0"/>
<line x1="145.6" y1="104.8" x2="148.9" y2="99.0" stroke="rgb(0,0,0)"  stroke-width="4.0"/>
<line x1="139.9" y1="102.3" x2="143.9" y2="95.3" stroke="rgb(0,0,0)"  stroke-width="4.0"/>
<line x1="74.8" y1="60.1" x2="51.3" y2="46.5" stroke="rgb(0,0,0)"  stroke-width="4.0"/>
<polygon points="209.022299 98.786893 205.011231 60.030472 213.011231 60.028187 " stroke-width="4.000000" fill="rgb(0,0,0)"  stroke="rgb(0,0,0)" />
<line x1="256.0" y1="117.4" x2="256.0" y2="119.0" stroke="rgb(0,0,0)"  stroke-width="4.0"/>
<line x1="266.7" y1="116.7" x2="266.7" y2="119.6" stroke="rgb(0,0,0)"  stroke-width="4.0"/>
<line x1="277.5" y1="116.1" x2="277.5" y2="120.2" stroke="rgb(0,0,0)"  stroke-width="4.0"/>
<line x1="288.2" y1="115.4" x2="288.2" y2="120.9" stroke="rgb(0,0,0)"  stroke-width="4.0"/>
<line x1="298.9" y1="114.8" x2="298.9" y2="121.5" stroke="rgb(0,0,0)"  stroke-width="4.0"/>
<line x1="309.7" y1="114.1" x2="309.7" y2="122.1" stroke="rgb(0,0,0)"  stroke-width="4.0"/>
<line x1="277.0" y1="181.6" x2="275.4" y2="181.6" stroke="rgb(0,0,0)"  stroke-width="4.0"/>
<line x1="277.6" y1="185.9" x2="274.7" y2="185.9" stroke="rgb(0,0,0)"  stroke-width="4.0"/>
<line x1="278.3" y1="190.3" x2="274.1" y2="190.3" stroke="rgb(0,0,0)"  stroke-width="4.0"/>
<line x1="278.9" y1="194.6" x2="273.5" y2="194.6" stroke="rgb(0,0,0)"  stroke-width="4.0"/>
<line x1="279.6" y1="198.9" x2="272.8" y2="198.9" stroke="rgb(0,0,0)"  stroke-width="4.0"/>
<line x1="280.2" y1="203.2" x2="272.2" y2="203.2" stroke="rgb(0,0,0)"  stroke-width="4.0"/>
<line x1="243.4" y1="164.9" x2="241.8" y2="164.9" stroke="rgb(0,0,0)"  stroke-width="4.0"/>
<line x1="244.0" y1="171.3" x2="241.2" y2="171.4" stroke="rgb(0,0,0)"  stroke-width="4.0"/>
<line x1="244.7" y1="177.8" x2="240.5" y2="177.8" stroke="rgb(0,0,0)"  stroke-width="4.0"/>
<line x1="245.3" y1="184.2" x2="239.9" y2="184.2" stroke="rgb(0,0,0)"  stroke-width="4.0"/>
<line x1="246.0" y1="190.6" x2="239.3" y2="190.6" stroke="rgb(0,0,0)"  stroke-width="4.0"/>
<line x1="246.6" y1="197.1" x2="238.6" y2="197.1" stroke="rgb(0,0,0)"  stroke-width="4.0"/>
<line x1="169.2" y1="161.5" x2="168.4" y2="160.1" stroke="rgb(0,0,0)"  stroke-width="4.0"/>
<line x1="164.1" y1="165.1" x2="162.7" y2="162.6" stroke="rgb(0,0,0)"  stroke-width="4.0"/>
<line x1="159.1" y1="168.8" x2="157.0" y2="165.2" stroke="rgb(0,0,0)"  stroke-width="4.0"/>
<line x1="154.0" y1="172.4" x2="151.3" y2="167.7" stroke="rgb(0,0,0)"  stroke-width="4.0"/>
<line x1="149.0" y1="176.1" x2="145.6" y2="170.3" stroke="rgb(0,0,0)"  stroke-width="4.0"/>
<line x1="143.9" y1="179.7" x2="139.9" y2="172.8" stroke="rgb(0,0,0)"  stroke-width="4.0"/>
<line x1="141.9" y1="176.3" x2="126.8" y2="155.5" stroke="rgb(0,0,0)"  stroke-width="4.0"/>
<line x1="106.2" y1="146.3" x2="80.6" y2="149.0" stroke="rgb(0,0,0)"  stroke-width="4.0"/>
<line x1="309.7" y1="118.1" x2="242.6" y2="118.2" stroke="rgb(0,0,0)"  stroke-width="4.0"/>
<line x1="242.6" y1="118.2" x2="242.6" y2="156.9" stroke="rgb(0,0,0)"  stroke-width="4.0"/>
<line x1="242.6" y1="156.9" x2="276.2" y2="176.3" stroke="rgb(0,0,0)"  stroke-width="4.0"/>
<line x1="276.2" y1="176.3" x2="309.7" y2="156.9" stroke="rgb(0,0,0)"  stroke-width="4.0"/>
<line x1="309.7" y1="156.9" x2="309.7" y2="118.1" stroke="rgb(0,0,0)"  stroke-width="4.0"/>
<line x1="141.9" y1="98.8" x2="108.4" y2="118.2" stroke="rgb(0,0,0)"  stroke-width="4.0"/>
<line x1="133.1" y1="95.6" x2="109.9" y2="109.0" stroke="rgb(0,0,0)"  stroke-width="4.0"/>
<line x1="108.4" y1="118.2" x2="74.8" y2="98.8" stroke="rgb(0,0,0)"  stroke-width="4.0"/>
<line x1="74.8" y1="98.8" x2="74.8" y2="60.1" stroke="rgb(0,0,0)"  stroke-width="4.0"/>
<line x1="82.0" y1="92.8" x2="82.0" y2="66.1" stroke="rgb(0,0,0)"  stroke-width="4.0"/>
<line x1="74.8" y1="60.1" x2="108.3" y2="40.7" stroke="rgb(0,0,0)"  stroke-width="4.0"/>
<line x1="108.3" y1="40.7" x2="141.9" y2="60.0" stroke="rgb(0,0,0)"  stroke-width="4.0"/>
<line x1="109.9" y1="49.9" x2="133.1" y2="63.3" stroke="rgb(0,0,0)"  stroke-width="4.0"/>
<line x1="141.9" y1="60.0" x2="141.9" y2="98.8" stroke="rgb(0,0,0)"  stroke-width="4.0"/>
<line x1="175.5" y1="118.2" x2="141.9" y2="98.8" stroke="rgb(0,0,0)"  stroke-width="4.0"/>
<line x1="141.9" y1="60.0" x2="175.4" y2="40.7" stroke="rgb(0,0,0)"  stroke-width="4.0"/>
<line x1="175.4" y1="40.7" x2="209.0" y2="60.0" stroke="rgb(0,0,0)"  stroke-width="4.0"/>
<line x1="209.0" y1="60.0" x2="209.0" y2="98.8" stroke="rgb(0,0,0)"  stroke-width="4.0"/>
<line x1="209.0" y1="98.8" x2="175.5" y2="118.2" stroke="rgb(0,0,0)"  stroke-width="4.0"/>
<line x1="209.0" y1="176.3" x2="175.5" y2="156.9" stroke="rgb(0,0,0)"  stroke-width="4.0"/>
<line x1="175.5" y1="156.9" x2="175.5" y2="118.2" stroke="rgb(0,0,0)"  stroke-width="4.0"/>
<line x1="209.0" y1="98.8" x2="242.6" y2="118.2" stroke="rgb(0,0,0)"  stroke-width="4.0"/>
<line x1="242.6" y1="156.9" x2="209.0" y2="176.3" stroke="rgb(0,0,0)"  stroke-width="4.0"/>
<text x="22.000000" y="48.000000" fill="rgb(0,0,0)"  stroke="rgb(0,0,0)" stroke-width="1" font-size="16" >HO</text>
<text x="270.200880" y="224.424474" fill="rgb(0,0,0)"  stroke="rgb(0,0,0)" stroke-width="1" font-size="16" >OH</text>
<text x="113.156962" y="152.956424" fill="rgb(0,0,0)"  stroke="rgb(0,0,0)" stroke-width="1" font-size="16" >O</text>
<title>EED - OBDepict</title>
</svg>
