<?xml version="1.0"?>
<svg xmlns="http://www.w3.org/2000/svg"
xmlns:xlink="http://www.w3.org/1999/xlink" xmlns:cml="http://www.xml-cml.org/schema" width="405.477" height="198.719" x="0" y="0" font-family="sans-serif" stroke="rgb(0,0,0)" stroke-width="4"  stroke-linecap="round">
<rect x="0%" y="0%" width="100%" height="100%" stroke-width="0" fill="rgb(255,255,255)"  />
<line x1="233.5" y1="40.0" x2="194.3" y2="48.3" stroke="rgb(0,0,0)"  stroke-width="4.0"/>
<line x1="194.3" y1="48.3" x2="182.0" y2="86.4" stroke="rgb(0,0,0)"  stroke-width="4.0"/>
<line x1="74.6" y1="98.7" x2="51.3" y2="85.2" stroke="rgb(0,0,0)"  stroke-width="4.0"/>
<line x1="218.5" y1="118.7" x2="245.5" y2="118.7" stroke="rgb(0,0,0)"  stroke-width="4.0"/>
<line x1="325.5" y1="118.7" x2="352.5" y2="118.7" stroke="rgb(0,0,0)"  stroke-width="4.0"/>
<line x1="197.8" y1="108.2" x2="182.0" y2="86.4" stroke="rgb(0,0,0)"  stroke-width="4.0"/>
<line x1="182.0" y1="86.4" x2="143.9" y2="98.7" stroke="rgb(0,0,0)"  stroke-width="4.0"/>
<line x1="178.5" y1="95.1" x2="151.9" y2="103.7" stroke="rgb(0,0,0)"  stroke-width="4.0"/>
<line x1="143.9" y1="98.7" x2="143.9" y2="138.7" stroke="rgb(0,0,0)"  stroke-width="4.0"/>
<line x1="143.9" y1="138.7" x2="169.4" y2="147.0" stroke="rgb(0,0,0)"  stroke-width="4.0"/>
<line x1="151.9" y1="133.7" x2="169.7" y2="139.5" stroke="rgb(0,0,0)"  stroke-width="4.0"/>
<line x1="189.6" y1="140.6" x2="197.8" y2="129.2" stroke="rgb(0,0,0)"  stroke-width="4.0"/>
<line x1="143.9" y1="98.7" x2="109.3" y2="78.7" stroke="rgb(0,0,0)"  stroke-width="4.0"/>
<line x1="109.3" y1="78.7" x2="74.6" y2="98.7" stroke="rgb(0,0,0)"  stroke-width="4.0"/>
<line x1="107.7" y1="88.0" x2="83.4" y2="102.0" stroke="rgb(0,0,0)"  stroke-width="4.0"/>
<line x1="74.6" y1="98.7" x2="74.6" y2="138.7" stroke="rgb(0,0,0)"  stroke-width="4.0"/>
<line x1="74.6" y1="138.7" x2="109.3" y2="158.7" stroke="rgb(0,0,0)"  stroke-width="4.0"/>
<line x1="83.4" y1="135.5" x2="107.7" y2="149.5" stroke="rgb(0,0,0)"  stroke-width="4.0"/>
<line x1="109.3" y1="158.7" x2="143.9" y2="138.7" stroke="rgb(0,0,0)"  stroke-width="4.0"/>
<line x1="245.5" y1="118.7" x2="265.5" y2="84.1" stroke="rgb(0,0,0)"  stroke-width="4.0"/>
<line x1="254.7" y1="117.1" x2="268.7" y2="92.9" stroke="rgb(0,0,0)"  stroke-width="4.0"/>
<line x1="265.5" y1="84.1" x2="305.5" y2="84.1" stroke="rgb(0,0,0)"  stroke-width="4.0"/>
<line x1="305.5" y1="84.1" x2="325.5" y2="118.7" stroke="rgb(0,0,0)"  stroke-width="4.0"/>
<line x1="302.2" y1="92.9" x2="316.2" y2="117.1" stroke="rgb(0,0,0)"  stroke-width="4.0"/>
<line x1="325.5" y1="118.7" x2="305.5" y2="153.4" stroke="rgb(0,0,0)"  stroke-width="4.0"/>
<line x1="305.5" y1="153.4" x2="265.5" y2="153.4" stroke="rgb(0,0,0)"  stroke-width="4.0"/>
<line x1="299.5" y1="146.2" x2="271.5" y2="146.2" stroke="rgb(0,0,0)"  stroke-width="4.0"/>
<line x1="265.5" y1="153.4" x2="245.5" y2="118.7" stroke="rgb(0,0,0)"  stroke-width="4.0"/>
<text x="22.000000" y="86.719408" fill="rgb(0,0,0)"  stroke="rgb(0,0,0)" stroke-width="1" font-size="16" >HO</text>
<text x="175.965309" y="159.080088" fill="rgb(0,0,0)"  stroke="rgb(0,0,0)" stroke-width="1" font-size="16" >N</text>
<text x="199.476719" y="126.719408" fill="rgb(0,0,0)"  stroke="rgb(0,0,0)" stroke-width="1" font-size="16" >N</text>
<text x="359.476719" y="126.719408" fill="rgb(0,0,0)"  stroke="rgb(0,0,0)" stroke-width="1" font-size="16" >OH</text>
<title>EI1 - OBDepict</title>
</svg>
