<?xml version="1.0"?>
<svg xmlns="http://www.w3.org/2000/svg"
xmlns:xlink="http://www.w3.org/1999/xlink" xmlns:cml="http://www.xml-cml.org/schema" width="349.4" height="250.403" x="0" y="0" font-family="sans-serif" stroke="rgb(0,0,0)" stroke-width="4"  stroke-linecap="round">
<rect x="0%" y="0%" width="100%" height="100%" stroke-width="0" fill="rgb(255,255,255)"  />
<line x1="74.6" y1="190.4" x2="51.3" y2="203.9" stroke="rgb(0,0,0)"  stroke-width="4.0"/>
<line x1="172.0" y1="135.1" x2="171.2" y2="133.7" stroke="rgb(0,0,0)"  stroke-width="4.0"/>
<line x1="166.8" y1="138.9" x2="165.4" y2="136.4" stroke="rgb(0,0,0)"  stroke-width="4.0"/>
<line x1="161.6" y1="142.6" x2="159.5" y2="139.0" stroke="rgb(0,0,0)"  stroke-width="4.0"/>
<line x1="156.4" y1="146.4" x2="153.6" y2="141.6" stroke="rgb(0,0,0)"  stroke-width="4.0"/>
<line x1="151.1" y1="150.1" x2="147.8" y2="144.3" stroke="rgb(0,0,0)"  stroke-width="4.0"/>
<line x1="145.9" y1="153.9" x2="141.9" y2="146.9" stroke="rgb(0,0,0)"  stroke-width="4.0"/>
<line x1="241.3" y1="135.1" x2="240.5" y2="133.7" stroke="rgb(0,0,0)"  stroke-width="4.0"/>
<line x1="236.1" y1="138.9" x2="234.7" y2="136.4" stroke="rgb(0,0,0)"  stroke-width="4.0"/>
<line x1="230.9" y1="142.6" x2="228.8" y2="139.0" stroke="rgb(0,0,0)"  stroke-width="4.0"/>
<line x1="225.7" y1="146.4" x2="222.9" y2="141.6" stroke="rgb(0,0,0)"  stroke-width="4.0"/>
<line x1="220.4" y1="150.1" x2="217.1" y2="144.3" stroke="rgb(0,0,0)"  stroke-width="4.0"/>
<line x1="215.2" y1="153.9" x2="211.2" y2="146.9" stroke="rgb(0,0,0)"  stroke-width="4.0"/>
<polygon points="247.846097 90.402940 227.922449 55.488069 235.230813 52.234176 " stroke-width="4.000000" fill="rgb(0,0,0)"  stroke="rgb(0,0,0)" />
<polygon points="285.888358 78.042261 290.365787 51.317878 297.974239 53.790014 " stroke-width="4.000000" fill="rgb(0,0,0)"  stroke="rgb(0,0,0)" />
<line x1="309.4" y1="110.4" x2="285.9" y2="142.8" stroke="rgb(0,0,0)"  stroke-width="4.0"/>
<line x1="285.9" y1="142.8" x2="247.8" y2="130.4" stroke="rgb(0,0,0)"  stroke-width="4.0"/>
<line x1="247.8" y1="130.4" x2="247.8" y2="90.4" stroke="rgb(0,0,0)"  stroke-width="4.0"/>
<line x1="247.8" y1="90.4" x2="285.9" y2="78.0" stroke="rgb(0,0,0)"  stroke-width="4.0"/>
<line x1="285.9" y1="78.0" x2="309.4" y2="110.4" stroke="rgb(0,0,0)"  stroke-width="4.0"/>
<line x1="109.3" y1="210.4" x2="143.9" y2="190.4" stroke="rgb(0,0,0)"  stroke-width="4.0"/>
<line x1="110.9" y1="201.2" x2="135.1" y2="187.2" stroke="rgb(0,0,0)"  stroke-width="4.0"/>
<line x1="143.9" y1="190.4" x2="143.9" y2="150.4" stroke="rgb(0,0,0)"  stroke-width="4.0"/>
<line x1="143.9" y1="150.4" x2="109.3" y2="130.4" stroke="rgb(0,0,0)"  stroke-width="4.0"/>
<line x1="135.1" y1="153.6" x2="110.9" y2="139.6" stroke="rgb(0,0,0)"  stroke-width="4.0"/>
<line x1="109.3" y1="130.4" x2="74.6" y2="150.4" stroke="rgb(0,0,0)"  stroke-width="4.0"/>
<line x1="74.6" y1="150.4" x2="74.6" y2="190.4" stroke="rgb(0,0,0)"  stroke-width="4.0"/>
<line x1="81.8" y1="156.4" x2="81.8" y2="184.4" stroke="rgb(0,0,0)"  stroke-width="4.0"/>
<line x1="74.6" y1="190.4" x2="109.3" y2="210.4" stroke="rgb(0,0,0)"  stroke-width="4.0"/>
<line x1="178.6" y1="130.4" x2="178.6" y2="90.4" stroke="rgb(0,0,0)"  stroke-width="4.0"/>
<line x1="178.6" y1="90.4" x2="213.2" y2="70.4" stroke="rgb(0,0,0)"  stroke-width="4.0"/>
<line x1="213.2" y1="70.4" x2="247.8" y2="90.4" stroke="rgb(0,0,0)"  stroke-width="4.0"/>
<line x1="247.8" y1="130.4" x2="213.2" y2="150.4" stroke="rgb(0,0,0)"  stroke-width="4.0"/>
<line x1="213.2" y1="150.4" x2="178.6" y2="130.4" stroke="rgb(0,0,0)"  stroke-width="4.0"/>
<text x="22.000000" y="218.402940" fill="rgb(0,0,0)"  stroke="rgb(0,0,0)" stroke-width="1" font-size="16" >HO</text>
<text x="292.249037" y="48.000000" fill="rgb(0,0,0)"  stroke="rgb(0,0,0)" stroke-width="1" font-size="16" >OH</text>
<title>ESE - OBDepict</title>
</svg>
