<?xml version="1.0"?>
<svg xmlns="http://www.w3.org/2000/svg"
xmlns:xlink="http://www.w3.org/1999/xlink" xmlns:cml="http://www.xml-cml.org/schema" width="383.238" height="255.694" x="0" y="0" font-family="sans-serif" stroke="rgb(0,0,0)" stroke-width="4"  stroke-linecap="round">
<rect x="0%" y="0%" width="100%" height="100%" stroke-width="0" fill="rgb(255,255,255)"  />
<line x1="175.7" y1="125.6" x2="174.1" y2="125.6" stroke="rgb(0,0,0)"  stroke-width="4.0"/>
<line x1="176.4" y1="131.7" x2="173.5" y2="131.7" stroke="rgb(0,0,0)"  stroke-width="4.0"/>
<line x1="177.0" y1="137.9" x2="172.8" y2="137.9" stroke="rgb(0,0,0)"  stroke-width="4.0"/>
<line x1="177.6" y1="144.1" x2="172.2" y2="144.1" stroke="rgb(0,0,0)"  stroke-width="4.0"/>
<line x1="178.3" y1="150.3" x2="171.6" y2="150.3" stroke="rgb(0,0,0)"  stroke-width="4.0"/>
<line x1="178.9" y1="156.4" x2="170.9" y2="156.4" stroke="rgb(0,0,0)"  stroke-width="4.0"/>
<line x1="242.6" y1="164.4" x2="241.0" y2="164.4" stroke="rgb(0,0,0)"  stroke-width="4.0"/>
<line x1="243.2" y1="170.8" x2="240.3" y2="170.8" stroke="rgb(0,0,0)"  stroke-width="4.0"/>
<line x1="243.9" y1="177.2" x2="239.7" y2="177.2" stroke="rgb(0,0,0)"  stroke-width="4.0"/>
<line x1="244.5" y1="183.6" x2="239.1" y2="183.6" stroke="rgb(0,0,0)"  stroke-width="4.0"/>
<line x1="245.1" y1="190.0" x2="238.4" y2="190.0" stroke="rgb(0,0,0)"  stroke-width="4.0"/>
<line x1="245.8" y1="196.4" x2="237.8" y2="196.4" stroke="rgb(0,0,0)"  stroke-width="4.0"/>
<line x1="276.0" y1="181.1" x2="274.4" y2="181.1" stroke="rgb(0,0,0)"  stroke-width="4.0"/>
<line x1="276.7" y1="185.3" x2="273.8" y2="185.3" stroke="rgb(0,0,0)"  stroke-width="4.0"/>
<line x1="277.3" y1="189.6" x2="273.1" y2="189.6" stroke="rgb(0,0,0)"  stroke-width="4.0"/>
<line x1="277.9" y1="193.9" x2="272.5" y2="193.9" stroke="rgb(0,0,0)"  stroke-width="4.0"/>
<line x1="278.6" y1="198.2" x2="271.9" y2="198.2" stroke="rgb(0,0,0)"  stroke-width="4.0"/>
<line x1="279.2" y1="202.5" x2="271.2" y2="202.5" stroke="rgb(0,0,0)"  stroke-width="4.0"/>
<polygon points="308.585433 156.385286 333.800674 166.306559 329.804693 173.237081 " stroke-width="4.000000" fill="rgb(0,0,0)"  stroke="rgb(0,0,0)" />
<line x1="255.1" y1="117.0" x2="255.1" y2="118.6" stroke="rgb(0,0,0)"  stroke-width="4.0"/>
<line x1="265.8" y1="116.4" x2="265.8" y2="119.3" stroke="rgb(0,0,0)"  stroke-width="4.0"/>
<line x1="276.5" y1="115.7" x2="276.5" y2="119.9" stroke="rgb(0,0,0)"  stroke-width="4.0"/>
<line x1="287.2" y1="115.1" x2="287.2" y2="120.5" stroke="rgb(0,0,0)"  stroke-width="4.0"/>
<line x1="297.9" y1="114.5" x2="297.9" y2="121.2" stroke="rgb(0,0,0)"  stroke-width="4.0"/>
<line x1="308.6" y1="113.8" x2="308.6" y2="121.8" stroke="rgb(0,0,0)"  stroke-width="4.0"/>
<polygon points="208.330474 98.539960 204.319451 59.942872 212.319451 59.940588 " stroke-width="4.000000" fill="rgb(0,0,0)"  stroke="rgb(0,0,0)" />
<line x1="74.7" y1="60.0" x2="51.3" y2="46.5" stroke="rgb(0,0,0)"  stroke-width="4.0"/>
<line x1="275.2" y1="175.7" x2="241.8" y2="156.4" stroke="rgb(0,0,0)"  stroke-width="4.0"/>
<line x1="241.8" y1="156.4" x2="241.8" y2="117.8" stroke="rgb(0,0,0)"  stroke-width="4.0"/>
<line x1="241.8" y1="117.8" x2="308.6" y2="117.8" stroke="rgb(0,0,0)"  stroke-width="4.0"/>
<line x1="308.6" y1="117.8" x2="308.6" y2="156.4" stroke="rgb(0,0,0)"  stroke-width="4.0"/>
<line x1="308.6" y1="156.4" x2="275.2" y2="175.7" stroke="rgb(0,0,0)"  stroke-width="4.0"/>
<line x1="174.9" y1="117.8" x2="174.9" y2="156.4" stroke="rgb(0,0,0)"  stroke-width="4.0"/>
<line x1="174.9" y1="156.4" x2="208.4" y2="175.7" stroke="rgb(0,0,0)"  stroke-width="4.0"/>
<line x1="208.4" y1="175.7" x2="241.8" y2="156.4" stroke="rgb(0,0,0)"  stroke-width="4.0"/>
<line x1="241.8" y1="117.8" x2="208.3" y2="98.5" stroke="rgb(0,0,0)"  stroke-width="4.0"/>
<line x1="208.3" y1="98.5" x2="174.9" y2="117.8" stroke="rgb(0,0,0)"  stroke-width="4.0"/>
<line x1="141.5" y1="60.0" x2="141.5" y2="98.6" stroke="rgb(0,0,0)"  stroke-width="4.0"/>
<line x1="141.5" y1="98.6" x2="174.9" y2="117.8" stroke="rgb(0,0,0)"  stroke-width="4.0"/>
<line x1="208.3" y1="98.5" x2="208.3" y2="59.9" stroke="rgb(0,0,0)"  stroke-width="4.0"/>
<line x1="208.3" y1="59.9" x2="174.9" y2="40.7" stroke="rgb(0,0,0)"  stroke-width="4.0"/>
<line x1="174.9" y1="40.7" x2="141.5" y2="60.0" stroke="rgb(0,0,0)"  stroke-width="4.0"/>
<line x1="108.1" y1="40.7" x2="74.7" y2="60.0" stroke="rgb(0,0,0)"  stroke-width="4.0"/>
<line x1="74.7" y1="60.0" x2="74.7" y2="98.6" stroke="rgb(0,0,0)"  stroke-width="4.0"/>
<line x1="81.9" y1="66.0" x2="81.9" y2="92.6" stroke="rgb(0,0,0)"  stroke-width="4.0"/>
<line x1="74.7" y1="98.6" x2="108.1" y2="117.9" stroke="rgb(0,0,0)"  stroke-width="4.0"/>
<line x1="108.1" y1="117.9" x2="141.5" y2="98.6" stroke="rgb(0,0,0)"  stroke-width="4.0"/>
<line x1="109.7" y1="108.6" x2="132.7" y2="95.3" stroke="rgb(0,0,0)"  stroke-width="4.0"/>
<line x1="141.5" y1="60.0" x2="108.1" y2="40.7" stroke="rgb(0,0,0)"  stroke-width="4.0"/>
<line x1="132.7" y1="63.2" x2="109.6" y2="49.9" stroke="rgb(0,0,0)"  stroke-width="4.0"/>
<text x="269.220747" y="223.693932" fill="rgb(0,0,0)"  stroke="rgb(0,0,0)" stroke-width="1" font-size="16" >OH</text>
<text x="337.238046" y="184.365187" fill="rgb(0,0,0)"  stroke="rgb(0,0,0)" stroke-width="1" font-size="16" >OH</text>
<text x="22.000000" y="48.000000" fill="rgb(0,0,0)"  stroke="rgb(0,0,0)" stroke-width="1" font-size="16" >HO</text>
<title>ESL - OBDepict</title>
</svg>
