<?xml version="1.0"?>
<svg xmlns="http://www.w3.org/2000/svg"
xmlns:xlink="http://www.w3.org/1999/xlink" xmlns:cml="http://www.xml-cml.org/schema" width="491.662" height="315.622" x="0" y="0" font-family="sans-serif" stroke="rgb(0,0,0)" stroke-width="4"  stroke-linecap="round">
<rect x="0%" y="0%" width="100%" height="100%" stroke-width="0" fill="rgb(255,255,255)"  />
<line x1="245.2" y1="166.0" x2="243.6" y2="166.0" stroke="rgb(0,0,0)"  stroke-width="4.0"/>
<line x1="245.9" y1="172.5" x2="243.0" y2="172.5" stroke="rgb(0,0,0)"  stroke-width="4.0"/>
<line x1="246.5" y1="179.0" x2="242.4" y2="179.0" stroke="rgb(0,0,0)"  stroke-width="4.0"/>
<line x1="247.2" y1="185.5" x2="241.7" y2="185.5" stroke="rgb(0,0,0)"  stroke-width="4.0"/>
<line x1="247.8" y1="192.0" x2="241.1" y2="192.0" stroke="rgb(0,0,0)"  stroke-width="4.0"/>
<line x1="248.4" y1="198.5" x2="240.4" y2="198.5" stroke="rgb(0,0,0)"  stroke-width="4.0"/>
<line x1="177.5" y1="126.7" x2="175.9" y2="126.7" stroke="rgb(0,0,0)"  stroke-width="4.0"/>
<line x1="178.1" y1="132.9" x2="175.2" y2="133.0" stroke="rgb(0,0,0)"  stroke-width="4.0"/>
<line x1="178.8" y1="139.2" x2="174.6" y2="139.2" stroke="rgb(0,0,0)"  stroke-width="4.0"/>
<line x1="179.4" y1="145.5" x2="174.0" y2="145.5" stroke="rgb(0,0,0)"  stroke-width="4.0"/>
<line x1="180.1" y1="151.7" x2="173.3" y2="151.7" stroke="rgb(0,0,0)"  stroke-width="4.0"/>
<line x1="180.7" y1="158.0" x2="172.7" y2="158.0" stroke="rgb(0,0,0)"  stroke-width="4.0"/>
<line x1="75.1" y1="60.2" x2="51.3" y2="46.5" stroke="rgb(0,0,0)"  stroke-width="4.0"/>
<polygon points="210.546241 99.316929 206.535073 60.211061 214.535073 60.208776 " stroke-width="4.000000" fill="rgb(0,0,0)"  stroke="rgb(0,0,0)" />
<line x1="258.0" y1="118.1" x2="258.0" y2="119.7" stroke="rgb(0,0,0)"  stroke-width="4.0"/>
<line x1="268.8" y1="117.4" x2="268.8" y2="120.3" stroke="rgb(0,0,0)"  stroke-width="4.0"/>
<line x1="279.6" y1="116.8" x2="279.6" y2="120.9" stroke="rgb(0,0,0)"  stroke-width="4.0"/>
<line x1="290.4" y1="116.1" x2="290.5" y2="121.6" stroke="rgb(0,0,0)"  stroke-width="4.0"/>
<line x1="301.3" y1="115.5" x2="301.3" y2="122.2" stroke="rgb(0,0,0)"  stroke-width="4.0"/>
<line x1="312.1" y1="114.8" x2="312.1" y2="122.8" stroke="rgb(0,0,0)"  stroke-width="4.0"/>
<line x1="279.1" y1="182.9" x2="277.5" y2="182.9" stroke="rgb(0,0,0)"  stroke-width="4.0"/>
<line x1="279.8" y1="187.3" x2="276.9" y2="187.3" stroke="rgb(0,0,0)"  stroke-width="4.0"/>
<line x1="280.4" y1="191.6" x2="276.2" y2="191.6" stroke="rgb(0,0,0)"  stroke-width="4.0"/>
<line x1="281.0" y1="196.0" x2="275.6" y2="196.0" stroke="rgb(0,0,0)"  stroke-width="4.0"/>
<line x1="281.7" y1="200.3" x2="275.0" y2="200.3" stroke="rgb(0,0,0)"  stroke-width="4.0"/>
<line x1="282.3" y1="204.6" x2="274.3" y2="204.6" stroke="rgb(0,0,0)"  stroke-width="4.0"/>
<line x1="278.3" y1="177.5" x2="312.1" y2="197.0" stroke="rgb(0,0,0)"  stroke-width="4.0"/>
<line x1="309.7" y1="195.2" x2="332.7" y2="163.6" stroke="rgb(0,0,0)"  stroke-width="4.0"/>
<line x1="314.6" y1="198.8" x2="337.5" y2="167.2" stroke="rgb(0,0,0)"  stroke-width="4.0"/>
<line x1="335.1" y1="165.4" x2="374.0" y2="169.5" stroke="rgb(0,0,0)"  stroke-width="4.0"/>
<line x1="389.9" y1="205.2" x2="366.9" y2="236.8" stroke="rgb(0,0,0)"  stroke-width="4.0"/>
<line x1="366.9" y1="236.8" x2="364.2" y2="262.7" stroke="rgb(0,0,0)"  stroke-width="4.0"/>
<line x1="366.9" y1="236.8" x2="388.0" y2="252.1" stroke="rgb(0,0,0)"  stroke-width="4.0"/>
<line x1="366.9" y1="236.8" x2="341.0" y2="234.1" stroke="rgb(0,0,0)"  stroke-width="4.0"/>
<line x1="312.1" y1="157.9" x2="278.3" y2="177.5" stroke="rgb(0,0,0)"  stroke-width="4.0"/>
<line x1="278.3" y1="177.5" x2="244.4" y2="157.9" stroke="rgb(0,0,0)"  stroke-width="4.0"/>
<line x1="244.4" y1="157.9" x2="244.4" y2="118.9" stroke="rgb(0,0,0)"  stroke-width="4.0"/>
<line x1="244.4" y1="118.9" x2="312.1" y2="118.8" stroke="rgb(0,0,0)"  stroke-width="4.0"/>
<line x1="312.1" y1="118.8" x2="312.1" y2="157.9" stroke="rgb(0,0,0)"  stroke-width="4.0"/>
<line x1="244.4" y1="157.9" x2="210.6" y2="177.5" stroke="rgb(0,0,0)"  stroke-width="4.0"/>
<line x1="210.6" y1="177.5" x2="176.7" y2="158.0" stroke="rgb(0,0,0)"  stroke-width="4.0"/>
<line x1="176.7" y1="158.0" x2="176.7" y2="118.9" stroke="rgb(0,0,0)"  stroke-width="4.0"/>
<line x1="176.7" y1="118.9" x2="210.5" y2="99.3" stroke="rgb(0,0,0)"  stroke-width="4.0"/>
<line x1="210.5" y1="99.3" x2="244.4" y2="118.9" stroke="rgb(0,0,0)"  stroke-width="4.0"/>
<line x1="142.8" y1="99.3" x2="176.7" y2="118.9" stroke="rgb(0,0,0)"  stroke-width="4.0"/>
<line x1="210.5" y1="99.3" x2="210.5" y2="60.2" stroke="rgb(0,0,0)"  stroke-width="4.0"/>
<line x1="210.5" y1="60.2" x2="176.7" y2="40.7" stroke="rgb(0,0,0)"  stroke-width="4.0"/>
<line x1="176.7" y1="40.7" x2="142.8" y2="60.2" stroke="rgb(0,0,0)"  stroke-width="4.0"/>
<line x1="142.8" y1="60.2" x2="142.8" y2="99.3" stroke="rgb(0,0,0)"  stroke-width="4.0"/>
<line x1="75.1" y1="60.2" x2="75.1" y2="99.4" stroke="rgb(0,0,0)"  stroke-width="4.0"/>
<line x1="82.3" y1="66.2" x2="82.3" y2="93.4" stroke="rgb(0,0,0)"  stroke-width="4.0"/>
<line x1="75.1" y1="99.4" x2="109.0" y2="118.9" stroke="rgb(0,0,0)"  stroke-width="4.0"/>
<line x1="109.0" y1="118.9" x2="142.8" y2="99.3" stroke="rgb(0,0,0)"  stroke-width="4.0"/>
<line x1="110.6" y1="109.7" x2="134.0" y2="96.1" stroke="rgb(0,0,0)"  stroke-width="4.0"/>
<line x1="142.8" y1="60.2" x2="108.9" y2="40.7" stroke="rgb(0,0,0)"  stroke-width="4.0"/>
<line x1="134.0" y1="63.5" x2="110.5" y2="49.9" stroke="rgb(0,0,0)"  stroke-width="4.0"/>
<line x1="108.9" y1="40.7" x2="75.1" y2="60.2" stroke="rgb(0,0,0)"  stroke-width="4.0"/>
<line x1="374.0" y1="169.5" x2="396.9" y2="137.9" stroke="rgb(0,0,0)"  stroke-width="4.0"/>
<line x1="383.3" y1="168.8" x2="399.2" y2="146.9" stroke="rgb(0,0,0)"  stroke-width="4.0"/>
<line x1="396.9" y1="137.9" x2="435.8" y2="141.9" stroke="rgb(0,0,0)"  stroke-width="4.0"/>
<line x1="435.8" y1="141.9" x2="451.7" y2="177.6" stroke="rgb(0,0,0)"  stroke-width="4.0"/>
<line x1="431.6" y1="150.3" x2="442.6" y2="175.1" stroke="rgb(0,0,0)"  stroke-width="4.0"/>
<line x1="451.7" y1="177.6" x2="428.7" y2="209.2" stroke="rgb(0,0,0)"  stroke-width="4.0"/>
<line x1="428.7" y1="209.2" x2="389.9" y2="205.2" stroke="rgb(0,0,0)"  stroke-width="4.0"/>
<line x1="423.5" y1="201.4" x2="396.6" y2="198.6" stroke="rgb(0,0,0)"  stroke-width="4.0"/>
<line x1="389.9" y1="205.2" x2="374.0" y2="169.5" stroke="rgb(0,0,0)"  stroke-width="4.0"/>
<text x="22.000000" y="48.000000" fill="rgb(0,0,0)"  stroke="rgb(0,0,0)" stroke-width="1" font-size="16" >HO</text>
<text x="272.330518" y="226.015155" fill="rgb(0,0,0)"  stroke="rgb(0,0,0)" stroke-width="1" font-size="16" >OH</text>
<text x="356.829119" y="283.622264" fill="rgb(0,0,0)"  stroke="rgb(0,0,0)" stroke-width="1" font-size="16" >F</text>
<text x="392.513926" y="267.721399" fill="rgb(0,0,0)"  stroke="rgb(0,0,0)" stroke-width="1" font-size="16" >F</text>
<text x="322.046589" y="240.696032" fill="rgb(0,0,0)"  stroke="rgb(0,0,0)" stroke-width="1" font-size="16" >F</text>
<title>EZT - OBDepict</title>
</svg>
