<?xml version="1.0"?>
<svg xmlns="http://www.w3.org/2000/svg"
xmlns:xlink="http://www.w3.org/1999/xlink" xmlns:cml="http://www.xml-cml.org/schema" width="322.487" height="400" x="0" y="0" font-family="sans-serif" stroke="rgb(0,0,0)" stroke-width="4"  stroke-linecap="round">
<rect x="0%" y="0%" width="100%" height="100%" stroke-width="0" fill="rgb(255,255,255)"  />
<line x1="109.3" y1="280.0" x2="143.9" y2="300.0" stroke="rgb(0,0,0)"  stroke-width="4.0"/>
<line x1="143.9" y1="300.0" x2="143.9" y2="340.0" stroke="rgb(0,0,0)"  stroke-width="4.0"/>
<line x1="142.4" y1="297.4" x2="177.1" y2="277.4" stroke="rgb(0,0,0)"  stroke-width="4.0"/>
<line x1="145.4" y1="302.6" x2="180.1" y2="282.6" stroke="rgb(0,0,0)"  stroke-width="4.0"/>
<line x1="143.9" y1="340.0" x2="109.3" y2="360.0" stroke="rgb(0,0,0)"  stroke-width="4.0"/>
<line x1="178.6" y1="280.0" x2="213.2" y2="300.0" stroke="rgb(0,0,0)"  stroke-width="4.0"/>
<line x1="178.6" y1="280.0" x2="178.6" y2="240.0" stroke="rgb(0,0,0)"  stroke-width="4.0"/>
<line x1="178.6" y1="160.0" x2="178.6" y2="120.0" stroke="rgb(0,0,0)"  stroke-width="4.0"/>
<line x1="177.1" y1="117.4" x2="211.7" y2="97.4" stroke="rgb(0,0,0)"  stroke-width="4.0"/>
<line x1="180.1" y1="122.6" x2="214.7" y2="102.6" stroke="rgb(0,0,0)"  stroke-width="4.0"/>
<line x1="213.2" y1="100.0" x2="213.2" y2="60.0" stroke="rgb(0,0,0)"  stroke-width="4.0"/>
<line x1="213.2" y1="60.0" x2="189.8" y2="46.5" stroke="rgb(0,0,0)"  stroke-width="4.0"/>
<line x1="211.7" y1="57.4" x2="235.1" y2="43.9" stroke="rgb(0,0,0)"  stroke-width="4.0"/>
<line x1="214.7" y1="62.6" x2="238.1" y2="49.1" stroke="rgb(0,0,0)"  stroke-width="4.0"/>
<line x1="74.6" y1="300.0" x2="40.0" y2="280.0" stroke="rgb(0,0,0)"  stroke-width="4.0"/>
<line x1="73.0" y1="290.8" x2="48.8" y2="276.8" stroke="rgb(0,0,0)"  stroke-width="4.0"/>
<line x1="40.0" y1="280.0" x2="40.0" y2="240.0" stroke="rgb(0,0,0)"  stroke-width="4.0"/>
<line x1="40.0" y1="240.0" x2="74.6" y2="220.0" stroke="rgb(0,0,0)"  stroke-width="4.0"/>
<line x1="48.8" y1="243.2" x2="73.0" y2="229.2" stroke="rgb(0,0,0)"  stroke-width="4.0"/>
<line x1="74.6" y1="220.0" x2="109.3" y2="240.0" stroke="rgb(0,0,0)"  stroke-width="4.0"/>
<line x1="109.3" y1="240.0" x2="109.3" y2="280.0" stroke="rgb(0,0,0)"  stroke-width="4.0"/>
<line x1="102.1" y1="246.0" x2="102.1" y2="274.0" stroke="rgb(0,0,0)"  stroke-width="4.0"/>
<line x1="109.3" y1="280.0" x2="74.6" y2="300.0" stroke="rgb(0,0,0)"  stroke-width="4.0"/>
<line x1="213.2" y1="300.0" x2="247.8" y2="280.0" stroke="rgb(0,0,0)"  stroke-width="4.0"/>
<line x1="222.0" y1="303.2" x2="246.2" y2="289.2" stroke="rgb(0,0,0)"  stroke-width="4.0"/>
<line x1="247.8" y1="280.0" x2="282.5" y2="300.0" stroke="rgb(0,0,0)"  stroke-width="4.0"/>
<line x1="282.5" y1="300.0" x2="282.5" y2="340.0" stroke="rgb(0,0,0)"  stroke-width="4.0"/>
<line x1="275.3" y1="306.0" x2="275.3" y2="334.0" stroke="rgb(0,0,0)"  stroke-width="4.0"/>
<line x1="282.5" y1="340.0" x2="247.8" y2="360.0" stroke="rgb(0,0,0)"  stroke-width="4.0"/>
<line x1="247.8" y1="360.0" x2="213.2" y2="340.0" stroke="rgb(0,0,0)"  stroke-width="4.0"/>
<line x1="246.2" y1="350.8" x2="222.0" y2="336.8" stroke="rgb(0,0,0)"  stroke-width="4.0"/>
<line x1="213.2" y1="340.0" x2="213.2" y2="300.0" stroke="rgb(0,0,0)"  stroke-width="4.0"/>
<line x1="178.6" y1="240.0" x2="213.2" y2="220.0" stroke="rgb(0,0,0)"  stroke-width="4.0"/>
<line x1="213.2" y1="220.0" x2="213.2" y2="180.0" stroke="rgb(0,0,0)"  stroke-width="4.0"/>
<line x1="206.0" y1="214.0" x2="206.0" y2="186.0" stroke="rgb(0,0,0)"  stroke-width="4.0"/>
<line x1="213.2" y1="180.0" x2="178.6" y2="160.0" stroke="rgb(0,0,0)"  stroke-width="4.0"/>
<line x1="178.6" y1="160.0" x2="143.9" y2="180.0" stroke="rgb(0,0,0)"  stroke-width="4.0"/>
<line x1="177.0" y1="169.2" x2="152.7" y2="183.2" stroke="rgb(0,0,0)"  stroke-width="4.0"/>
<line x1="143.9" y1="180.0" x2="143.9" y2="220.0" stroke="rgb(0,0,0)"  stroke-width="4.0"/>
<line x1="143.9" y1="220.0" x2="178.6" y2="240.0" stroke="rgb(0,0,0)"  stroke-width="4.0"/>
<line x1="152.7" y1="216.8" x2="177.0" y2="230.8" stroke="rgb(0,0,0)"  stroke-width="4.0"/>
<text x="160.564065" y="48.000000" fill="rgb(0,0,0)"  stroke="rgb(0,0,0)" stroke-width="1" font-size="16" >HO</text>
<text x="241.846097" y="48.000000" fill="rgb(0,0,0)"  stroke="rgb(0,0,0)" stroke-width="1" font-size="16" >O</text>
<title>GW5 - OBDepict</title>
</svg>
