<?xml version="1.0"?>
<svg xmlns="http://www.w3.org/2000/svg"
xmlns:xlink="http://www.w3.org/1999/xlink" xmlns:cml="http://www.xml-cml.org/schema" width="396.281" height="317.916" x="0" y="0" font-family="sans-serif" stroke="rgb(0,0,0)" stroke-width="4"  stroke-linecap="round">
<rect x="0%" y="0%" width="100%" height="100%" stroke-width="0" fill="rgb(255,255,255)"  />
<line x1="78.9" y1="165.9" x2="52.7" y2="171.5" stroke="rgb(0,0,0)"  stroke-width="4.0"/>
<line x1="196.5" y1="149.4" x2="156.7" y2="149.4" stroke="rgb(0,0,0)"  stroke-width="4.0"/>
<line x1="213.1" y1="122.2" x2="211.7" y2="121.4" stroke="rgb(0,0,0)"  stroke-width="4.0"/>
<line x1="210.4" y1="128.1" x2="208.0" y2="126.6" stroke="rgb(0,0,0)"  stroke-width="4.0"/>
<line x1="207.8" y1="133.9" x2="204.2" y2="131.8" stroke="rgb(0,0,0)"  stroke-width="4.0"/>
<line x1="205.2" y1="139.7" x2="200.5" y2="137.0" stroke="rgb(0,0,0)"  stroke-width="4.0"/>
<line x1="202.6" y1="145.5" x2="196.7" y2="142.2" stroke="rgb(0,0,0)"  stroke-width="4.0"/>
<line x1="199.9" y1="151.4" x2="193.0" y2="147.4" stroke="rgb(0,0,0)"  stroke-width="4.0"/>
<polygon points="256.133853 183.820063 248.967251 155.332802 256.919020 154.455667 " stroke-width="4.000000" fill="rgb(0,0,0)"  stroke="rgb(0,0,0)" />
<line x1="276.0" y1="80.5" x2="302.6" y2="77.7" stroke="rgb(0,0,0)"  stroke-width="4.0"/>
<line x1="276.0" y1="80.5" x2="256.1" y2="114.9" stroke="rgb(0,0,0)"  stroke-width="4.0"/>
<line x1="320.9" y1="64.5" x2="331.7" y2="40.0" stroke="rgb(0,0,0)"  stroke-width="4.0"/>
<line x1="262.7" y1="57.1" x2="278.4" y2="78.7" stroke="rgb(0,0,0)"  stroke-width="4.0"/>
<line x1="257.9" y1="60.6" x2="273.6" y2="82.3" stroke="rgb(0,0,0)"  stroke-width="4.0"/>
<line x1="315.8" y1="149.4" x2="276.0" y2="149.4" stroke="rgb(0,0,0)"  stroke-width="4.0"/>
<line x1="315.8" y1="149.4" x2="318.6" y2="176.0" stroke="rgb(0,0,0)"  stroke-width="4.0"/>
<line x1="356.3" y1="205.1" x2="331.8" y2="194.2" stroke="rgb(0,0,0)"  stroke-width="4.0"/>
<line x1="339.2" y1="136.1" x2="317.6" y2="151.8" stroke="rgb(0,0,0)"  stroke-width="4.0"/>
<line x1="335.7" y1="131.2" x2="314.0" y2="146.9" stroke="rgb(0,0,0)"  stroke-width="4.0"/>
<line x1="216.4" y1="183.8" x2="196.5" y2="218.3" stroke="rgb(0,0,0)"  stroke-width="4.0"/>
<line x1="127.6" y1="258.0" x2="104.4" y2="271.4" stroke="rgb(0,0,0)"  stroke-width="4.0"/>
<line x1="196.5" y1="149.4" x2="216.4" y2="114.9" stroke="rgb(0,0,0)"  stroke-width="4.0"/>
<line x1="216.4" y1="114.9" x2="240.9" y2="133.0" stroke="rgb(0,0,0)"  stroke-width="4.0"/>
<line x1="252.8" y1="153.6" x2="256.1" y2="183.8" stroke="rgb(0,0,0)"  stroke-width="4.0"/>
<line x1="256.1" y1="183.8" x2="216.4" y2="183.8" stroke="rgb(0,0,0)"  stroke-width="4.0"/>
<line x1="216.4" y1="183.8" x2="196.5" y2="149.4" stroke="rgb(0,0,0)"  stroke-width="4.0"/>
<line x1="219.6" y1="175.0" x2="205.7" y2="151.0" stroke="rgb(0,0,0)"  stroke-width="4.0"/>
<line x1="256.1" y1="114.9" x2="216.4" y2="114.9" stroke="rgb(0,0,0)"  stroke-width="4.0"/>
<line x1="256.1" y1="183.8" x2="276.0" y2="149.4" stroke="rgb(0,0,0)"  stroke-width="4.0"/>
<line x1="276.0" y1="149.4" x2="256.1" y2="114.9" stroke="rgb(0,0,0)"  stroke-width="4.0"/>
<line x1="266.8" y1="147.8" x2="252.9" y2="123.7" stroke="rgb(0,0,0)"  stroke-width="4.0"/>
<line x1="144.4" y1="187.2" x2="156.7" y2="149.4" stroke="rgb(0,0,0)"  stroke-width="4.0"/>
<line x1="156.7" y1="149.4" x2="130.1" y2="119.8" stroke="rgb(0,0,0)"  stroke-width="4.0"/>
<line x1="147.3" y1="149.7" x2="128.8" y2="129.1" stroke="rgb(0,0,0)"  stroke-width="4.0"/>
<line x1="130.1" y1="119.8" x2="91.2" y2="128.1" stroke="rgb(0,0,0)"  stroke-width="4.0"/>
<line x1="91.2" y1="128.1" x2="78.9" y2="165.9" stroke="rgb(0,0,0)"  stroke-width="4.0"/>
<line x1="96.2" y1="136.0" x2="87.6" y2="162.4" stroke="rgb(0,0,0)"  stroke-width="4.0"/>
<line x1="78.9" y1="165.9" x2="105.5" y2="195.5" stroke="rgb(0,0,0)"  stroke-width="4.0"/>
<line x1="105.5" y1="195.5" x2="144.4" y2="187.2" stroke="rgb(0,0,0)"  stroke-width="4.0"/>
<line x1="109.9" y1="187.2" x2="137.0" y2="181.4" stroke="rgb(0,0,0)"  stroke-width="4.0"/>
<line x1="196.5" y1="218.3" x2="162.0" y2="198.4" stroke="rgb(0,0,0)"  stroke-width="4.0"/>
<line x1="162.0" y1="198.4" x2="127.6" y2="218.3" stroke="rgb(0,0,0)"  stroke-width="4.0"/>
<line x1="160.4" y1="207.6" x2="136.4" y2="221.5" stroke="rgb(0,0,0)"  stroke-width="4.0"/>
<line x1="127.6" y1="218.3" x2="127.6" y2="258.0" stroke="rgb(0,0,0)"  stroke-width="4.0"/>
<line x1="127.6" y1="258.0" x2="162.0" y2="277.9" stroke="rgb(0,0,0)"  stroke-width="4.0"/>
<line x1="136.4" y1="254.8" x2="160.4" y2="268.7" stroke="rgb(0,0,0)"  stroke-width="4.0"/>
<line x1="162.0" y1="277.9" x2="196.5" y2="258.0" stroke="rgb(0,0,0)"  stroke-width="4.0"/>
<line x1="196.5" y1="258.0" x2="196.5" y2="218.3" stroke="rgb(0,0,0)"  stroke-width="4.0"/>
<line x1="189.3" y1="252.0" x2="189.3" y2="224.3" stroke="rgb(0,0,0)"  stroke-width="4.0"/>
<text x="22.000000" y="182.186078" fill="rgb(0,0,0)"  stroke="rgb(0,0,0)" stroke-width="1" font-size="16" >HO</text>
<text x="245.371588" y="148.647185" fill="rgb(0,0,0)"  stroke="rgb(0,0,0)" stroke-width="1" font-size="16" >O</text>
<text x="309.573401" y="84.331548" fill="rgb(0,0,0)"  stroke="rgb(0,0,0)" stroke-width="1" font-size="16" >O</text>
<text x="246.645314" y="56.314159" fill="rgb(0,0,0)"  stroke="rgb(0,0,0)" stroke-width="1" font-size="16" >O</text>
<text x="313.949065" y="196.923277" fill="rgb(0,0,0)"  stroke="rgb(0,0,0)" stroke-width="1" font-size="16" >O</text>
<text x="341.965655" y="133.994834" fill="rgb(0,0,0)"  stroke="rgb(0,0,0)" stroke-width="1" font-size="16" >O</text>
<text x="75.146977" y="285.916239" fill="rgb(0,0,0)"  stroke="rgb(0,0,0)" stroke-width="1" font-size="16" >HO</text>
<title>HZ3 - OBDepict</title>
</svg>
