<?xml version="1.0"?>
<svg xmlns="http://www.w3.org/2000/svg"
xmlns:xlink="http://www.w3.org/1999/xlink" xmlns:cml="http://www.xml-cml.org/schema" width="391.769" height="263.307" x="0" y="0" font-family="sans-serif" stroke="rgb(0,0,0)" stroke-width="4"  stroke-linecap="round">
<rect x="0%" y="0%" width="100%" height="100%" stroke-width="0" fill="rgb(255,255,255)"  />
<line x1="212.3" y1="188.0" x2="210.8" y2="187.7" stroke="rgb(0,0,0)"  stroke-width="4.0"/>
<line x1="211.6" y1="194.4" x2="208.8" y2="193.8" stroke="rgb(0,0,0)"  stroke-width="4.0"/>
<line x1="210.9" y1="200.8" x2="206.8" y2="199.9" stroke="rgb(0,0,0)"  stroke-width="4.0"/>
<line x1="210.2" y1="207.2" x2="204.9" y2="206.0" stroke="rgb(0,0,0)"  stroke-width="4.0"/>
<line x1="209.5" y1="213.6" x2="202.9" y2="212.2" stroke="rgb(0,0,0)"  stroke-width="4.0"/>
<line x1="208.8" y1="220.0" x2="201.0" y2="218.3" stroke="rgb(0,0,0)"  stroke-width="4.0"/>
<line x1="317.1" y1="160.0" x2="340.5" y2="173.5" stroke="rgb(0,0,0)"  stroke-width="4.0"/>
<line x1="173.2" y1="165.9" x2="172.1" y2="164.8" stroke="rgb(0,0,0)"  stroke-width="4.0"/>
<line x1="168.8" y1="170.7" x2="166.9" y2="168.6" stroke="rgb(0,0,0)"  stroke-width="4.0"/>
<line x1="164.5" y1="175.5" x2="161.7" y2="172.4" stroke="rgb(0,0,0)"  stroke-width="4.0"/>
<line x1="160.2" y1="180.2" x2="156.5" y2="176.2" stroke="rgb(0,0,0)"  stroke-width="4.0"/>
<line x1="155.8" y1="185.0" x2="151.3" y2="180.0" stroke="rgb(0,0,0)"  stroke-width="4.0"/>
<line x1="151.5" y1="189.7" x2="146.2" y2="183.8" stroke="rgb(0,0,0)"  stroke-width="4.0"/>
<line x1="171.2" y1="116.7" x2="172.0" y2="115.3" stroke="rgb(0,0,0)"  stroke-width="4.0"/>
<line x1="165.4" y1="114.0" x2="166.8" y2="111.6" stroke="rgb(0,0,0)"  stroke-width="4.0"/>
<line x1="159.5" y1="111.4" x2="161.6" y2="107.8" stroke="rgb(0,0,0)"  stroke-width="4.0"/>
<line x1="153.6" y1="108.8" x2="156.4" y2="104.0" stroke="rgb(0,0,0)"  stroke-width="4.0"/>
<line x1="147.8" y1="106.1" x2="151.1" y2="100.3" stroke="rgb(0,0,0)"  stroke-width="4.0"/>
<line x1="141.9" y1="103.5" x2="145.9" y2="96.5" stroke="rgb(0,0,0)"  stroke-width="4.0"/>
<line x1="74.6" y1="60.0" x2="51.3" y2="46.5" stroke="rgb(0,0,0)"  stroke-width="4.0"/>
<line x1="213.2" y1="180.0" x2="204.9" y2="219.1" stroke="rgb(0,0,0)"  stroke-width="4.0"/>
<line x1="204.9" y1="219.1" x2="165.1" y2="223.3" stroke="rgb(0,0,0)"  stroke-width="4.0"/>
<line x1="165.1" y1="223.3" x2="148.8" y2="186.8" stroke="rgb(0,0,0)"  stroke-width="4.0"/>
<line x1="148.8" y1="186.8" x2="178.6" y2="160.0" stroke="rgb(0,0,0)"  stroke-width="4.0"/>
<line x1="178.6" y1="160.0" x2="213.2" y2="180.0" stroke="rgb(0,0,0)"  stroke-width="4.0"/>
<line x1="247.8" y1="160.0" x2="282.5" y2="180.0" stroke="rgb(0,0,0)"  stroke-width="4.0"/>
<line x1="282.5" y1="180.0" x2="317.1" y2="160.0" stroke="rgb(0,0,0)"  stroke-width="4.0"/>
<line x1="284.1" y1="170.8" x2="308.3" y2="156.8" stroke="rgb(0,0,0)"  stroke-width="4.0"/>
<line x1="317.1" y1="160.0" x2="317.1" y2="120.0" stroke="rgb(0,0,0)"  stroke-width="4.0"/>
<line x1="317.1" y1="120.0" x2="282.5" y2="100.0" stroke="rgb(0,0,0)"  stroke-width="4.0"/>
<line x1="308.3" y1="123.2" x2="284.1" y2="109.2" stroke="rgb(0,0,0)"  stroke-width="4.0"/>
<line x1="282.5" y1="100.0" x2="247.8" y2="120.0" stroke="rgb(0,0,0)"  stroke-width="4.0"/>
<line x1="247.8" y1="120.0" x2="247.8" y2="160.0" stroke="rgb(0,0,0)"  stroke-width="4.0"/>
<line x1="255.0" y1="126.0" x2="255.0" y2="154.0" stroke="rgb(0,0,0)"  stroke-width="4.0"/>
<line x1="178.6" y1="120.0" x2="178.6" y2="160.0" stroke="rgb(0,0,0)"  stroke-width="4.0"/>
<line x1="213.2" y1="180.0" x2="247.8" y2="160.0" stroke="rgb(0,0,0)"  stroke-width="4.0"/>
<line x1="247.8" y1="120.0" x2="224.5" y2="106.5" stroke="rgb(0,0,0)"  stroke-width="4.0"/>
<line x1="201.9" y1="106.5" x2="178.6" y2="120.0" stroke="rgb(0,0,0)"  stroke-width="4.0"/>
<line x1="143.9" y1="60.0" x2="143.9" y2="100.0" stroke="rgb(0,0,0)"  stroke-width="4.0"/>
<line x1="143.9" y1="100.0" x2="109.3" y2="120.0" stroke="rgb(0,0,0)"  stroke-width="4.0"/>
<line x1="135.1" y1="96.8" x2="110.9" y2="110.8" stroke="rgb(0,0,0)"  stroke-width="4.0"/>
<line x1="109.3" y1="120.0" x2="74.6" y2="100.0" stroke="rgb(0,0,0)"  stroke-width="4.0"/>
<line x1="74.6" y1="100.0" x2="74.6" y2="60.0" stroke="rgb(0,0,0)"  stroke-width="4.0"/>
<line x1="81.8" y1="94.0" x2="81.8" y2="66.0" stroke="rgb(0,0,0)"  stroke-width="4.0"/>
<line x1="74.6" y1="60.0" x2="109.3" y2="40.0" stroke="rgb(0,0,0)"  stroke-width="4.0"/>
<line x1="109.3" y1="40.0" x2="143.9" y2="60.0" stroke="rgb(0,0,0)"  stroke-width="4.0"/>
<line x1="110.9" y1="49.2" x2="135.1" y2="63.2" stroke="rgb(0,0,0)"  stroke-width="4.0"/>
<text x="345.769145" y="188.000000" fill="rgb(0,0,0)"  stroke="rgb(0,0,0)" stroke-width="1" font-size="16" >OH</text>
<text x="207.205081" y="108.000000" fill="rgb(0,0,0)"  stroke="rgb(0,0,0)" stroke-width="1" font-size="16" >O</text>
<text x="22.000000" y="48.000000" fill="rgb(0,0,0)"  stroke="rgb(0,0,0)" stroke-width="1" font-size="16" >HO</text>
<title>I0G - OBDepict</title>
</svg>
