<?xml version="1.0"?>
<svg xmlns="http://www.w3.org/2000/svg"
xmlns:xlink="http://www.w3.org/1999/xlink" xmlns:cml="http://www.xml-cml.org/schema" width="506.673" height="478.444" x="0" y="0" font-family="sans-serif" stroke="rgb(0,0,0)" stroke-width="4"  stroke-linecap="round">
<rect x="0%" y="0%" width="100%" height="100%" stroke-width="0" fill="rgb(255,255,255)"  />
<line x1="66.8" y1="349.3" x2="40.0" y2="319.5" stroke="rgb(0,0,0)"  stroke-width="4.0"/>
<line x1="120.3" y1="408.7" x2="138.4" y2="428.8" stroke="rgb(0,0,0)"  stroke-width="4.0"/>
<line x1="40.0" y1="319.5" x2="52.4" y2="281.5" stroke="rgb(0,0,0)"  stroke-width="4.0"/>
<line x1="83.8" y1="275.6" x2="83.5" y2="274.1" stroke="rgb(0,0,0)"  stroke-width="4.0"/>
<line x1="77.7" y1="277.6" x2="77.1" y2="274.8" stroke="rgb(0,0,0)"  stroke-width="4.0"/>
<line x1="71.6" y1="279.5" x2="70.7" y2="275.5" stroke="rgb(0,0,0)"  stroke-width="4.0"/>
<line x1="65.4" y1="281.5" x2="64.3" y2="276.2" stroke="rgb(0,0,0)"  stroke-width="4.0"/>
<line x1="59.3" y1="283.5" x2="57.9" y2="276.9" stroke="rgb(0,0,0)"  stroke-width="4.0"/>
<line x1="53.2" y1="285.4" x2="51.5" y2="277.6" stroke="rgb(0,0,0)"  stroke-width="4.0"/>
<line x1="91.5" y1="273.2" x2="99.8" y2="247.5" stroke="rgb(0,0,0)"  stroke-width="4.0"/>
<line x1="91.5" y1="273.2" x2="118.3" y2="302.9" stroke="rgb(0,0,0)"  stroke-width="4.0"/>
<line x1="116.6" y1="232.4" x2="143.0" y2="226.8" stroke="rgb(0,0,0)"  stroke-width="4.0"/>
<line x1="143.0" y1="226.8" x2="155.3" y2="188.8" stroke="rgb(0,0,0)"  stroke-width="4.0"/>
<line x1="145.2" y1="224.8" x2="163.3" y2="244.9" stroke="rgb(0,0,0)"  stroke-width="4.0"/>
<line x1="140.7" y1="228.8" x2="158.8" y2="248.9" stroke="rgb(0,0,0)"  stroke-width="4.0"/>
<line x1="155.3" y1="188.8" x2="194.5" y2="180.5" stroke="rgb(0,0,0)"  stroke-width="4.0"/>
<line x1="210.7" y1="143.9" x2="190.7" y2="109.3" stroke="rgb(0,0,0)"  stroke-width="4.0"/>
<line x1="293.5" y1="247.2" x2="316.9" y2="260.7" stroke="rgb(0,0,0)"  stroke-width="4.0"/>
<line x1="328.1" y1="280.2" x2="328.1" y2="307.2" stroke="rgb(0,0,0)"  stroke-width="4.0"/>
<line x1="328.1" y1="307.2" x2="362.7" y2="327.2" stroke="rgb(0,0,0)"  stroke-width="4.0"/>
<line x1="362.7" y1="327.2" x2="386.1" y2="313.7" stroke="rgb(0,0,0)"  stroke-width="4.0"/>
<line x1="194.5" y1="180.5" x2="210.7" y2="143.9" stroke="rgb(0,0,0)"  stroke-width="4.0"/>
<line x1="203.5" y1="177.9" x2="214.9" y2="152.3" stroke="rgb(0,0,0)"  stroke-width="4.0"/>
<line x1="210.7" y1="143.9" x2="237.6" y2="146.7" stroke="rgb(0,0,0)"  stroke-width="4.0"/>
<line x1="253.2" y1="160.8" x2="258.8" y2="187.2" stroke="rgb(0,0,0)"  stroke-width="4.0"/>
<line x1="258.8" y1="187.2" x2="224.2" y2="207.2" stroke="rgb(0,0,0)"  stroke-width="4.0"/>
<line x1="224.2" y1="207.2" x2="194.5" y2="180.5" stroke="rgb(0,0,0)"  stroke-width="4.0"/>
<line x1="66.8" y1="349.3" x2="54.4" y2="387.3" stroke="rgb(0,0,0)"  stroke-width="4.0"/>
<line x1="71.8" y1="357.2" x2="63.1" y2="383.8" stroke="rgb(0,0,0)"  stroke-width="4.0"/>
<line x1="54.4" y1="387.3" x2="81.2" y2="417.0" stroke="rgb(0,0,0)"  stroke-width="4.0"/>
<line x1="81.2" y1="417.0" x2="120.3" y2="408.7" stroke="rgb(0,0,0)"  stroke-width="4.0"/>
<line x1="85.5" y1="408.7" x2="112.9" y2="402.9" stroke="rgb(0,0,0)"  stroke-width="4.0"/>
<line x1="120.3" y1="408.7" x2="132.7" y2="370.7" stroke="rgb(0,0,0)"  stroke-width="4.0"/>
<line x1="132.7" y1="370.7" x2="105.9" y2="341.0" stroke="rgb(0,0,0)"  stroke-width="4.0"/>
<line x1="123.3" y1="371.0" x2="104.6" y2="350.2" stroke="rgb(0,0,0)"  stroke-width="4.0"/>
<line x1="105.9" y1="341.0" x2="66.8" y2="349.3" stroke="rgb(0,0,0)"  stroke-width="4.0"/>
<line x1="293.5" y1="207.2" x2="293.5" y2="247.2" stroke="rgb(0,0,0)"  stroke-width="4.0"/>
<line x1="293.5" y1="247.2" x2="258.8" y2="267.2" stroke="rgb(0,0,0)"  stroke-width="4.0"/>
<line x1="284.7" y1="244.0" x2="260.4" y2="258.0" stroke="rgb(0,0,0)"  stroke-width="4.0"/>
<line x1="258.8" y1="267.2" x2="224.2" y2="247.2" stroke="rgb(0,0,0)"  stroke-width="4.0"/>
<line x1="224.2" y1="247.2" x2="224.2" y2="207.2" stroke="rgb(0,0,0)"  stroke-width="4.0"/>
<line x1="231.4" y1="241.2" x2="231.4" y2="213.2" stroke="rgb(0,0,0)"  stroke-width="4.0"/>
<line x1="258.8" y1="187.2" x2="293.5" y2="207.2" stroke="rgb(0,0,0)"  stroke-width="4.0"/>
<line x1="260.4" y1="196.5" x2="284.7" y2="210.5" stroke="rgb(0,0,0)"  stroke-width="4.0"/>
<line x1="190.7" y1="109.3" x2="150.7" y2="109.3" stroke="rgb(0,0,0)"  stroke-width="4.0"/>
<line x1="150.7" y1="109.3" x2="130.7" y2="74.6" stroke="rgb(0,0,0)"  stroke-width="4.0"/>
<line x1="154.0" y1="100.5" x2="140.0" y2="76.2" stroke="rgb(0,0,0)"  stroke-width="4.0"/>
<line x1="130.7" y1="74.6" x2="150.7" y2="40.0" stroke="rgb(0,0,0)"  stroke-width="4.0"/>
<line x1="150.7" y1="40.0" x2="190.7" y2="40.0" stroke="rgb(0,0,0)"  stroke-width="4.0"/>
<line x1="156.7" y1="47.2" x2="184.7" y2="47.2" stroke="rgb(0,0,0)"  stroke-width="4.0"/>
<line x1="190.7" y1="40.0" x2="210.7" y2="74.6" stroke="rgb(0,0,0)"  stroke-width="4.0"/>
<line x1="210.7" y1="74.6" x2="190.7" y2="109.3" stroke="rgb(0,0,0)"  stroke-width="4.0"/>
<line x1="201.5" y1="76.2" x2="187.5" y2="100.5" stroke="rgb(0,0,0)"  stroke-width="4.0"/>
<line x1="408.6" y1="313.7" x2="432.0" y2="327.2" stroke="rgb(0,0,0)"  stroke-width="4.0"/>
<line x1="432.0" y1="327.2" x2="466.7" y2="307.2" stroke="rgb(0,0,0)"  stroke-width="4.0"/>
<line x1="466.7" y1="307.2" x2="466.7" y2="267.2" stroke="rgb(0,0,0)"  stroke-width="4.0"/>
<line x1="466.7" y1="267.2" x2="432.0" y2="247.2" stroke="rgb(0,0,0)"  stroke-width="4.0"/>
<line x1="432.0" y1="247.2" x2="397.4" y2="267.2" stroke="rgb(0,0,0)"  stroke-width="4.0"/>
<line x1="397.4" y1="267.2" x2="397.4" y2="294.2" stroke="rgb(0,0,0)"  stroke-width="4.0"/>
<text x="141.060897" y="446.444224" fill="rgb(0,0,0)"  stroke="rgb(0,0,0)" stroke-width="1" font-size="16" >OH</text>
<text x="97.847264" y="243.140063" fill="rgb(0,0,0)"  stroke="rgb(0,0,0)" stroke-width="1" font-size="16" >N</text>
<text x="97.847264" y="227.140063" fill="rgb(0,0,0)"  stroke="rgb(0,0,0)" stroke-width="1" font-size="16" >H</text>
<text x="163.738392" y="264.549388" fill="rgb(0,0,0)"  stroke="rgb(0,0,0)" stroke-width="1" font-size="16" >O</text>
<text x="244.510093" y="156.104187" fill="rgb(0,0,0)"  stroke="rgb(0,0,0)" stroke-width="1" font-size="16" >N</text>
<text x="244.510093" y="140.104187" fill="rgb(0,0,0)"  stroke="rgb(0,0,0)" stroke-width="1" font-size="16" >H</text>
<text x="322.108593" y="275.230091" fill="rgb(0,0,0)"  stroke="rgb(0,0,0)" stroke-width="1" font-size="16" >O</text>
<text x="391.390625" y="315.230091" fill="rgb(0,0,0)"  stroke="rgb(0,0,0)" stroke-width="1" font-size="16" >N</text>
<title>IOG - OBDepict</title>
</svg>
