<?xml version="1.0"?>
<svg xmlns="http://www.w3.org/2000/svg"
xmlns:xlink="http://www.w3.org/1999/xlink" xmlns:cml="http://www.xml-cml.org/schema" width="461.302" height="307.23" x="0" y="0" font-family="sans-serif" stroke="rgb(0,0,0)" stroke-width="4"  stroke-linecap="round">
<rect x="0%" y="0%" width="100%" height="100%" stroke-width="0" fill="rgb(255,255,255)"  />
<line x1="91.5" y1="121.9" x2="103.8" y2="83.9" stroke="rgb(0,0,0)"  stroke-width="4.0"/>
<line x1="66.8" y1="198.0" x2="58.4" y2="223.7" stroke="rgb(0,0,0)"  stroke-width="4.0"/>
<line x1="103.8" y1="83.9" x2="143.0" y2="75.6" stroke="rgb(0,0,0)"  stroke-width="4.0"/>
<line x1="163.8" y1="99.9" x2="165.0" y2="98.8" stroke="rgb(0,0,0)"  stroke-width="4.0"/>
<line x1="159.0" y1="95.5" x2="161.2" y2="93.6" stroke="rgb(0,0,0)"  stroke-width="4.0"/>
<line x1="154.3" y1="91.2" x2="157.4" y2="88.4" stroke="rgb(0,0,0)"  stroke-width="4.0"/>
<line x1="149.5" y1="86.9" x2="153.6" y2="83.3" stroke="rgb(0,0,0)"  stroke-width="4.0"/>
<line x1="144.8" y1="82.6" x2="149.8" y2="78.1" stroke="rgb(0,0,0)"  stroke-width="4.0"/>
<line x1="140.0" y1="78.2" x2="145.9" y2="72.9" stroke="rgb(0,0,0)"  stroke-width="4.0"/>
<line x1="169.7" y1="105.3" x2="157.4" y2="143.3" stroke="rgb(0,0,0)"  stroke-width="4.0"/>
<line x1="169.7" y1="105.3" x2="196.1" y2="99.7" stroke="rgb(0,0,0)"  stroke-width="4.0"/>
<line x1="217.6" y1="106.6" x2="235.6" y2="126.7" stroke="rgb(0,0,0)"  stroke-width="4.0"/>
<line x1="238.5" y1="127.6" x2="230.1" y2="153.3" stroke="rgb(0,0,0)"  stroke-width="4.0"/>
<line x1="232.8" y1="125.8" x2="224.4" y2="151.4" stroke="rgb(0,0,0)"  stroke-width="4.0"/>
<line x1="235.6" y1="126.7" x2="274.8" y2="118.4" stroke="rgb(0,0,0)"  stroke-width="4.0"/>
<line x1="274.8" y1="118.4" x2="301.5" y2="148.1" stroke="rgb(0,0,0)"  stroke-width="4.0"/>
<line x1="341.3" y1="143.9" x2="361.3" y2="109.3" stroke="rgb(0,0,0)"  stroke-width="4.0"/>
<line x1="301.5" y1="148.1" x2="341.3" y2="143.9" stroke="rgb(0,0,0)"  stroke-width="4.0"/>
<line x1="308.2" y1="154.6" x2="336.1" y2="151.7" stroke="rgb(0,0,0)"  stroke-width="4.0"/>
<line x1="341.3" y1="143.9" x2="352.3" y2="168.6" stroke="rgb(0,0,0)"  stroke-width="4.0"/>
<line x1="347.9" y1="189.2" x2="327.8" y2="207.2" stroke="rgb(0,0,0)"  stroke-width="4.0"/>
<line x1="327.8" y1="207.2" x2="293.2" y2="187.2" stroke="rgb(0,0,0)"  stroke-width="4.0"/>
<line x1="326.2" y1="198.0" x2="302.0" y2="184.0" stroke="rgb(0,0,0)"  stroke-width="4.0"/>
<line x1="293.2" y1="187.2" x2="301.5" y2="148.1" stroke="rgb(0,0,0)"  stroke-width="4.0"/>
<line x1="91.5" y1="121.9" x2="52.4" y2="130.2" stroke="rgb(0,0,0)"  stroke-width="4.0"/>
<line x1="87.1" y1="130.2" x2="59.7" y2="136.0" stroke="rgb(0,0,0)"  stroke-width="4.0"/>
<line x1="52.4" y1="130.2" x2="40.0" y2="168.3" stroke="rgb(0,0,0)"  stroke-width="4.0"/>
<line x1="40.0" y1="168.3" x2="66.8" y2="198.0" stroke="rgb(0,0,0)"  stroke-width="4.0"/>
<line x1="49.4" y1="167.9" x2="68.1" y2="188.7" stroke="rgb(0,0,0)"  stroke-width="4.0"/>
<line x1="66.8" y1="198.0" x2="105.9" y2="189.7" stroke="rgb(0,0,0)"  stroke-width="4.0"/>
<line x1="105.9" y1="189.7" x2="118.3" y2="151.6" stroke="rgb(0,0,0)"  stroke-width="4.0"/>
<line x1="100.9" y1="181.8" x2="109.6" y2="155.1" stroke="rgb(0,0,0)"  stroke-width="4.0"/>
<line x1="118.3" y1="151.6" x2="91.5" y2="121.9" stroke="rgb(0,0,0)"  stroke-width="4.0"/>
<line x1="327.8" y1="247.2" x2="293.2" y2="267.2" stroke="rgb(0,0,0)"  stroke-width="4.0"/>
<line x1="319.0" y1="244.0" x2="294.8" y2="258.0" stroke="rgb(0,0,0)"  stroke-width="4.0"/>
<line x1="293.2" y1="267.2" x2="258.6" y2="247.2" stroke="rgb(0,0,0)"  stroke-width="4.0"/>
<line x1="258.6" y1="247.2" x2="258.6" y2="207.2" stroke="rgb(0,0,0)"  stroke-width="4.0"/>
<line x1="265.8" y1="241.2" x2="265.8" y2="213.2" stroke="rgb(0,0,0)"  stroke-width="4.0"/>
<line x1="258.6" y1="207.2" x2="293.2" y2="187.2" stroke="rgb(0,0,0)"  stroke-width="4.0"/>
<line x1="327.8" y1="207.2" x2="327.8" y2="247.2" stroke="rgb(0,0,0)"  stroke-width="4.0"/>
<line x1="361.3" y1="109.3" x2="401.3" y2="109.3" stroke="rgb(0,0,0)"  stroke-width="4.0"/>
<line x1="367.3" y1="102.1" x2="395.3" y2="102.1" stroke="rgb(0,0,0)"  stroke-width="4.0"/>
<line x1="401.3" y1="109.3" x2="421.3" y2="74.6" stroke="rgb(0,0,0)"  stroke-width="4.0"/>
<line x1="421.3" y1="74.6" x2="401.3" y2="40.0" stroke="rgb(0,0,0)"  stroke-width="4.0"/>
<line x1="412.1" y1="73.0" x2="398.1" y2="48.8" stroke="rgb(0,0,0)"  stroke-width="4.0"/>
<line x1="401.3" y1="40.0" x2="361.3" y2="40.0" stroke="rgb(0,0,0)"  stroke-width="4.0"/>
<line x1="361.3" y1="40.0" x2="341.3" y2="74.6" stroke="rgb(0,0,0)"  stroke-width="4.0"/>
<line x1="364.5" y1="48.8" x2="350.5" y2="73.0" stroke="rgb(0,0,0)"  stroke-width="4.0"/>
<line x1="341.3" y1="74.6" x2="361.3" y2="109.3" stroke="rgb(0,0,0)"  stroke-width="4.0"/>
<text x="36.404544" y="244.045253" fill="rgb(0,0,0)"  stroke="rgb(0,0,0)" stroke-width="1" font-size="16" >HO</text>
<text x="202.864296" y="104.969069" fill="rgb(0,0,0)"  stroke="rgb(0,0,0)" stroke-width="1" font-size="16" >N</text>
<text x="202.864296" y="88.969069" fill="rgb(0,0,0)"  stroke="rgb(0,0,0)" stroke-width="1" font-size="16" >H</text>
<text x="217.268840" y="172.737122" fill="rgb(0,0,0)"  stroke="rgb(0,0,0)" stroke-width="1" font-size="16" >O</text>
<text x="351.570990" y="188.464867" fill="rgb(0,0,0)"  stroke="rgb(0,0,0)" stroke-width="1" font-size="16" >NH</text>
<title>IOK - OBDepict</title>
</svg>
