<?xml version="1.0"?>
<svg xmlns="http://www.w3.org/2000/svg"
xmlns:xlink="http://www.w3.org/1999/xlink" xmlns:cml="http://www.xml-cml.org/schema" width="391.769" height="303.307" x="0" y="0" font-family="sans-serif" stroke="rgb(0,0,0)" stroke-width="4"  stroke-linecap="round">
<rect x="0%" y="0%" width="100%" height="100%" stroke-width="0" fill="rgb(255,255,255)"  />
<line x1="317.1" y1="103.3" x2="340.5" y2="89.8" stroke="rgb(0,0,0)"  stroke-width="4.0"/>
<line x1="282.5" y1="163.3" x2="282.5" y2="203.3" stroke="rgb(0,0,0)"  stroke-width="4.0"/>
<polygon points="178.564065 143.307043 145.923048 166.771144 141.923048 159.842941 " stroke-width="4.000000" fill="rgb(0,0,0)"  stroke="rgb(0,0,0)" />
<polygon points="178.564065 103.307043 146.161749 79.514398 151.514794 73.569239 " stroke-width="4.000000" fill="rgb(0,0,0)"  stroke="rgb(0,0,0)" />
<polygon points="213.205081 83.307043 200.976023 45.012785 208.801204 43.349492 " stroke-width="4.000000" fill="rgb(0,0,0)"  stroke="rgb(0,0,0)" />
<line x1="74.6" y1="203.3" x2="51.3" y2="216.8" stroke="rgb(0,0,0)"  stroke-width="4.0"/>
<line x1="282.5" y1="203.3" x2="305.9" y2="216.8" stroke="rgb(0,0,0)"  stroke-width="4.0"/>
<line x1="317.1" y1="236.3" x2="317.1" y2="263.3" stroke="rgb(0,0,0)"  stroke-width="4.0"/>
<line x1="165.1" y1="40.0" x2="148.8" y2="76.5" stroke="rgb(0,0,0)"  stroke-width="4.0"/>
<line x1="148.8" y1="76.5" x2="178.6" y2="103.3" stroke="rgb(0,0,0)"  stroke-width="4.0"/>
<line x1="178.6" y1="103.3" x2="213.2" y2="83.3" stroke="rgb(0,0,0)"  stroke-width="4.0"/>
<line x1="213.2" y1="83.3" x2="204.9" y2="44.2" stroke="rgb(0,0,0)"  stroke-width="4.0"/>
<line x1="204.9" y1="44.2" x2="165.1" y2="40.0" stroke="rgb(0,0,0)"  stroke-width="4.0"/>
<line x1="317.1" y1="103.3" x2="317.1" y2="143.3" stroke="rgb(0,0,0)"  stroke-width="4.0"/>
<line x1="317.1" y1="143.3" x2="282.5" y2="163.3" stroke="rgb(0,0,0)"  stroke-width="4.0"/>
<line x1="308.3" y1="140.1" x2="284.1" y2="154.1" stroke="rgb(0,0,0)"  stroke-width="4.0"/>
<line x1="282.5" y1="163.3" x2="247.8" y2="143.3" stroke="rgb(0,0,0)"  stroke-width="4.0"/>
<line x1="247.8" y1="143.3" x2="247.8" y2="103.3" stroke="rgb(0,0,0)"  stroke-width="4.0"/>
<line x1="255.0" y1="137.3" x2="255.0" y2="109.3" stroke="rgb(0,0,0)"  stroke-width="4.0"/>
<line x1="247.8" y1="103.3" x2="282.5" y2="83.3" stroke="rgb(0,0,0)"  stroke-width="4.0"/>
<line x1="282.5" y1="83.3" x2="317.1" y2="103.3" stroke="rgb(0,0,0)"  stroke-width="4.0"/>
<line x1="284.1" y1="92.5" x2="308.3" y2="106.5" stroke="rgb(0,0,0)"  stroke-width="4.0"/>
<line x1="224.5" y1="156.8" x2="247.8" y2="143.3" stroke="rgb(0,0,0)"  stroke-width="4.0"/>
<line x1="247.8" y1="103.3" x2="213.2" y2="83.3" stroke="rgb(0,0,0)"  stroke-width="4.0"/>
<line x1="178.6" y1="103.3" x2="178.6" y2="143.3" stroke="rgb(0,0,0)"  stroke-width="4.0"/>
<line x1="178.6" y1="143.3" x2="201.9" y2="156.8" stroke="rgb(0,0,0)"  stroke-width="4.0"/>
<line x1="143.9" y1="163.3" x2="143.9" y2="203.3" stroke="rgb(0,0,0)"  stroke-width="4.0"/>
<line x1="143.9" y1="203.3" x2="109.3" y2="223.3" stroke="rgb(0,0,0)"  stroke-width="4.0"/>
<line x1="135.1" y1="200.1" x2="110.9" y2="214.1" stroke="rgb(0,0,0)"  stroke-width="4.0"/>
<line x1="109.3" y1="223.3" x2="74.6" y2="203.3" stroke="rgb(0,0,0)"  stroke-width="4.0"/>
<line x1="74.6" y1="203.3" x2="74.6" y2="163.3" stroke="rgb(0,0,0)"  stroke-width="4.0"/>
<line x1="81.8" y1="197.3" x2="81.8" y2="169.3" stroke="rgb(0,0,0)"  stroke-width="4.0"/>
<line x1="74.6" y1="163.3" x2="109.3" y2="143.3" stroke="rgb(0,0,0)"  stroke-width="4.0"/>
<line x1="109.3" y1="143.3" x2="143.9" y2="163.3" stroke="rgb(0,0,0)"  stroke-width="4.0"/>
<line x1="110.9" y1="152.5" x2="135.1" y2="166.5" stroke="rgb(0,0,0)"  stroke-width="4.0"/>
<text x="207.205081" y="171.307043" fill="rgb(0,0,0)"  stroke="rgb(0,0,0)" stroke-width="1" font-size="16" >O</text>
<text x="22.000000" y="231.307043" fill="rgb(0,0,0)"  stroke="rgb(0,0,0)" stroke-width="1" font-size="16" >HO</text>
<text x="311.128129" y="231.307043" fill="rgb(0,0,0)"  stroke="rgb(0,0,0)" stroke-width="1" font-size="16" >O</text>
<text x="345.769145" y="91.307043" fill="rgb(0,0,0)"  stroke="rgb(0,0,0)" stroke-width="1" font-size="16" >OH</text>
<title>JJ3 - OBDepict</title>
</svg>
