<?xml version="1.0"?>
<svg xmlns="http://www.w3.org/2000/svg"
xmlns:xlink="http://www.w3.org/1999/xlink" xmlns:cml="http://www.xml-cml.org/schema" width="374.893" height="352.67" x="0" y="0" font-family="sans-serif" stroke="rgb(0,0,0)" stroke-width="4"  stroke-linecap="round">
<rect x="0%" y="0%" width="100%" height="100%" stroke-width="0" fill="rgb(255,255,255)"  />
<line x1="227.8" y1="158.9" x2="254.6" y2="129.2" stroke="rgb(0,0,0)"  stroke-width="4.0"/>
<line x1="159.1" y1="194.0" x2="132.7" y2="199.6" stroke="rgb(0,0,0)"  stroke-width="4.0"/>
<line x1="132.7" y1="199.6" x2="105.9" y2="169.9" stroke="rgb(0,0,0)"  stroke-width="4.0"/>
<line x1="308.1" y1="69.7" x2="326.2" y2="49.7" stroke="rgb(0,0,0)"  stroke-width="4.0"/>
<line x1="242.2" y1="91.1" x2="215.8" y2="85.5" stroke="rgb(0,0,0)"  stroke-width="4.0"/>
<line x1="166.9" y1="278.0" x2="201.5" y2="258.0" stroke="rgb(0,0,0)"  stroke-width="4.0"/>
<line x1="166.9" y1="278.0" x2="153.4" y2="301.4" stroke="rgb(0,0,0)"  stroke-width="4.0"/>
<line x1="180.4" y1="301.4" x2="166.9" y2="278.0" stroke="rgb(0,0,0)"  stroke-width="4.0"/>
<line x1="143.5" y1="264.5" x2="166.9" y2="278.0" stroke="rgb(0,0,0)"  stroke-width="4.0"/>
<line x1="227.8" y1="158.9" x2="201.2" y2="156.1" stroke="rgb(0,0,0)"  stroke-width="4.0"/>
<line x1="221.1" y1="165.4" x2="202.4" y2="163.5" stroke="rgb(0,0,0)"  stroke-width="4.0"/>
<line x1="182.8" y1="166.6" x2="177.1" y2="179.4" stroke="rgb(0,0,0)"  stroke-width="4.0"/>
<line x1="181.4" y1="200.0" x2="201.5" y2="218.0" stroke="rgb(0,0,0)"  stroke-width="4.0"/>
<line x1="201.5" y1="218.0" x2="236.1" y2="198.0" stroke="rgb(0,0,0)"  stroke-width="4.0"/>
<line x1="236.1" y1="198.0" x2="227.8" y2="158.9" stroke="rgb(0,0,0)"  stroke-width="4.0"/>
<line x1="236.1" y1="278.0" x2="270.8" y2="258.0" stroke="rgb(0,0,0)"  stroke-width="4.0"/>
<line x1="237.7" y1="268.8" x2="262.0" y2="254.8" stroke="rgb(0,0,0)"  stroke-width="4.0"/>
<line x1="270.8" y1="258.0" x2="270.8" y2="218.0" stroke="rgb(0,0,0)"  stroke-width="4.0"/>
<line x1="270.8" y1="218.0" x2="236.1" y2="198.0" stroke="rgb(0,0,0)"  stroke-width="4.0"/>
<line x1="262.0" y1="221.3" x2="237.7" y2="207.3" stroke="rgb(0,0,0)"  stroke-width="4.0"/>
<line x1="201.5" y1="218.0" x2="201.5" y2="258.0" stroke="rgb(0,0,0)"  stroke-width="4.0"/>
<line x1="208.7" y1="224.0" x2="208.7" y2="252.0" stroke="rgb(0,0,0)"  stroke-width="4.0"/>
<line x1="201.5" y1="258.0" x2="236.1" y2="278.0" stroke="rgb(0,0,0)"  stroke-width="4.0"/>
<line x1="254.6" y1="129.2" x2="293.7" y2="137.5" stroke="rgb(0,0,0)"  stroke-width="4.0"/>
<line x1="262.0" y1="123.4" x2="289.4" y2="129.2" stroke="rgb(0,0,0)"  stroke-width="4.0"/>
<line x1="293.7" y1="137.5" x2="320.5" y2="107.8" stroke="rgb(0,0,0)"  stroke-width="4.0"/>
<line x1="320.5" y1="107.8" x2="308.1" y2="69.7" stroke="rgb(0,0,0)"  stroke-width="4.0"/>
<line x1="311.8" y1="104.3" x2="303.1" y2="77.7" stroke="rgb(0,0,0)"  stroke-width="4.0"/>
<line x1="308.1" y1="69.7" x2="269.0" y2="61.4" stroke="rgb(0,0,0)"  stroke-width="4.0"/>
<line x1="269.0" y1="61.4" x2="242.2" y2="91.1" stroke="rgb(0,0,0)"  stroke-width="4.0"/>
<line x1="270.3" y1="70.7" x2="251.6" y2="91.5" stroke="rgb(0,0,0)"  stroke-width="4.0"/>
<line x1="242.2" y1="91.1" x2="254.6" y2="129.2" stroke="rgb(0,0,0)"  stroke-width="4.0"/>
<line x1="105.9" y1="169.9" x2="66.8" y2="178.2" stroke="rgb(0,0,0)"  stroke-width="4.0"/>
<line x1="66.8" y1="178.2" x2="40.0" y2="148.4" stroke="rgb(0,0,0)"  stroke-width="4.0"/>
<line x1="68.1" y1="168.9" x2="49.4" y2="148.1" stroke="rgb(0,0,0)"  stroke-width="4.0"/>
<line x1="40.0" y1="148.4" x2="52.4" y2="110.4" stroke="rgb(0,0,0)"  stroke-width="4.0"/>
<line x1="52.4" y1="110.4" x2="91.5" y2="102.1" stroke="rgb(0,0,0)"  stroke-width="4.0"/>
<line x1="59.7" y1="116.2" x2="87.1" y2="110.4" stroke="rgb(0,0,0)"  stroke-width="4.0"/>
<line x1="91.5" y1="102.1" x2="118.3" y2="131.8" stroke="rgb(0,0,0)"  stroke-width="4.0"/>
<line x1="118.3" y1="131.8" x2="105.9" y2="169.9" stroke="rgb(0,0,0)"  stroke-width="4.0"/>
<line x1="109.6" y1="135.3" x2="100.9" y2="161.9" stroke="rgb(0,0,0)"  stroke-width="4.0"/>
<text x="182.051722" y="162.722034" fill="rgb(0,0,0)"  stroke="rgb(0,0,0)" stroke-width="1" font-size="16" >N</text>
<text x="165.782257" y="199.263852" fill="rgb(0,0,0)"  stroke="rgb(0,0,0)" stroke-width="1" font-size="16" >N</text>
<text x="185.111239" y="90.818651" fill="rgb(0,0,0)"  stroke="rgb(0,0,0)" stroke-width="1" font-size="16" >HO</text>
<text x="328.893495" y="48.000000" fill="rgb(0,0,0)"  stroke="rgb(0,0,0)" stroke-width="1" font-size="16" >OH</text>
<text x="180.867033" y="320.670092" fill="rgb(0,0,0)"  stroke="rgb(0,0,0)" stroke-width="1" font-size="16" >F</text>
<text x="140.867033" y="320.670092" fill="rgb(0,0,0)"  stroke="rgb(0,0,0)" stroke-width="1" font-size="16" >F</text>
<text x="126.226017" y="266.029076" fill="rgb(0,0,0)"  stroke="rgb(0,0,0)" stroke-width="1" font-size="16" >F</text>
<title>KN0 - OBDepict</title>
</svg>
