<?xml version="1.0"?>
<svg xmlns="http://www.w3.org/2000/svg"
xmlns:xlink="http://www.w3.org/1999/xlink" xmlns:cml="http://www.xml-cml.org/schema" width="385.804" height="277" x="0" y="0" font-family="sans-serif" stroke="rgb(0,0,0)" stroke-width="4"  stroke-linecap="round">
<rect x="0%" y="0%" width="100%" height="100%" stroke-width="0" fill="rgb(255,255,255)"  />
<line x1="171.2" y1="40.0" x2="147.7" y2="72.4" stroke="rgb(0,0,0)"  stroke-width="4.0"/>
<line x1="171.5" y1="37.0" x2="211.3" y2="41.2" stroke="rgb(0,0,0)"  stroke-width="4.0"/>
<line x1="170.9" y1="43.0" x2="210.6" y2="47.2" stroke="rgb(0,0,0)"  stroke-width="4.0"/>
<line x1="158.6" y1="97.0" x2="147.7" y2="72.4" stroke="rgb(0,0,0)"  stroke-width="4.0"/>
<line x1="104.8" y1="151.9" x2="78.0" y2="122.1" stroke="rgb(0,0,0)"  stroke-width="4.0"/>
<line x1="78.0" y1="122.1" x2="52.4" y2="113.8" stroke="rgb(0,0,0)"  stroke-width="4.0"/>
<line x1="78.0" y1="122.1" x2="58.0" y2="140.2" stroke="rgb(0,0,0)"  stroke-width="4.0"/>
<line x1="86.4" y1="96.5" x2="78.0" y2="122.1" stroke="rgb(0,0,0)"  stroke-width="4.0"/>
<line x1="241.9" y1="177.0" x2="207.2" y2="157.0" stroke="rgb(0,0,0)"  stroke-width="4.0"/>
<line x1="334.5" y1="230.5" x2="311.2" y2="217.0" stroke="rgb(0,0,0)"  stroke-width="4.0"/>
<line x1="276.5" y1="157.0" x2="276.5" y2="130.0" stroke="rgb(0,0,0)"  stroke-width="4.0"/>
<line x1="204.4" y1="130.3" x2="207.2" y2="157.0" stroke="rgb(0,0,0)"  stroke-width="4.0"/>
<line x1="197.5" y1="133.1" x2="199.5" y2="151.8" stroke="rgb(0,0,0)"  stroke-width="4.0"/>
<line x1="207.2" y1="157.0" x2="170.7" y2="173.3" stroke="rgb(0,0,0)"  stroke-width="4.0"/>
<line x1="170.7" y1="173.3" x2="143.9" y2="143.5" stroke="rgb(0,0,0)"  stroke-width="4.0"/>
<line x1="172.0" y1="164.0" x2="153.3" y2="143.2" stroke="rgb(0,0,0)"  stroke-width="4.0"/>
<line x1="143.9" y1="143.5" x2="157.4" y2="120.2" stroke="rgb(0,0,0)"  stroke-width="4.0"/>
<line x1="176.6" y1="111.6" x2="190.3" y2="114.5" stroke="rgb(0,0,0)"  stroke-width="4.0"/>
<line x1="170.7" y1="173.3" x2="158.3" y2="211.3" stroke="rgb(0,0,0)"  stroke-width="4.0"/>
<line x1="158.3" y1="211.3" x2="119.2" y2="219.6" stroke="rgb(0,0,0)"  stroke-width="4.0"/>
<line x1="151.0" y1="205.5" x2="123.6" y2="211.3" stroke="rgb(0,0,0)"  stroke-width="4.0"/>
<line x1="119.2" y1="219.6" x2="92.4" y2="189.9" stroke="rgb(0,0,0)"  stroke-width="4.0"/>
<line x1="92.4" y1="189.9" x2="104.8" y2="151.9" stroke="rgb(0,0,0)"  stroke-width="4.0"/>
<line x1="101.1" y1="186.4" x2="109.8" y2="159.8" stroke="rgb(0,0,0)"  stroke-width="4.0"/>
<line x1="104.8" y1="151.9" x2="143.9" y2="143.5" stroke="rgb(0,0,0)"  stroke-width="4.0"/>
<line x1="241.9" y1="177.0" x2="241.9" y2="217.0" stroke="rgb(0,0,0)"  stroke-width="4.0"/>
<line x1="241.9" y1="217.0" x2="276.5" y2="237.0" stroke="rgb(0,0,0)"  stroke-width="4.0"/>
<line x1="250.7" y1="213.8" x2="274.9" y2="227.8" stroke="rgb(0,0,0)"  stroke-width="4.0"/>
<line x1="276.5" y1="237.0" x2="311.2" y2="217.0" stroke="rgb(0,0,0)"  stroke-width="4.0"/>
<line x1="311.2" y1="217.0" x2="311.2" y2="177.0" stroke="rgb(0,0,0)"  stroke-width="4.0"/>
<line x1="304.0" y1="211.0" x2="304.0" y2="183.0" stroke="rgb(0,0,0)"  stroke-width="4.0"/>
<line x1="311.2" y1="177.0" x2="276.5" y2="157.0" stroke="rgb(0,0,0)"  stroke-width="4.0"/>
<line x1="276.5" y1="157.0" x2="241.9" y2="177.0" stroke="rgb(0,0,0)"  stroke-width="4.0"/>
<line x1="274.9" y1="166.2" x2="250.7" y2="180.2" stroke="rgb(0,0,0)"  stroke-width="4.0"/>
<text x="157.933389" y="116.902498" fill="rgb(0,0,0)"  stroke="rgb(0,0,0)" stroke-width="1" font-size="16" >N</text>
<text x="197.059293" y="125.218966" fill="rgb(0,0,0)"  stroke="rgb(0,0,0)" stroke-width="1" font-size="16" >N</text>
<text x="42.316468" y="156.899413" fill="rgb(0,0,0)"  stroke="rgb(0,0,0)" stroke-width="1" font-size="16" >F</text>
<text x="84.402940" y="92.091928" fill="rgb(0,0,0)"  stroke="rgb(0,0,0)" stroke-width="1" font-size="16" >F</text>
<text x="34.000000" y="117.773509" fill="rgb(0,0,0)"  stroke="rgb(0,0,0)" stroke-width="1" font-size="16" >F</text>
<text x="339.804496" y="244.999842" fill="rgb(0,0,0)"  stroke="rgb(0,0,0)" stroke-width="1" font-size="16" >OH</text>
<text x="270.522464" y="124.999842" fill="rgb(0,0,0)"  stroke="rgb(0,0,0)" stroke-width="1" font-size="16" >OH</text>
<title>KN1 - OBDepict</title>
</svg>
