<?xml version="1.0"?>
<svg xmlns="http://www.w3.org/2000/svg"
xmlns:xlink="http://www.w3.org/1999/xlink" xmlns:cml="http://www.xml-cml.org/schema" width="372.484" height="208.097" x="0" y="0" font-family="sans-serif" stroke="rgb(0,0,0)" stroke-width="4"  stroke-linecap="round">
<rect x="0%" y="0%" width="100%" height="100%" stroke-width="0" fill="rgb(255,255,255)"  />
<line x1="205.2" y1="46.5" x2="228.6" y2="60.0" stroke="rgb(0,0,0)"  stroke-width="4.0"/>
<line x1="297.8" y1="60.0" x2="321.2" y2="46.5" stroke="rgb(0,0,0)"  stroke-width="4.0"/>
<line x1="228.6" y1="100.0" x2="193.9" y2="120.0" stroke="rgb(0,0,0)"  stroke-width="4.0"/>
<line x1="79.1" y1="87.1" x2="52.7" y2="81.5" stroke="rgb(0,0,0)"  stroke-width="4.0"/>
<line x1="191.1" y1="146.7" x2="193.9" y2="120.0" stroke="rgb(0,0,0)"  stroke-width="4.0"/>
<line x1="184.2" y1="143.9" x2="186.1" y2="125.2" stroke="rgb(0,0,0)"  stroke-width="4.0"/>
<line x1="193.9" y1="120.0" x2="157.4" y2="103.7" stroke="rgb(0,0,0)"  stroke-width="4.0"/>
<line x1="157.4" y1="103.7" x2="130.6" y2="133.5" stroke="rgb(0,0,0)"  stroke-width="4.0"/>
<line x1="130.6" y1="133.5" x2="144.1" y2="156.8" stroke="rgb(0,0,0)"  stroke-width="4.0"/>
<line x1="163.3" y1="165.4" x2="177.0" y2="162.5" stroke="rgb(0,0,0)"  stroke-width="4.0"/>
<line x1="228.6" y1="60.0" x2="263.2" y2="40.0" stroke="rgb(0,0,0)"  stroke-width="4.0"/>
<line x1="237.4" y1="63.2" x2="261.6" y2="49.2" stroke="rgb(0,0,0)"  stroke-width="4.0"/>
<line x1="263.2" y1="40.0" x2="297.8" y2="60.0" stroke="rgb(0,0,0)"  stroke-width="4.0"/>
<line x1="297.8" y1="60.0" x2="297.8" y2="100.0" stroke="rgb(0,0,0)"  stroke-width="4.0"/>
<line x1="290.6" y1="66.0" x2="290.6" y2="94.0" stroke="rgb(0,0,0)"  stroke-width="4.0"/>
<line x1="297.8" y1="100.0" x2="263.2" y2="120.0" stroke="rgb(0,0,0)"  stroke-width="4.0"/>
<line x1="263.2" y1="120.0" x2="228.6" y2="100.0" stroke="rgb(0,0,0)"  stroke-width="4.0"/>
<line x1="261.6" y1="110.8" x2="237.4" y2="96.8" stroke="rgb(0,0,0)"  stroke-width="4.0"/>
<line x1="228.6" y1="100.0" x2="228.6" y2="60.0" stroke="rgb(0,0,0)"  stroke-width="4.0"/>
<line x1="157.4" y1="103.7" x2="145.0" y2="65.7" stroke="rgb(0,0,0)"  stroke-width="4.0"/>
<line x1="148.7" y1="100.2" x2="140.0" y2="73.6" stroke="rgb(0,0,0)"  stroke-width="4.0"/>
<line x1="145.0" y1="65.7" x2="105.9" y2="57.4" stroke="rgb(0,0,0)"  stroke-width="4.0"/>
<line x1="105.9" y1="57.4" x2="79.1" y2="87.1" stroke="rgb(0,0,0)"  stroke-width="4.0"/>
<line x1="107.2" y1="66.6" x2="88.5" y2="87.5" stroke="rgb(0,0,0)"  stroke-width="4.0"/>
<line x1="79.1" y1="87.1" x2="91.5" y2="125.1" stroke="rgb(0,0,0)"  stroke-width="4.0"/>
<line x1="91.5" y1="125.1" x2="130.6" y2="133.5" stroke="rgb(0,0,0)"  stroke-width="4.0"/>
<line x1="98.9" y1="119.3" x2="126.2" y2="125.2" stroke="rgb(0,0,0)"  stroke-width="4.0"/>
<text x="175.919530" y="48.000000" fill="rgb(0,0,0)"  stroke="rgb(0,0,0)" stroke-width="1" font-size="16" >HO</text>
<text x="326.483595" y="48.000000" fill="rgb(0,0,0)"  stroke="rgb(0,0,0)" stroke-width="1" font-size="16" >OH</text>
<text x="22.000000" y="86.781131" fill="rgb(0,0,0)"  stroke="rgb(0,0,0)" stroke-width="1" font-size="16" >HO</text>
<text x="144.612488" y="176.097343" fill="rgb(0,0,0)"  stroke="rgb(0,0,0)" stroke-width="1" font-size="16" >N</text>
<text x="144.612488" y="192.097343" fill="rgb(0,0,0)"  stroke="rgb(0,0,0)" stroke-width="1" font-size="16" >H</text>
<text x="183.738392" y="167.780876" fill="rgb(0,0,0)"  stroke="rgb(0,0,0)" stroke-width="1" font-size="16" >N</text>
<title>KN2 - OBDepict</title>
</svg>
