<?xml version="1.0"?>
<svg xmlns="http://www.w3.org/2000/svg"
xmlns:xlink="http://www.w3.org/1999/xlink" xmlns:cml="http://www.xml-cml.org/schema" width="385.804" height="317.723" x="0" y="0" font-family="sans-serif" stroke="rgb(0,0,0)" stroke-width="4"  stroke-linecap="round">
<rect x="0%" y="0%" width="100%" height="100%" stroke-width="0" fill="rgb(255,255,255)"  />
<line x1="104.8" y1="192.6" x2="78.0" y2="162.9" stroke="rgb(0,0,0)"  stroke-width="4.0"/>
<line x1="158.6" y1="137.7" x2="147.7" y2="113.1" stroke="rgb(0,0,0)"  stroke-width="4.0"/>
<line x1="241.9" y1="217.7" x2="207.2" y2="197.7" stroke="rgb(0,0,0)"  stroke-width="4.0"/>
<line x1="107.9" y1="108.9" x2="147.7" y2="113.1" stroke="rgb(0,0,0)"  stroke-width="4.0"/>
<line x1="105.1" y1="110.1" x2="88.9" y2="73.6" stroke="rgb(0,0,0)"  stroke-width="4.0"/>
<line x1="110.6" y1="107.7" x2="94.4" y2="71.1" stroke="rgb(0,0,0)"  stroke-width="4.0"/>
<line x1="91.6" y1="72.4" x2="51.8" y2="68.2" stroke="rgb(0,0,0)"  stroke-width="4.0"/>
<line x1="115.1" y1="40.0" x2="91.6" y2="72.4" stroke="rgb(0,0,0)"  stroke-width="4.0"/>
<line x1="241.9" y1="257.7" x2="218.5" y2="271.2" stroke="rgb(0,0,0)"  stroke-width="4.0"/>
<line x1="334.5" y1="271.2" x2="311.2" y2="257.7" stroke="rgb(0,0,0)"  stroke-width="4.0"/>
<line x1="78.0" y1="162.9" x2="52.4" y2="154.5" stroke="rgb(0,0,0)"  stroke-width="4.0"/>
<line x1="78.0" y1="162.9" x2="58.0" y2="180.9" stroke="rgb(0,0,0)"  stroke-width="4.0"/>
<line x1="86.4" y1="137.2" x2="78.0" y2="162.9" stroke="rgb(0,0,0)"  stroke-width="4.0"/>
<line x1="207.2" y1="197.7" x2="170.7" y2="214.0" stroke="rgb(0,0,0)"  stroke-width="4.0"/>
<line x1="170.7" y1="214.0" x2="143.9" y2="184.3" stroke="rgb(0,0,0)"  stroke-width="4.0"/>
<line x1="172.0" y1="204.7" x2="153.3" y2="183.9" stroke="rgb(0,0,0)"  stroke-width="4.0"/>
<line x1="143.9" y1="184.3" x2="157.4" y2="160.9" stroke="rgb(0,0,0)"  stroke-width="4.0"/>
<line x1="176.6" y1="152.3" x2="190.3" y2="155.2" stroke="rgb(0,0,0)"  stroke-width="4.0"/>
<line x1="204.4" y1="171.1" x2="207.2" y2="197.7" stroke="rgb(0,0,0)"  stroke-width="4.0"/>
<line x1="197.5" y1="173.8" x2="199.5" y2="192.5" stroke="rgb(0,0,0)"  stroke-width="4.0"/>
<line x1="92.4" y1="230.6" x2="119.2" y2="260.4" stroke="rgb(0,0,0)"  stroke-width="4.0"/>
<line x1="119.2" y1="260.4" x2="158.3" y2="252.0" stroke="rgb(0,0,0)"  stroke-width="4.0"/>
<line x1="123.6" y1="252.1" x2="151.0" y2="246.2" stroke="rgb(0,0,0)"  stroke-width="4.0"/>
<line x1="158.3" y1="252.0" x2="170.7" y2="214.0" stroke="rgb(0,0,0)"  stroke-width="4.0"/>
<line x1="143.9" y1="184.3" x2="104.8" y2="192.6" stroke="rgb(0,0,0)"  stroke-width="4.0"/>
<line x1="104.8" y1="192.6" x2="92.4" y2="230.6" stroke="rgb(0,0,0)"  stroke-width="4.0"/>
<line x1="109.8" y1="200.5" x2="101.1" y2="227.1" stroke="rgb(0,0,0)"  stroke-width="4.0"/>
<line x1="241.9" y1="217.7" x2="276.5" y2="197.7" stroke="rgb(0,0,0)"  stroke-width="4.0"/>
<line x1="250.7" y1="221.0" x2="274.9" y2="207.0" stroke="rgb(0,0,0)"  stroke-width="4.0"/>
<line x1="276.5" y1="197.7" x2="311.2" y2="217.7" stroke="rgb(0,0,0)"  stroke-width="4.0"/>
<line x1="311.2" y1="217.7" x2="311.2" y2="257.7" stroke="rgb(0,0,0)"  stroke-width="4.0"/>
<line x1="304.0" y1="223.7" x2="304.0" y2="251.7" stroke="rgb(0,0,0)"  stroke-width="4.0"/>
<line x1="311.2" y1="257.7" x2="276.5" y2="277.7" stroke="rgb(0,0,0)"  stroke-width="4.0"/>
<line x1="276.5" y1="277.7" x2="241.9" y2="257.7" stroke="rgb(0,0,0)"  stroke-width="4.0"/>
<line x1="274.9" y1="268.5" x2="250.7" y2="254.5" stroke="rgb(0,0,0)"  stroke-width="4.0"/>
<line x1="241.9" y1="257.7" x2="241.9" y2="217.7" stroke="rgb(0,0,0)"  stroke-width="4.0"/>
<text x="197.059293" y="165.941923" fill="rgb(0,0,0)"  stroke="rgb(0,0,0)" stroke-width="1" font-size="16" >N</text>
<text x="157.933389" y="157.625455" fill="rgb(0,0,0)"  stroke="rgb(0,0,0)" stroke-width="1" font-size="16" >N</text>
<text x="189.240431" y="285.722798" fill="rgb(0,0,0)"  stroke="rgb(0,0,0)" stroke-width="1" font-size="16" >HO</text>
<text x="339.804496" y="285.722798" fill="rgb(0,0,0)"  stroke="rgb(0,0,0)" stroke-width="1" font-size="16" >OH</text>
<text x="42.316468" y="197.622370" fill="rgb(0,0,0)"  stroke="rgb(0,0,0)" stroke-width="1" font-size="16" >F</text>
<text x="84.402940" y="132.814885" fill="rgb(0,0,0)"  stroke="rgb(0,0,0)" stroke-width="1" font-size="16" >F</text>
<text x="34.000000" y="158.496466" fill="rgb(0,0,0)"  stroke="rgb(0,0,0)" stroke-width="1" font-size="16" >F</text>
<title>KN3 - OBDepict</title>
</svg>
