<?xml version="1.0"?>
<svg xmlns="http://www.w3.org/2000/svg"
xmlns:xlink="http://www.w3.org/1999/xlink" xmlns:cml="http://www.xml-cml.org/schema" width="501.051" height="460" x="0" y="0" font-family="sans-serif" stroke="rgb(0,0,0)" stroke-width="4"  stroke-linecap="round">
<rect x="0%" y="0%" width="100%" height="100%" stroke-width="0" fill="rgb(255,255,255)"  />
<line x1="421.1" y1="200.0" x2="421.1" y2="240.0" stroke="rgb(0,0,0)"  stroke-width="4.0"/>
<line x1="421.1" y1="120.0" x2="421.1" y2="93.0" stroke="rgb(0,0,0)"  stroke-width="4.0"/>
<line x1="247.8" y1="300.0" x2="224.5" y2="313.5" stroke="rgb(0,0,0)"  stroke-width="4.0"/>
<line x1="386.4" y1="260.0" x2="363.0" y2="246.5" stroke="rgb(0,0,0)"  stroke-width="4.0"/>
<line x1="340.5" y1="246.5" x2="317.1" y2="260.0" stroke="rgb(0,0,0)"  stroke-width="4.0"/>
<line x1="386.4" y1="380.0" x2="386.4" y2="407.0" stroke="rgb(0,0,0)"  stroke-width="4.0"/>
<line x1="434.1" y1="80.0" x2="461.1" y2="80.0" stroke="rgb(0,0,0)"  stroke-width="4.0"/>
<line x1="418.1" y1="67.0" x2="418.1" y2="53.0" stroke="rgb(0,0,0)"  stroke-width="4.0"/>
<line x1="424.1" y1="67.0" x2="424.1" y2="53.0" stroke="rgb(0,0,0)"  stroke-width="4.0"/>
<line x1="408.1" y1="83.0" x2="394.1" y2="83.0" stroke="rgb(0,0,0)"  stroke-width="4.0"/>
<line x1="408.1" y1="77.0" x2="394.1" y2="77.0" stroke="rgb(0,0,0)"  stroke-width="4.0"/>
<line x1="201.9" y1="313.5" x2="178.6" y2="300.0" stroke="rgb(0,0,0)"  stroke-width="4.0"/>
<line x1="178.6" y1="300.0" x2="143.9" y2="320.0" stroke="rgb(0,0,0)"  stroke-width="4.0"/>
<line x1="143.9" y1="320.0" x2="120.5" y2="306.5" stroke="rgb(0,0,0)"  stroke-width="4.0"/>
<line x1="455.7" y1="260.0" x2="455.7" y2="300.0" stroke="rgb(0,0,0)"  stroke-width="4.0"/>
<line x1="448.5" y1="266.0" x2="448.5" y2="294.0" stroke="rgb(0,0,0)"  stroke-width="4.0"/>
<line x1="455.7" y1="300.0" x2="421.1" y2="320.0" stroke="rgb(0,0,0)"  stroke-width="4.0"/>
<line x1="421.1" y1="320.0" x2="386.4" y2="300.0" stroke="rgb(0,0,0)"  stroke-width="4.0"/>
<line x1="386.4" y1="300.0" x2="386.4" y2="260.0" stroke="rgb(0,0,0)"  stroke-width="4.0"/>
<line x1="386.4" y1="260.0" x2="421.1" y2="240.0" stroke="rgb(0,0,0)"  stroke-width="4.0"/>
<line x1="395.2" y1="263.2" x2="419.5" y2="249.2" stroke="rgb(0,0,0)"  stroke-width="4.0"/>
<line x1="421.1" y1="240.0" x2="455.7" y2="260.0" stroke="rgb(0,0,0)"  stroke-width="4.0"/>
<line x1="351.8" y1="320.0" x2="351.8" y2="360.0" stroke="rgb(0,0,0)"  stroke-width="4.0"/>
<line x1="351.8" y1="360.0" x2="386.4" y2="380.0" stroke="rgb(0,0,0)"  stroke-width="4.0"/>
<line x1="360.6" y1="356.8" x2="384.8" y2="370.8" stroke="rgb(0,0,0)"  stroke-width="4.0"/>
<line x1="386.4" y1="380.0" x2="421.1" y2="360.0" stroke="rgb(0,0,0)"  stroke-width="4.0"/>
<line x1="421.1" y1="360.0" x2="421.1" y2="320.0" stroke="rgb(0,0,0)"  stroke-width="4.0"/>
<line x1="413.9" y1="354.0" x2="413.9" y2="326.0" stroke="rgb(0,0,0)"  stroke-width="4.0"/>
<line x1="386.4" y1="300.0" x2="351.8" y2="320.0" stroke="rgb(0,0,0)"  stroke-width="4.0"/>
<line x1="384.8" y1="309.2" x2="360.6" y2="323.2" stroke="rgb(0,0,0)"  stroke-width="4.0"/>
<line x1="317.1" y1="300.0" x2="317.1" y2="260.0" stroke="rgb(0,0,0)"  stroke-width="4.0"/>
<line x1="317.1" y1="260.0" x2="282.5" y2="240.0" stroke="rgb(0,0,0)"  stroke-width="4.0"/>
<line x1="308.3" y1="263.2" x2="284.1" y2="249.2" stroke="rgb(0,0,0)"  stroke-width="4.0"/>
<line x1="282.5" y1="240.0" x2="247.8" y2="260.0" stroke="rgb(0,0,0)"  stroke-width="4.0"/>
<line x1="247.8" y1="260.0" x2="247.8" y2="300.0" stroke="rgb(0,0,0)"  stroke-width="4.0"/>
<line x1="255.0" y1="266.0" x2="255.0" y2="294.0" stroke="rgb(0,0,0)"  stroke-width="4.0"/>
<line x1="247.8" y1="300.0" x2="282.5" y2="320.0" stroke="rgb(0,0,0)"  stroke-width="4.0"/>
<line x1="282.5" y1="320.0" x2="317.1" y2="300.0" stroke="rgb(0,0,0)"  stroke-width="4.0"/>
<line x1="284.1" y1="310.8" x2="308.3" y2="296.8" stroke="rgb(0,0,0)"  stroke-width="4.0"/>
<line x1="421.1" y1="200.0" x2="386.4" y2="180.0" stroke="rgb(0,0,0)"  stroke-width="4.0"/>
<line x1="386.4" y1="180.0" x2="386.4" y2="140.0" stroke="rgb(0,0,0)"  stroke-width="4.0"/>
<line x1="393.6" y1="174.0" x2="393.6" y2="146.0" stroke="rgb(0,0,0)"  stroke-width="4.0"/>
<line x1="386.4" y1="140.0" x2="421.1" y2="120.0" stroke="rgb(0,0,0)"  stroke-width="4.0"/>
<line x1="421.1" y1="120.0" x2="455.7" y2="140.0" stroke="rgb(0,0,0)"  stroke-width="4.0"/>
<line x1="422.6" y1="129.2" x2="446.9" y2="143.2" stroke="rgb(0,0,0)"  stroke-width="4.0"/>
<line x1="455.7" y1="140.0" x2="455.7" y2="180.0" stroke="rgb(0,0,0)"  stroke-width="4.0"/>
<line x1="455.7" y1="180.0" x2="421.1" y2="200.0" stroke="rgb(0,0,0)"  stroke-width="4.0"/>
<line x1="446.9" y1="176.8" x2="422.6" y2="190.8" stroke="rgb(0,0,0)"  stroke-width="4.0"/>
<line x1="109.3" y1="287.0" x2="109.3" y2="260.0" stroke="rgb(0,0,0)"  stroke-width="4.0"/>
<line x1="109.3" y1="260.0" x2="74.6" y2="240.0" stroke="rgb(0,0,0)"  stroke-width="4.0"/>
<line x1="74.6" y1="240.0" x2="40.0" y2="260.0" stroke="rgb(0,0,0)"  stroke-width="4.0"/>
<line x1="40.0" y1="260.0" x2="40.0" y2="300.0" stroke="rgb(0,0,0)"  stroke-width="4.0"/>
<line x1="40.0" y1="300.0" x2="74.6" y2="320.0" stroke="rgb(0,0,0)"  stroke-width="4.0"/>
<line x1="74.6" y1="320.0" x2="98.0" y2="306.5" stroke="rgb(0,0,0)"  stroke-width="4.0"/>
<text x="345.769145" y="248.000000" fill="rgb(0,0,0)"  stroke="rgb(0,0,0)" stroke-width="1" font-size="16" >O</text>
<text x="380.410162" y="428.000000" fill="rgb(0,0,0)"  stroke="rgb(0,0,0)" stroke-width="1" font-size="16" >OH</text>
<text x="415.051178" y="88.000000" fill="rgb(0,0,0)"  stroke="rgb(0,0,0)" stroke-width="1" font-size="16" >S</text>
<text x="207.205081" y="328.000000" fill="rgb(0,0,0)"  stroke="rgb(0,0,0)" stroke-width="1" font-size="16" >O</text>
<text x="415.051178" y="48.000000" fill="rgb(0,0,0)"  stroke="rgb(0,0,0)" stroke-width="1" font-size="16" >O</text>
<text x="375.051178" y="88.000000" fill="rgb(0,0,0)"  stroke="rgb(0,0,0)" stroke-width="1" font-size="16" >O</text>
<text x="103.282032" y="308.000000" fill="rgb(0,0,0)"  stroke="rgb(0,0,0)" stroke-width="1" font-size="16" >N</text>
<title>L4G - OBDepict</title>
</svg>
