<?xml version="1.0"?>
<svg xmlns="http://www.w3.org/2000/svg"
xmlns:xlink="http://www.w3.org/1999/xlink" xmlns:cml="http://www.xml-cml.org/schema" width="517.627" height="406.681" x="0" y="0" font-family="sans-serif" stroke="rgb(0,0,0)" stroke-width="4"  stroke-linecap="round">
<rect x="0%" y="0%" width="100%" height="100%" stroke-width="0" fill="rgb(255,255,255)"  />
<line x1="351.8" y1="192.8" x2="317.1" y2="212.8" stroke="rgb(0,0,0)"  stroke-width="4.0"/>
<line x1="247.8" y1="252.8" x2="224.5" y2="266.3" stroke="rgb(0,0,0)"  stroke-width="4.0"/>
<line x1="178.6" y1="252.8" x2="178.6" y2="212.8" stroke="rgb(0,0,0)"  stroke-width="4.0"/>
<line x1="354.8" y1="165.8" x2="354.8" y2="192.8" stroke="rgb(0,0,0)"  stroke-width="4.0"/>
<line x1="348.8" y1="165.8" x2="348.8" y2="192.8" stroke="rgb(0,0,0)"  stroke-width="4.0"/>
<line x1="386.4" y1="212.8" x2="351.8" y2="192.8" stroke="rgb(0,0,0)"  stroke-width="4.0"/>
<line x1="431.3" y1="157.4" x2="423.0" y2="196.5" stroke="rgb(0,0,0)"  stroke-width="4.0"/>
<line x1="453.5" y1="52.7" x2="447.9" y2="79.1" stroke="rgb(0,0,0)"  stroke-width="4.0"/>
<line x1="415.3" y1="328.6" x2="423.7" y2="354.3" stroke="rgb(0,0,0)"  stroke-width="4.0"/>
<line x1="201.9" y1="266.3" x2="178.6" y2="252.8" stroke="rgb(0,0,0)"  stroke-width="4.0"/>
<line x1="178.6" y1="212.8" x2="155.2" y2="199.3" stroke="rgb(0,0,0)"  stroke-width="4.0"/>
<line x1="74.6" y1="152.8" x2="40.0" y2="132.8" stroke="rgb(0,0,0)"  stroke-width="4.0"/>
<line x1="390.6" y1="252.6" x2="429.7" y2="260.9" stroke="rgb(0,0,0)"  stroke-width="4.0"/>
<line x1="429.7" y1="260.9" x2="443.2" y2="237.5" stroke="rgb(0,0,0)"  stroke-width="4.0"/>
<line x1="441.0" y1="216.6" x2="423.0" y2="196.5" stroke="rgb(0,0,0)"  stroke-width="4.0"/>
<line x1="423.0" y1="196.5" x2="386.4" y2="212.8" stroke="rgb(0,0,0)"  stroke-width="4.0"/>
<line x1="420.4" y1="205.5" x2="394.8" y2="216.9" stroke="rgb(0,0,0)"  stroke-width="4.0"/>
<line x1="386.4" y1="212.8" x2="390.6" y2="252.6" stroke="rgb(0,0,0)"  stroke-width="4.0"/>
<line x1="431.3" y1="157.4" x2="469.3" y2="145.0" stroke="rgb(0,0,0)"  stroke-width="4.0"/>
<line x1="469.3" y1="145.0" x2="477.6" y2="105.9" stroke="rgb(0,0,0)"  stroke-width="4.0"/>
<line x1="463.5" y1="137.7" x2="469.3" y2="110.3" stroke="rgb(0,0,0)"  stroke-width="4.0"/>
<line x1="477.6" y1="105.9" x2="447.9" y2="79.1" stroke="rgb(0,0,0)"  stroke-width="4.0"/>
<line x1="447.9" y1="79.1" x2="409.9" y2="91.5" stroke="rgb(0,0,0)"  stroke-width="4.0"/>
<line x1="444.4" y1="87.8" x2="417.8" y2="96.5" stroke="rgb(0,0,0)"  stroke-width="4.0"/>
<line x1="409.9" y1="91.5" x2="401.5" y2="130.6" stroke="rgb(0,0,0)"  stroke-width="4.0"/>
<line x1="401.5" y1="130.6" x2="431.3" y2="157.4" stroke="rgb(0,0,0)"  stroke-width="4.0"/>
<line x1="410.8" y1="129.3" x2="431.6" y2="148.0" stroke="rgb(0,0,0)"  stroke-width="4.0"/>
<line x1="415.3" y1="328.6" x2="442.1" y2="298.9" stroke="rgb(0,0,0)"  stroke-width="4.0"/>
<line x1="442.1" y1="298.9" x2="429.7" y2="260.9" stroke="rgb(0,0,0)"  stroke-width="4.0"/>
<line x1="433.4" y1="295.4" x2="424.7" y2="268.8" stroke="rgb(0,0,0)"  stroke-width="4.0"/>
<line x1="390.6" y1="252.6" x2="363.8" y2="282.3" stroke="rgb(0,0,0)"  stroke-width="4.0"/>
<line x1="391.9" y1="261.8" x2="373.2" y2="282.6" stroke="rgb(0,0,0)"  stroke-width="4.0"/>
<line x1="363.8" y1="282.3" x2="376.2" y2="320.3" stroke="rgb(0,0,0)"  stroke-width="4.0"/>
<line x1="376.2" y1="320.3" x2="415.3" y2="328.6" stroke="rgb(0,0,0)"  stroke-width="4.0"/>
<line x1="383.6" y1="314.5" x2="410.9" y2="320.3" stroke="rgb(0,0,0)"  stroke-width="4.0"/>
<line x1="247.8" y1="212.8" x2="282.5" y2="192.8" stroke="rgb(0,0,0)"  stroke-width="4.0"/>
<line x1="282.5" y1="192.8" x2="317.1" y2="212.8" stroke="rgb(0,0,0)"  stroke-width="4.0"/>
<line x1="284.1" y1="202.0" x2="308.3" y2="216.0" stroke="rgb(0,0,0)"  stroke-width="4.0"/>
<line x1="317.1" y1="212.8" x2="317.1" y2="252.8" stroke="rgb(0,0,0)"  stroke-width="4.0"/>
<line x1="317.1" y1="252.8" x2="282.5" y2="272.8" stroke="rgb(0,0,0)"  stroke-width="4.0"/>
<line x1="308.3" y1="249.5" x2="284.1" y2="263.5" stroke="rgb(0,0,0)"  stroke-width="4.0"/>
<line x1="282.5" y1="272.8" x2="247.8" y2="252.8" stroke="rgb(0,0,0)"  stroke-width="4.0"/>
<line x1="247.8" y1="252.8" x2="247.8" y2="212.8" stroke="rgb(0,0,0)"  stroke-width="4.0"/>
<line x1="255.0" y1="246.8" x2="255.0" y2="218.8" stroke="rgb(0,0,0)"  stroke-width="4.0"/>
<line x1="143.9" y1="179.8" x2="143.9" y2="152.8" stroke="rgb(0,0,0)"  stroke-width="4.0"/>
<line x1="143.9" y1="152.8" x2="109.3" y2="132.8" stroke="rgb(0,0,0)"  stroke-width="4.0"/>
<line x1="109.3" y1="132.8" x2="74.6" y2="152.8" stroke="rgb(0,0,0)"  stroke-width="4.0"/>
<line x1="74.6" y1="152.8" x2="74.6" y2="192.8" stroke="rgb(0,0,0)"  stroke-width="4.0"/>
<line x1="74.6" y1="192.8" x2="109.3" y2="212.8" stroke="rgb(0,0,0)"  stroke-width="4.0"/>
<line x1="109.3" y1="212.8" x2="132.7" y2="199.3" stroke="rgb(0,0,0)"  stroke-width="4.0"/>
<text x="345.769145" y="160.773082" fill="rgb(0,0,0)"  stroke="rgb(0,0,0)" stroke-width="1" font-size="16" >O</text>
<text x="450.217850" y="48.000000" fill="rgb(0,0,0)"  stroke="rgb(0,0,0)" stroke-width="1" font-size="16" >OH</text>
<text x="443.717204" y="234.229409" fill="rgb(0,0,0)"  stroke="rgb(0,0,0)" stroke-width="1" font-size="16" >S</text>
<text x="421.673339" y="374.680740" fill="rgb(0,0,0)"  stroke="rgb(0,0,0)" stroke-width="1" font-size="16" >OH</text>
<text x="207.205081" y="280.773082" fill="rgb(0,0,0)"  stroke="rgb(0,0,0)" stroke-width="1" font-size="16" >O</text>
<text x="137.923048" y="200.773082" fill="rgb(0,0,0)"  stroke="rgb(0,0,0)" stroke-width="1" font-size="16" >N</text>
<title>LLB - OBDepict</title>
</svg>
