<?xml version="1.0"?>
<svg xmlns="http://www.w3.org/2000/svg"
xmlns:xlink="http://www.w3.org/1999/xlink" xmlns:cml="http://www.xml-cml.org/schema" width="480.27" height="392.206" x="0" y="0" font-family="sans-serif" stroke="rgb(0,0,0)" stroke-width="4"  stroke-linecap="round">
<rect x="0%" y="0%" width="100%" height="100%" stroke-width="0" fill="rgb(255,255,255)"  />
<line x1="420.3" y1="307.2" x2="433.8" y2="330.6" stroke="rgb(0,0,0)"  stroke-width="4.0"/>
<line x1="254.6" y1="220.5" x2="293.7" y2="228.9" stroke="rgb(0,0,0)"  stroke-width="4.0"/>
<line x1="122.8" y1="263.4" x2="110.5" y2="225.3" stroke="rgb(0,0,0)"  stroke-width="4.0"/>
<line x1="293.7" y1="228.9" x2="320.5" y2="199.1" stroke="rgb(0,0,0)"  stroke-width="4.0"/>
<line x1="296.6" y1="227.9" x2="304.9" y2="253.6" stroke="rgb(0,0,0)"  stroke-width="4.0"/>
<line x1="290.9" y1="229.8" x2="299.2" y2="255.5" stroke="rgb(0,0,0)"  stroke-width="4.0"/>
<line x1="149.9" y1="198.3" x2="176.3" y2="203.9" stroke="rgb(0,0,0)"  stroke-width="4.0"/>
<line x1="110.5" y1="225.3" x2="128.5" y2="205.2" stroke="rgb(0,0,0)"  stroke-width="4.0"/>
<line x1="104.7" y1="283.4" x2="122.8" y2="263.4" stroke="rgb(0,0,0)"  stroke-width="4.0"/>
<line x1="312.2" y1="53.0" x2="312.2" y2="80.0" stroke="rgb(0,0,0)"  stroke-width="4.0"/>
<line x1="360.3" y1="203.3" x2="380.3" y2="237.9" stroke="rgb(0,0,0)"  stroke-width="4.0"/>
<line x1="56.3" y1="288.9" x2="40.0" y2="325.4" stroke="rgb(0,0,0)"  stroke-width="4.0"/>
<line x1="40.0" y1="325.4" x2="69.7" y2="352.2" stroke="rgb(0,0,0)"  stroke-width="4.0"/>
<line x1="69.7" y1="352.2" x2="104.4" y2="332.2" stroke="rgb(0,0,0)"  stroke-width="4.0"/>
<line x1="104.4" y1="332.2" x2="98.8" y2="305.8" stroke="rgb(0,0,0)"  stroke-width="4.0"/>
<line x1="83.1" y1="291.7" x2="56.3" y2="288.9" stroke="rgb(0,0,0)"  stroke-width="4.0"/>
<line x1="320.5" y1="199.1" x2="312.2" y2="160.0" stroke="rgb(0,0,0)"  stroke-width="4.0"/>
<line x1="312.2" y1="160.0" x2="346.8" y2="140.0" stroke="rgb(0,0,0)"  stroke-width="4.0"/>
<line x1="321.0" y1="163.2" x2="345.2" y2="149.2" stroke="rgb(0,0,0)"  stroke-width="4.0"/>
<line x1="346.8" y1="140.0" x2="366.9" y2="158.1" stroke="rgb(0,0,0)"  stroke-width="4.0"/>
<line x1="371.3" y1="178.6" x2="360.3" y2="203.3" stroke="rgb(0,0,0)"  stroke-width="4.0"/>
<line x1="360.3" y1="203.3" x2="320.5" y2="199.1" stroke="rgb(0,0,0)"  stroke-width="4.0"/>
<line x1="355.1" y1="195.5" x2="327.2" y2="192.6" stroke="rgb(0,0,0)"  stroke-width="4.0"/>
<line x1="254.6" y1="220.5" x2="242.2" y2="182.5" stroke="rgb(0,0,0)"  stroke-width="4.0"/>
<line x1="245.9" y1="217.1" x2="237.2" y2="190.4" stroke="rgb(0,0,0)"  stroke-width="4.0"/>
<line x1="242.2" y1="182.5" x2="203.1" y2="174.2" stroke="rgb(0,0,0)"  stroke-width="4.0"/>
<line x1="203.1" y1="174.2" x2="176.3" y2="203.9" stroke="rgb(0,0,0)"  stroke-width="4.0"/>
<line x1="204.4" y1="183.5" x2="185.7" y2="204.3" stroke="rgb(0,0,0)"  stroke-width="4.0"/>
<line x1="176.3" y1="203.9" x2="188.7" y2="241.9" stroke="rgb(0,0,0)"  stroke-width="4.0"/>
<line x1="188.7" y1="241.9" x2="227.8" y2="250.3" stroke="rgb(0,0,0)"  stroke-width="4.0"/>
<line x1="196.1" y1="236.1" x2="223.5" y2="242.0" stroke="rgb(0,0,0)"  stroke-width="4.0"/>
<line x1="227.8" y1="250.3" x2="254.6" y2="220.5" stroke="rgb(0,0,0)"  stroke-width="4.0"/>
<line x1="277.5" y1="140.0" x2="312.2" y2="160.0" stroke="rgb(0,0,0)"  stroke-width="4.0"/>
<line x1="346.8" y1="140.0" x2="346.8" y2="100.0" stroke="rgb(0,0,0)"  stroke-width="4.0"/>
<line x1="346.8" y1="100.0" x2="312.2" y2="80.0" stroke="rgb(0,0,0)"  stroke-width="4.0"/>
<line x1="338.0" y1="103.2" x2="313.8" y2="89.2" stroke="rgb(0,0,0)"  stroke-width="4.0"/>
<line x1="312.2" y1="80.0" x2="277.5" y2="100.0" stroke="rgb(0,0,0)"  stroke-width="4.0"/>
<line x1="277.5" y1="100.0" x2="277.5" y2="140.0" stroke="rgb(0,0,0)"  stroke-width="4.0"/>
<line x1="284.7" y1="106.0" x2="284.7" y2="134.0" stroke="rgb(0,0,0)"  stroke-width="4.0"/>
<line x1="360.3" y1="272.6" x2="380.3" y2="237.9" stroke="rgb(0,0,0)"  stroke-width="4.0"/>
<line x1="369.5" y1="271.0" x2="383.5" y2="246.7" stroke="rgb(0,0,0)"  stroke-width="4.0"/>
<line x1="380.3" y1="237.9" x2="420.3" y2="237.9" stroke="rgb(0,0,0)"  stroke-width="4.0"/>
<line x1="420.3" y1="237.9" x2="440.3" y2="272.6" stroke="rgb(0,0,0)"  stroke-width="4.0"/>
<line x1="417.0" y1="246.7" x2="431.0" y2="271.0" stroke="rgb(0,0,0)"  stroke-width="4.0"/>
<line x1="440.3" y1="272.6" x2="420.3" y2="307.2" stroke="rgb(0,0,0)"  stroke-width="4.0"/>
<line x1="420.3" y1="307.2" x2="380.3" y2="307.2" stroke="rgb(0,0,0)"  stroke-width="4.0"/>
<line x1="414.3" y1="300.0" x2="386.3" y2="300.0" stroke="rgb(0,0,0)"  stroke-width="4.0"/>
<line x1="380.3" y1="307.2" x2="360.3" y2="272.6" stroke="rgb(0,0,0)"  stroke-width="4.0"/>
<text x="300.084406" y="274.893958" fill="rgb(0,0,0)"  stroke="rgb(0,0,0)" stroke-width="1" font-size="16" >O</text>
<text x="131.220110" y="203.585827" fill="rgb(0,0,0)"  stroke="rgb(0,0,0)" stroke-width="1" font-size="16" >O</text>
<text x="90.050342" y="301.079673" fill="rgb(0,0,0)"  stroke="rgb(0,0,0)" stroke-width="1" font-size="16" >N</text>
<text x="306.172483" y="48.000000" fill="rgb(0,0,0)"  stroke="rgb(0,0,0)" stroke-width="1" font-size="16" >OH</text>
<text x="370.539292" y="174.765224" fill="rgb(0,0,0)"  stroke="rgb(0,0,0)" stroke-width="1" font-size="16" >S</text>
<text x="434.269826" y="349.871107" fill="rgb(0,0,0)"  stroke="rgb(0,0,0)" stroke-width="1" font-size="16" >OH</text>
<title>LLC - OBDepict</title>
</svg>
