<?xml version="1.0"?>
<svg xmlns="http://www.w3.org/2000/svg"
xmlns:xlink="http://www.w3.org/1999/xlink" xmlns:cml="http://www.xml-cml.org/schema" width="354.759" height="220" x="0" y="0" font-family="sans-serif" stroke="rgb(0,0,0)" stroke-width="4"  stroke-linecap="round">
<rect x="0%" y="0%" width="100%" height="100%" stroke-width="0" fill="rgb(255,255,255)"  />
<line x1="301.8" y1="80.0" x2="274.8" y2="80.0" stroke="rgb(0,0,0)"  stroke-width="4.0"/>
<line x1="255.3" y1="124.7" x2="263.6" y2="150.4" stroke="rgb(0,0,0)"  stroke-width="4.0"/>
<line x1="143.9" y1="100.0" x2="109.3" y2="120.0" stroke="rgb(0,0,0)"  stroke-width="4.0"/>
<line x1="274.8" y1="80.0" x2="258.9" y2="101.8" stroke="rgb(0,0,0)"  stroke-width="4.0"/>
<line x1="238.9" y1="108.3" x2="213.2" y2="100.0" stroke="rgb(0,0,0)"  stroke-width="4.0"/>
<line x1="213.2" y1="100.0" x2="213.2" y2="60.0" stroke="rgb(0,0,0)"  stroke-width="4.0"/>
<line x1="213.2" y1="60.0" x2="238.9" y2="51.7" stroke="rgb(0,0,0)"  stroke-width="4.0"/>
<line x1="259.0" y1="58.3" x2="274.8" y2="80.0" stroke="rgb(0,0,0)"  stroke-width="4.0"/>
<line x1="254.4" y1="64.2" x2="265.4" y2="79.4" stroke="rgb(0,0,0)"  stroke-width="4.0"/>
<line x1="178.6" y1="120.0" x2="213.2" y2="100.0" stroke="rgb(0,0,0)"  stroke-width="4.0"/>
<line x1="180.2" y1="110.8" x2="204.4" y2="96.8" stroke="rgb(0,0,0)"  stroke-width="4.0"/>
<line x1="213.2" y1="60.0" x2="190.0" y2="46.6" stroke="rgb(0,0,0)"  stroke-width="4.0"/>
<line x1="204.4" y1="63.2" x2="188.1" y2="53.8" stroke="rgb(0,0,0)"  stroke-width="4.0"/>
<line x1="167.3" y1="46.5" x2="143.9" y2="60.0" stroke="rgb(0,0,0)"  stroke-width="4.0"/>
<line x1="143.9" y1="60.0" x2="143.9" y2="100.0" stroke="rgb(0,0,0)"  stroke-width="4.0"/>
<line x1="151.1" y1="66.0" x2="151.1" y2="94.0" stroke="rgb(0,0,0)"  stroke-width="4.0"/>
<line x1="143.9" y1="100.0" x2="178.6" y2="120.0" stroke="rgb(0,0,0)"  stroke-width="4.0"/>
<line x1="109.3" y1="120.0" x2="109.3" y2="160.0" stroke="rgb(0,0,0)"  stroke-width="4.0"/>
<line x1="109.3" y1="160.0" x2="74.6" y2="180.0" stroke="rgb(0,0,0)"  stroke-width="4.0"/>
<line x1="100.5" y1="156.8" x2="76.2" y2="170.8" stroke="rgb(0,0,0)"  stroke-width="4.0"/>
<line x1="74.6" y1="180.0" x2="40.0" y2="160.0" stroke="rgb(0,0,0)"  stroke-width="4.0"/>
<line x1="40.0" y1="160.0" x2="40.0" y2="120.0" stroke="rgb(0,0,0)"  stroke-width="4.0"/>
<line x1="47.2" y1="154.0" x2="47.2" y2="126.0" stroke="rgb(0,0,0)"  stroke-width="4.0"/>
<line x1="40.0" y1="120.0" x2="74.6" y2="100.0" stroke="rgb(0,0,0)"  stroke-width="4.0"/>
<line x1="74.6" y1="100.0" x2="109.3" y2="120.0" stroke="rgb(0,0,0)"  stroke-width="4.0"/>
<line x1="76.2" y1="109.2" x2="100.5" y2="123.2" stroke="rgb(0,0,0)"  stroke-width="4.0"/>
<text x="310.758752" y="88.000000" fill="rgb(0,0,0)"  stroke="rgb(0,0,0)" stroke-width="1" font-size="16" >NH</text>
<text x="334.758752" y="91.680000" fill="rgb(0,0,0)"  stroke="rgb(0,0,0)" stroke-width="1" font-size="13" >2</text>
<text x="245.247341" y="120.360680" fill="rgb(0,0,0)"  stroke="rgb(0,0,0)" stroke-width="1" font-size="16" >N</text>
<text x="245.247341" y="55.639320" fill="rgb(0,0,0)"  stroke="rgb(0,0,0)" stroke-width="1" font-size="16" >N</text>
<text x="172.564065" y="48.000000" fill="rgb(0,0,0)"  stroke="rgb(0,0,0)" stroke-width="1" font-size="16" >N</text>
<title>PIQ - OBDepict</title>
</svg>
