<?xml version="1.0"?>
<svg xmlns="http://www.w3.org/2000/svg"
xmlns:xlink="http://www.w3.org/1999/xlink" xmlns:cml="http://www.xml-cml.org/schema" width="426.41" height="380" x="0" y="0" font-family="sans-serif" stroke="rgb(0,0,0)" stroke-width="4"  stroke-linecap="round">
<rect x="0%" y="0%" width="100%" height="100%" stroke-width="0" fill="rgb(255,255,255)"  />
<line x1="120.5" y1="206.5" x2="143.9" y2="220.0" stroke="rgb(0,0,0)"  stroke-width="4.0"/>
<line x1="143.9" y1="220.0" x2="143.9" y2="260.0" stroke="rgb(0,0,0)"  stroke-width="4.0"/>
<line x1="143.9" y1="260.0" x2="167.3" y2="273.5" stroke="rgb(0,0,0)"  stroke-width="4.0"/>
<line x1="189.8" y1="273.5" x2="213.2" y2="260.0" stroke="rgb(0,0,0)"  stroke-width="4.0"/>
<line x1="310.6" y1="204.7" x2="309.8" y2="203.3" stroke="rgb(0,0,0)"  stroke-width="4.0"/>
<line x1="305.4" y1="208.4" x2="303.9" y2="206.0" stroke="rgb(0,0,0)"  stroke-width="4.0"/>
<line x1="300.2" y1="212.2" x2="298.1" y2="208.6" stroke="rgb(0,0,0)"  stroke-width="4.0"/>
<line x1="294.9" y1="216.0" x2="292.2" y2="211.2" stroke="rgb(0,0,0)"  stroke-width="4.0"/>
<line x1="289.7" y1="219.7" x2="286.3" y2="213.9" stroke="rgb(0,0,0)"  stroke-width="4.0"/>
<line x1="284.5" y1="223.5" x2="280.5" y2="216.5" stroke="rgb(0,0,0)"  stroke-width="4.0"/>
<line x1="351.8" y1="233.0" x2="351.8" y2="260.0" stroke="rgb(0,0,0)"  stroke-width="4.0"/>
<line x1="317.1" y1="80.0" x2="317.1" y2="53.0" stroke="rgb(0,0,0)"  stroke-width="4.0"/>
<line x1="74.6" y1="220.0" x2="40.0" y2="200.0" stroke="rgb(0,0,0)"  stroke-width="4.0"/>
<line x1="40.0" y1="200.0" x2="40.0" y2="160.0" stroke="rgb(0,0,0)"  stroke-width="4.0"/>
<line x1="40.0" y1="160.0" x2="74.6" y2="140.0" stroke="rgb(0,0,0)"  stroke-width="4.0"/>
<line x1="74.6" y1="140.0" x2="109.3" y2="160.0" stroke="rgb(0,0,0)"  stroke-width="4.0"/>
<line x1="109.3" y1="160.0" x2="109.3" y2="187.0" stroke="rgb(0,0,0)"  stroke-width="4.0"/>
<line x1="98.0" y1="206.5" x2="74.6" y2="220.0" stroke="rgb(0,0,0)"  stroke-width="4.0"/>
<line x1="213.2" y1="260.0" x2="247.8" y2="280.0" stroke="rgb(0,0,0)"  stroke-width="4.0"/>
<line x1="222.0" y1="256.8" x2="246.2" y2="270.8" stroke="rgb(0,0,0)"  stroke-width="4.0"/>
<line x1="247.8" y1="280.0" x2="282.5" y2="260.0" stroke="rgb(0,0,0)"  stroke-width="4.0"/>
<line x1="282.5" y1="260.0" x2="282.5" y2="220.0" stroke="rgb(0,0,0)"  stroke-width="4.0"/>
<line x1="275.3" y1="254.0" x2="275.3" y2="226.0" stroke="rgb(0,0,0)"  stroke-width="4.0"/>
<line x1="282.5" y1="220.0" x2="247.8" y2="200.0" stroke="rgb(0,0,0)"  stroke-width="4.0"/>
<line x1="247.8" y1="200.0" x2="213.2" y2="220.0" stroke="rgb(0,0,0)"  stroke-width="4.0"/>
<line x1="246.2" y1="209.2" x2="222.0" y2="223.2" stroke="rgb(0,0,0)"  stroke-width="4.0"/>
<line x1="213.2" y1="220.0" x2="213.2" y2="260.0" stroke="rgb(0,0,0)"  stroke-width="4.0"/>
<line x1="317.1" y1="200.0" x2="340.5" y2="213.5" stroke="rgb(0,0,0)"  stroke-width="4.0"/>
<line x1="363.0" y1="213.5" x2="386.4" y2="200.0" stroke="rgb(0,0,0)"  stroke-width="4.0"/>
<line x1="386.4" y1="200.0" x2="386.4" y2="160.0" stroke="rgb(0,0,0)"  stroke-width="4.0"/>
<line x1="386.4" y1="160.0" x2="351.8" y2="140.0" stroke="rgb(0,0,0)"  stroke-width="4.0"/>
<line x1="351.8" y1="140.0" x2="317.1" y2="160.0" stroke="rgb(0,0,0)"  stroke-width="4.0"/>
<line x1="350.2" y1="149.2" x2="325.9" y2="163.2" stroke="rgb(0,0,0)"  stroke-width="4.0"/>
<line x1="317.1" y1="160.0" x2="317.1" y2="200.0" stroke="rgb(0,0,0)"  stroke-width="4.0"/>
<line x1="317.1" y1="80.0" x2="282.5" y2="100.0" stroke="rgb(0,0,0)"  stroke-width="4.0"/>
<line x1="282.5" y1="100.0" x2="282.5" y2="140.0" stroke="rgb(0,0,0)"  stroke-width="4.0"/>
<line x1="289.7" y1="106.0" x2="289.7" y2="134.0" stroke="rgb(0,0,0)"  stroke-width="4.0"/>
<line x1="282.5" y1="140.0" x2="317.1" y2="160.0" stroke="rgb(0,0,0)"  stroke-width="4.0"/>
<line x1="351.8" y1="140.0" x2="351.8" y2="100.0" stroke="rgb(0,0,0)"  stroke-width="4.0"/>
<line x1="351.8" y1="100.0" x2="317.1" y2="80.0" stroke="rgb(0,0,0)"  stroke-width="4.0"/>
<line x1="343.0" y1="103.2" x2="318.7" y2="89.2" stroke="rgb(0,0,0)"  stroke-width="4.0"/>
<line x1="351.8" y1="260.0" x2="317.1" y2="280.0" stroke="rgb(0,0,0)"  stroke-width="4.0"/>
<line x1="350.2" y1="269.2" x2="325.9" y2="283.2" stroke="rgb(0,0,0)"  stroke-width="4.0"/>
<line x1="317.1" y1="280.0" x2="317.1" y2="320.0" stroke="rgb(0,0,0)"  stroke-width="4.0"/>
<line x1="317.1" y1="320.0" x2="351.8" y2="340.0" stroke="rgb(0,0,0)"  stroke-width="4.0"/>
<line x1="325.9" y1="316.8" x2="350.2" y2="330.8" stroke="rgb(0,0,0)"  stroke-width="4.0"/>
<line x1="351.8" y1="340.0" x2="386.4" y2="320.0" stroke="rgb(0,0,0)"  stroke-width="4.0"/>
<line x1="386.4" y1="320.0" x2="386.4" y2="280.0" stroke="rgb(0,0,0)"  stroke-width="4.0"/>
<line x1="379.2" y1="314.0" x2="379.2" y2="286.0" stroke="rgb(0,0,0)"  stroke-width="4.0"/>
<line x1="386.4" y1="280.0" x2="351.8" y2="260.0" stroke="rgb(0,0,0)"  stroke-width="4.0"/>
<text x="103.282032" y="208.000000" fill="rgb(0,0,0)"  stroke="rgb(0,0,0)" stroke-width="1" font-size="16" >N</text>
<text x="172.564065" y="288.000000" fill="rgb(0,0,0)"  stroke="rgb(0,0,0)" stroke-width="1" font-size="16" >O</text>
<text x="345.769145" y="228.000000" fill="rgb(0,0,0)"  stroke="rgb(0,0,0)" stroke-width="1" font-size="16" >N</text>
<text x="311.128129" y="48.000000" fill="rgb(0,0,0)"  stroke="rgb(0,0,0)" stroke-width="1" font-size="16" >OH</text>
<title>PTI - OBDepict</title>
</svg>
