<?xml version="1.0"?>
<svg xmlns="http://www.w3.org/2000/svg"
xmlns:xlink="http://www.w3.org/1999/xlink" xmlns:cml="http://www.xml-cml.org/schema" width="517.627" height="406.681" x="0" y="0" font-family="sans-serif" stroke="rgb(0,0,0)" stroke-width="4"  stroke-linecap="round">
<rect x="0%" y="0%" width="100%" height="100%" stroke-width="0" fill="rgb(255,255,255)"  />
<line x1="102.3" y1="328.6" x2="94.0" y2="354.3" stroke="rgb(0,0,0)"  stroke-width="4.0"/>
<line x1="94.7" y1="196.5" x2="86.4" y2="157.4" stroke="rgb(0,0,0)"  stroke-width="4.0"/>
<line x1="69.7" y1="79.1" x2="64.1" y2="52.7" stroke="rgb(0,0,0)"  stroke-width="4.0"/>
<line x1="131.2" y1="212.8" x2="165.9" y2="192.8" stroke="rgb(0,0,0)"  stroke-width="4.0"/>
<line x1="162.9" y1="192.8" x2="162.9" y2="165.8" stroke="rgb(0,0,0)"  stroke-width="4.0"/>
<line x1="168.9" y1="192.8" x2="168.9" y2="165.8" stroke="rgb(0,0,0)"  stroke-width="4.0"/>
<line x1="165.9" y1="192.8" x2="200.5" y2="212.8" stroke="rgb(0,0,0)"  stroke-width="4.0"/>
<line x1="269.8" y1="252.8" x2="293.2" y2="266.3" stroke="rgb(0,0,0)"  stroke-width="4.0"/>
<line x1="315.7" y1="266.3" x2="339.1" y2="252.8" stroke="rgb(0,0,0)"  stroke-width="4.0"/>
<line x1="339.1" y1="252.8" x2="373.7" y2="272.8" stroke="rgb(0,0,0)"  stroke-width="4.0"/>
<line x1="373.7" y1="272.8" x2="397.1" y2="259.3" stroke="rgb(0,0,0)"  stroke-width="4.0"/>
<line x1="76.6" y1="216.6" x2="94.7" y2="196.5" stroke="rgb(0,0,0)"  stroke-width="4.0"/>
<line x1="94.7" y1="196.5" x2="131.2" y2="212.8" stroke="rgb(0,0,0)"  stroke-width="4.0"/>
<line x1="97.2" y1="205.5" x2="122.8" y2="216.9" stroke="rgb(0,0,0)"  stroke-width="4.0"/>
<line x1="131.2" y1="212.8" x2="127.0" y2="252.6" stroke="rgb(0,0,0)"  stroke-width="4.0"/>
<line x1="127.0" y1="252.6" x2="87.9" y2="260.9" stroke="rgb(0,0,0)"  stroke-width="4.0"/>
<line x1="119.7" y1="246.8" x2="92.3" y2="252.6" stroke="rgb(0,0,0)"  stroke-width="4.0"/>
<line x1="87.9" y1="260.9" x2="74.4" y2="237.5" stroke="rgb(0,0,0)"  stroke-width="4.0"/>
<line x1="153.8" y1="282.3" x2="141.4" y2="320.3" stroke="rgb(0,0,0)"  stroke-width="4.0"/>
<line x1="145.1" y1="285.8" x2="136.4" y2="312.4" stroke="rgb(0,0,0)"  stroke-width="4.0"/>
<line x1="141.4" y1="320.3" x2="102.3" y2="328.6" stroke="rgb(0,0,0)"  stroke-width="4.0"/>
<line x1="102.3" y1="328.6" x2="75.5" y2="298.9" stroke="rgb(0,0,0)"  stroke-width="4.0"/>
<line x1="103.7" y1="319.4" x2="84.9" y2="298.6" stroke="rgb(0,0,0)"  stroke-width="4.0"/>
<line x1="75.5" y1="298.9" x2="87.9" y2="260.9" stroke="rgb(0,0,0)"  stroke-width="4.0"/>
<line x1="127.0" y1="252.6" x2="153.8" y2="282.3" stroke="rgb(0,0,0)"  stroke-width="4.0"/>
<line x1="86.4" y1="157.4" x2="48.3" y2="145.0" stroke="rgb(0,0,0)"  stroke-width="4.0"/>
<line x1="48.3" y1="145.0" x2="40.0" y2="105.9" stroke="rgb(0,0,0)"  stroke-width="4.0"/>
<line x1="54.1" y1="137.7" x2="48.3" y2="110.3" stroke="rgb(0,0,0)"  stroke-width="4.0"/>
<line x1="40.0" y1="105.9" x2="69.7" y2="79.1" stroke="rgb(0,0,0)"  stroke-width="4.0"/>
<line x1="69.7" y1="79.1" x2="107.8" y2="91.5" stroke="rgb(0,0,0)"  stroke-width="4.0"/>
<line x1="73.2" y1="87.8" x2="99.8" y2="96.5" stroke="rgb(0,0,0)"  stroke-width="4.0"/>
<line x1="107.8" y1="91.5" x2="116.1" y2="130.6" stroke="rgb(0,0,0)"  stroke-width="4.0"/>
<line x1="116.1" y1="130.6" x2="86.4" y2="157.4" stroke="rgb(0,0,0)"  stroke-width="4.0"/>
<line x1="106.8" y1="129.3" x2="86.0" y2="148.0" stroke="rgb(0,0,0)"  stroke-width="4.0"/>
<line x1="200.5" y1="212.8" x2="200.5" y2="252.8" stroke="rgb(0,0,0)"  stroke-width="4.0"/>
<line x1="207.7" y1="218.8" x2="207.7" y2="246.8" stroke="rgb(0,0,0)"  stroke-width="4.0"/>
<line x1="200.5" y1="252.8" x2="235.1" y2="272.8" stroke="rgb(0,0,0)"  stroke-width="4.0"/>
<line x1="235.1" y1="272.8" x2="269.8" y2="252.8" stroke="rgb(0,0,0)"  stroke-width="4.0"/>
<line x1="236.7" y1="263.5" x2="261.0" y2="249.5" stroke="rgb(0,0,0)"  stroke-width="4.0"/>
<line x1="269.8" y1="252.8" x2="269.8" y2="212.8" stroke="rgb(0,0,0)"  stroke-width="4.0"/>
<line x1="269.8" y1="212.8" x2="235.1" y2="192.8" stroke="rgb(0,0,0)"  stroke-width="4.0"/>
<line x1="261.0" y1="216.0" x2="236.7" y2="202.0" stroke="rgb(0,0,0)"  stroke-width="4.0"/>
<line x1="235.1" y1="192.8" x2="200.5" y2="212.8" stroke="rgb(0,0,0)"  stroke-width="4.0"/>
<line x1="419.6" y1="259.3" x2="443.0" y2="272.8" stroke="rgb(0,0,0)"  stroke-width="4.0"/>
<line x1="443.0" y1="272.8" x2="477.6" y2="252.8" stroke="rgb(0,0,0)"  stroke-width="4.0"/>
<line x1="477.6" y1="252.8" x2="477.6" y2="212.8" stroke="rgb(0,0,0)"  stroke-width="4.0"/>
<line x1="477.6" y1="212.8" x2="443.0" y2="192.8" stroke="rgb(0,0,0)"  stroke-width="4.0"/>
<line x1="443.0" y1="192.8" x2="408.3" y2="212.8" stroke="rgb(0,0,0)"  stroke-width="4.0"/>
<line x1="408.3" y1="212.8" x2="408.3" y2="239.8" stroke="rgb(0,0,0)"  stroke-width="4.0"/>
<text x="71.953836" y="374.680740" fill="rgb(0,0,0)"  stroke="rgb(0,0,0)" stroke-width="1" font-size="16" >HO</text>
<text x="61.909972" y="234.229409" fill="rgb(0,0,0)"  stroke="rgb(0,0,0)" stroke-width="1" font-size="16" >S</text>
<text x="43.409325" y="48.000000" fill="rgb(0,0,0)"  stroke="rgb(0,0,0)" stroke-width="1" font-size="16" >HO</text>
<text x="159.858030" y="160.773082" fill="rgb(0,0,0)"  stroke="rgb(0,0,0)" stroke-width="1" font-size="16" >O</text>
<text x="298.422095" y="280.773082" fill="rgb(0,0,0)"  stroke="rgb(0,0,0)" stroke-width="1" font-size="16" >O</text>
<text x="402.345143" y="260.773082" fill="rgb(0,0,0)"  stroke="rgb(0,0,0)" stroke-width="1" font-size="16" >N</text>
<title>RAL - OBDepict</title>
</svg>
