<?xml version="1.0"?>
<svg xmlns="http://www.w3.org/2000/svg"
xmlns:xlink="http://www.w3.org/1999/xlink" xmlns:cml="http://www.xml-cml.org/schema" width="391.769" height="320" x="0" y="0" font-family="sans-serif" stroke="rgb(0,0,0)" stroke-width="4"  stroke-linecap="round">
<rect x="0%" y="0%" width="100%" height="100%" stroke-width="0" fill="rgb(255,255,255)"  />
<line x1="74.6" y1="80.0" x2="40.0" y2="100.0" stroke="rgb(0,0,0)"  stroke-width="4.0"/>
<line x1="213.2" y1="280.0" x2="178.6" y2="260.0" stroke="rgb(0,0,0)"  stroke-width="4.0"/>
<line x1="340.5" y1="273.5" x2="317.1" y2="260.0" stroke="rgb(0,0,0)"  stroke-width="4.0"/>
<line x1="213.2" y1="53.0" x2="213.2" y2="80.0" stroke="rgb(0,0,0)"  stroke-width="4.0"/>
<line x1="40.0" y1="100.0" x2="40.0" y2="127.0" stroke="rgb(0,0,0)"  stroke-width="4.0"/>
<line x1="178.6" y1="260.0" x2="178.6" y2="220.0" stroke="rgb(0,0,0)"  stroke-width="4.0"/>
<line x1="51.3" y1="146.5" x2="74.6" y2="160.0" stroke="rgb(0,0,0)"  stroke-width="4.0"/>
<line x1="177.1" y1="217.4" x2="211.7" y2="197.4" stroke="rgb(0,0,0)"  stroke-width="4.0"/>
<line x1="180.1" y1="222.6" x2="214.7" y2="202.6" stroke="rgb(0,0,0)"  stroke-width="4.0"/>
<line x1="178.6" y1="220.0" x2="143.9" y2="200.0" stroke="rgb(0,0,0)"  stroke-width="4.0"/>
<line x1="213.2" y1="200.0" x2="247.8" y2="220.0" stroke="rgb(0,0,0)"  stroke-width="4.0"/>
<line x1="213.2" y1="200.0" x2="213.2" y2="160.0" stroke="rgb(0,0,0)"  stroke-width="4.0"/>
<line x1="282.5" y1="280.0" x2="247.8" y2="260.0" stroke="rgb(0,0,0)"  stroke-width="4.0"/>
<line x1="280.9" y1="270.8" x2="256.6" y2="256.8" stroke="rgb(0,0,0)"  stroke-width="4.0"/>
<line x1="247.8" y1="260.0" x2="247.8" y2="220.0" stroke="rgb(0,0,0)"  stroke-width="4.0"/>
<line x1="247.8" y1="220.0" x2="282.5" y2="200.0" stroke="rgb(0,0,0)"  stroke-width="4.0"/>
<line x1="256.6" y1="223.2" x2="280.9" y2="209.2" stroke="rgb(0,0,0)"  stroke-width="4.0"/>
<line x1="282.5" y1="200.0" x2="317.1" y2="220.0" stroke="rgb(0,0,0)"  stroke-width="4.0"/>
<line x1="317.1" y1="220.0" x2="317.1" y2="260.0" stroke="rgb(0,0,0)"  stroke-width="4.0"/>
<line x1="309.9" y1="226.0" x2="309.9" y2="254.0" stroke="rgb(0,0,0)"  stroke-width="4.0"/>
<line x1="317.1" y1="260.0" x2="282.5" y2="280.0" stroke="rgb(0,0,0)"  stroke-width="4.0"/>
<line x1="247.8" y1="100.0" x2="247.8" y2="140.0" stroke="rgb(0,0,0)"  stroke-width="4.0"/>
<line x1="240.6" y1="106.0" x2="240.6" y2="134.0" stroke="rgb(0,0,0)"  stroke-width="4.0"/>
<line x1="247.8" y1="140.0" x2="213.2" y2="160.0" stroke="rgb(0,0,0)"  stroke-width="4.0"/>
<line x1="213.2" y1="160.0" x2="178.6" y2="140.0" stroke="rgb(0,0,0)"  stroke-width="4.0"/>
<line x1="211.6" y1="150.8" x2="187.4" y2="136.8" stroke="rgb(0,0,0)"  stroke-width="4.0"/>
<line x1="178.6" y1="140.0" x2="178.6" y2="100.0" stroke="rgb(0,0,0)"  stroke-width="4.0"/>
<line x1="178.6" y1="100.0" x2="213.2" y2="80.0" stroke="rgb(0,0,0)"  stroke-width="4.0"/>
<line x1="187.4" y1="103.2" x2="211.6" y2="89.2" stroke="rgb(0,0,0)"  stroke-width="4.0"/>
<line x1="213.2" y1="80.0" x2="247.8" y2="100.0" stroke="rgb(0,0,0)"  stroke-width="4.0"/>
<line x1="109.3" y1="140.0" x2="74.6" y2="160.0" stroke="rgb(0,0,0)"  stroke-width="4.0"/>
<line x1="74.6" y1="160.0" x2="74.6" y2="200.0" stroke="rgb(0,0,0)"  stroke-width="4.0"/>
<line x1="81.8" y1="166.0" x2="81.8" y2="194.0" stroke="rgb(0,0,0)"  stroke-width="4.0"/>
<line x1="74.6" y1="200.0" x2="109.3" y2="220.0" stroke="rgb(0,0,0)"  stroke-width="4.0"/>
<line x1="109.3" y1="220.0" x2="143.9" y2="200.0" stroke="rgb(0,0,0)"  stroke-width="4.0"/>
<line x1="110.9" y1="210.8" x2="135.1" y2="196.8" stroke="rgb(0,0,0)"  stroke-width="4.0"/>
<line x1="143.9" y1="200.0" x2="143.9" y2="160.0" stroke="rgb(0,0,0)"  stroke-width="4.0"/>
<line x1="143.9" y1="160.0" x2="109.3" y2="140.0" stroke="rgb(0,0,0)"  stroke-width="4.0"/>
<line x1="135.1" y1="163.2" x2="110.9" y2="149.2" stroke="rgb(0,0,0)"  stroke-width="4.0"/>
<text x="345.769145" y="288.000000" fill="rgb(0,0,0)"  stroke="rgb(0,0,0)" stroke-width="1" font-size="16" >OH</text>
<text x="207.205081" y="48.000000" fill="rgb(0,0,0)"  stroke="rgb(0,0,0)" stroke-width="1" font-size="16" >OH</text>
<text x="34.000000" y="148.000000" fill="rgb(0,0,0)"  stroke="rgb(0,0,0)" stroke-width="1" font-size="16" >O</text>
<title>SRR - OBDepict</title>
</svg>
