<?xml version="1.0"?>
<svg xmlns="http://www.w3.org/2000/svg"
xmlns:xlink="http://www.w3.org/1999/xlink" xmlns:cml="http://www.xml-cml.org/schema" width="391.769" height="260" x="0" y="0" font-family="sans-serif" stroke="rgb(0,0,0)" stroke-width="4"  stroke-linecap="round">
<rect x="0%" y="0%" width="100%" height="100%" stroke-width="0" fill="rgb(255,255,255)"  />
<line x1="109.3" y1="180.0" x2="109.3" y2="207.0" stroke="rgb(0,0,0)"  stroke-width="4.0"/>
<line x1="74.6" y1="120.0" x2="51.3" y2="106.5" stroke="rgb(0,0,0)"  stroke-width="4.0"/>
<line x1="143.9" y1="120.0" x2="178.6" y2="100.0" stroke="rgb(0,0,0)"  stroke-width="4.0"/>
<line x1="180.1" y1="97.4" x2="214.7" y2="117.4" stroke="rgb(0,0,0)"  stroke-width="4.0"/>
<line x1="177.1" y1="102.6" x2="211.7" y2="122.6" stroke="rgb(0,0,0)"  stroke-width="4.0"/>
<line x1="213.2" y1="120.0" x2="247.8" y2="100.0" stroke="rgb(0,0,0)"  stroke-width="4.0"/>
<line x1="317.1" y1="60.0" x2="340.5" y2="46.5" stroke="rgb(0,0,0)"  stroke-width="4.0"/>
<line x1="109.3" y1="180.0" x2="74.6" y2="160.0" stroke="rgb(0,0,0)"  stroke-width="4.0"/>
<line x1="107.7" y1="170.8" x2="83.4" y2="156.8" stroke="rgb(0,0,0)"  stroke-width="4.0"/>
<line x1="74.6" y1="160.0" x2="74.6" y2="120.0" stroke="rgb(0,0,0)"  stroke-width="4.0"/>
<line x1="74.6" y1="120.0" x2="109.3" y2="100.0" stroke="rgb(0,0,0)"  stroke-width="4.0"/>
<line x1="83.4" y1="123.2" x2="107.7" y2="109.2" stroke="rgb(0,0,0)"  stroke-width="4.0"/>
<line x1="109.3" y1="100.0" x2="143.9" y2="120.0" stroke="rgb(0,0,0)"  stroke-width="4.0"/>
<line x1="143.9" y1="120.0" x2="143.9" y2="160.0" stroke="rgb(0,0,0)"  stroke-width="4.0"/>
<line x1="136.7" y1="126.0" x2="136.7" y2="154.0" stroke="rgb(0,0,0)"  stroke-width="4.0"/>
<line x1="143.9" y1="160.0" x2="109.3" y2="180.0" stroke="rgb(0,0,0)"  stroke-width="4.0"/>
<line x1="247.8" y1="100.0" x2="282.5" y2="120.0" stroke="rgb(0,0,0)"  stroke-width="4.0"/>
<line x1="256.6" y1="96.8" x2="280.9" y2="110.8" stroke="rgb(0,0,0)"  stroke-width="4.0"/>
<line x1="282.5" y1="120.0" x2="317.1" y2="100.0" stroke="rgb(0,0,0)"  stroke-width="4.0"/>
<line x1="317.1" y1="100.0" x2="317.1" y2="60.0" stroke="rgb(0,0,0)"  stroke-width="4.0"/>
<line x1="309.9" y1="94.0" x2="309.9" y2="66.0" stroke="rgb(0,0,0)"  stroke-width="4.0"/>
<line x1="317.1" y1="60.0" x2="282.5" y2="40.0" stroke="rgb(0,0,0)"  stroke-width="4.0"/>
<line x1="282.5" y1="40.0" x2="247.8" y2="60.0" stroke="rgb(0,0,0)"  stroke-width="4.0"/>
<line x1="280.9" y1="49.2" x2="256.6" y2="63.2" stroke="rgb(0,0,0)"  stroke-width="4.0"/>
<line x1="247.8" y1="60.0" x2="247.8" y2="100.0" stroke="rgb(0,0,0)"  stroke-width="4.0"/>
<text x="345.769145" y="48.000000" fill="rgb(0,0,0)"  stroke="rgb(0,0,0)" stroke-width="1" font-size="16" >OH</text>
<text x="22.000000" y="108.000000" fill="rgb(0,0,0)"  stroke="rgb(0,0,0)" stroke-width="1" font-size="16" >HO</text>
<text x="103.282032" y="228.000000" fill="rgb(0,0,0)"  stroke="rgb(0,0,0)" stroke-width="1" font-size="16" >OH</text>
<title>STL - OBDepict</title>
</svg>
