<?xml version="1.0"?>
<svg xmlns="http://www.w3.org/2000/svg"
xmlns:xlink="http://www.w3.org/1999/xlink" xmlns:cml="http://www.xml-cml.org/schema" width="338.551" height="260.017" x="0" y="0" font-family="sans-serif" stroke="rgb(0,0,0)" stroke-width="4"  stroke-linecap="round">
<rect x="0%" y="0%" width="100%" height="100%" stroke-width="0" fill="rgb(255,255,255)"  />
<polygon points="229.251 160.01 225.26 120.001 233.26 120.003 " stroke-width="4" fill="rgb(0,0,0)"  stroke="rgb(0,0,0)" />
<polygon points="263.899 100.002 231.261 123.466 227.26 116.538 " stroke-width="4" fill="rgb(0,0,0)"  stroke="rgb(0,0,0)" />
<line x1="263.9" y1="180.0" x2="263.9" y2="220.0" stroke="rgb(0,0,0)"  stroke-width="4.0"/>
<line x1="229.3" y1="80.0" x2="229.3" y2="40.0" stroke="rgb(0,0,0)"  stroke-width="4.0"/>
<line x1="229.3" y1="80.0" x2="194.6" y2="60.0" stroke="rgb(0,0,0)"  stroke-width="4.0"/>
<line x1="188.1" y1="144.7" x2="187.3" y2="143.3" stroke="rgb(0,0,0)"  stroke-width="4.0"/>
<line x1="182.9" y1="148.5" x2="181.4" y2="146.0" stroke="rgb(0,0,0)"  stroke-width="4.0"/>
<line x1="177.6" y1="152.2" x2="175.6" y2="148.6" stroke="rgb(0,0,0)"  stroke-width="4.0"/>
<line x1="172.4" y1="156.0" x2="169.7" y2="151.3" stroke="rgb(0,0,0)"  stroke-width="4.0"/>
<line x1="167.2" y1="159.7" x2="163.8" y2="153.9" stroke="rgb(0,0,0)"  stroke-width="4.0"/>
<line x1="162.0" y1="163.5" x2="158.0" y2="156.5" stroke="rgb(0,0,0)"  stroke-width="4.0"/>
<line x1="80.0" y1="160.0" x2="53.0" y2="160.0" stroke="rgb(0,0,0)"  stroke-width="4.0"/>
<line x1="229.3" y1="120.0" x2="229.3" y2="160.0" stroke="rgb(0,0,0)"  stroke-width="4.0"/>
<line x1="229.3" y1="160.0" x2="263.9" y2="180.0" stroke="rgb(0,0,0)"  stroke-width="4.0"/>
<line x1="263.9" y1="180.0" x2="298.6" y2="160.0" stroke="rgb(0,0,0)"  stroke-width="4.0"/>
<line x1="265.5" y1="170.8" x2="289.8" y2="156.8" stroke="rgb(0,0,0)"  stroke-width="4.0"/>
<line x1="298.6" y1="160.0" x2="298.5" y2="120.0" stroke="rgb(0,0,0)"  stroke-width="4.0"/>
<line x1="298.5" y1="120.0" x2="263.9" y2="100.0" stroke="rgb(0,0,0)"  stroke-width="4.0"/>
<line x1="263.9" y1="100.0" x2="229.3" y2="120.0" stroke="rgb(0,0,0)"  stroke-width="4.0"/>
<line x1="263.9" y1="100.0" x2="229.3" y2="80.0" stroke="rgb(0,0,0)"  stroke-width="4.0"/>
<line x1="229.3" y1="80.0" x2="205.9" y2="93.5" stroke="rgb(0,0,0)"  stroke-width="4.0"/>
<line x1="194.6" y1="113.0" x2="194.6" y2="140.0" stroke="rgb(0,0,0)"  stroke-width="4.0"/>
<line x1="194.6" y1="140.0" x2="229.3" y2="160.0" stroke="rgb(0,0,0)"  stroke-width="4.0"/>
<line x1="160.0" y1="160.0" x2="140.0" y2="194.6" stroke="rgb(0,0,0)"  stroke-width="4.0"/>
<line x1="140.0" y1="194.6" x2="100.0" y2="194.6" stroke="rgb(0,0,0)"  stroke-width="4.0"/>
<line x1="134.0" y1="187.4" x2="106.0" y2="187.4" stroke="rgb(0,0,0)"  stroke-width="4.0"/>
<line x1="100.0" y1="194.6" x2="80.0" y2="160.0" stroke="rgb(0,0,0)"  stroke-width="4.0"/>
<line x1="80.0" y1="160.0" x2="100.0" y2="125.4" stroke="rgb(0,0,0)"  stroke-width="4.0"/>
<line x1="89.2" y1="158.4" x2="103.2" y2="134.2" stroke="rgb(0,0,0)"  stroke-width="4.0"/>
<line x1="100.0" y1="125.4" x2="140.0" y2="125.4" stroke="rgb(0,0,0)"  stroke-width="4.0"/>
<line x1="140.0" y1="125.4" x2="160.0" y2="160.0" stroke="rgb(0,0,0)"  stroke-width="4.0"/>
<line x1="136.7" y1="134.2" x2="150.7" y2="158.4" stroke="rgb(0,0,0)"  stroke-width="4.0"/>
<text x="188.615055" y="107.998083" fill="rgb(0,0,0)"  stroke="rgb(0,0,0)" stroke-width="1" font-size="16" >O</text>
<text x="22.000000" y="168.008982" fill="rgb(0,0,0)"  stroke="rgb(0,0,0)" stroke-width="1" font-size="16" >HO</text>
<title>T3O - OBDepict</title>
</svg>
