<?xml version="1.0"?>
<svg xmlns="http://www.w3.org/2000/svg"
xmlns:xlink="http://www.w3.org/1999/xlink" xmlns:cml="http://www.xml-cml.org/schema" width="357.128" height="263.307" x="0" y="0" font-family="sans-serif" stroke="rgb(0,0,0)" stroke-width="4"  stroke-linecap="round">
<rect x="0%" y="0%" width="100%" height="100%" stroke-width="0" fill="rgb(255,255,255)"  />
<polygon points="143.923 180 107.282 163.464 111.282 156.536 " stroke-width="4" fill="rgb(0,0,0)"  stroke="rgb(0,0,0)" />
<line x1="74.6" y1="180.0" x2="74.6" y2="207.0" stroke="rgb(0,0,0)"  stroke-width="4.0"/>
<polygon points="178.564065 120.000000 211.205081 96.535898 215.205081 103.464102 " stroke-width="4.000000" fill="rgb(0,0,0)"  stroke="rgb(0,0,0)" />
<polygon points="178.564065 160.000000 210.966380 183.792645 205.613335 189.737804 " stroke-width="4.000000" fill="rgb(0,0,0)"  stroke="rgb(0,0,0)" />
<line x1="282.5" y1="60.0" x2="305.9" y2="46.5" stroke="rgb(0,0,0)"  stroke-width="4.0"/>
<line x1="192.0" y1="223.3" x2="152.2" y2="219.1" stroke="rgb(0,0,0)"  stroke-width="4.0"/>
<line x1="152.2" y1="219.1" x2="143.9" y2="180.0" stroke="rgb(0,0,0)"  stroke-width="4.0"/>
<line x1="143.9" y1="180.0" x2="178.6" y2="160.0" stroke="rgb(0,0,0)"  stroke-width="4.0"/>
<line x1="178.6" y1="160.0" x2="208.3" y2="186.8" stroke="rgb(0,0,0)"  stroke-width="4.0"/>
<line x1="208.3" y1="186.8" x2="192.0" y2="223.3" stroke="rgb(0,0,0)"  stroke-width="4.0"/>
<line x1="109.3" y1="160.0" x2="74.6" y2="180.0" stroke="rgb(0,0,0)"  stroke-width="4.0"/>
<line x1="100.5" y1="156.8" x2="76.2" y2="170.8" stroke="rgb(0,0,0)"  stroke-width="4.0"/>
<line x1="74.6" y1="180.0" x2="40.0" y2="160.0" stroke="rgb(0,0,0)"  stroke-width="4.0"/>
<line x1="40.0" y1="160.0" x2="40.0" y2="120.0" stroke="rgb(0,0,0)"  stroke-width="4.0"/>
<line x1="47.2" y1="154.0" x2="47.2" y2="126.0" stroke="rgb(0,0,0)"  stroke-width="4.0"/>
<line x1="40.0" y1="120.0" x2="74.6" y2="100.0" stroke="rgb(0,0,0)"  stroke-width="4.0"/>
<line x1="74.6" y1="100.0" x2="109.3" y2="120.0" stroke="rgb(0,0,0)"  stroke-width="4.0"/>
<line x1="76.2" y1="109.2" x2="100.5" y2="123.2" stroke="rgb(0,0,0)"  stroke-width="4.0"/>
<line x1="109.3" y1="120.0" x2="109.3" y2="160.0" stroke="rgb(0,0,0)"  stroke-width="4.0"/>
<line x1="143.9" y1="180.0" x2="109.3" y2="160.0" stroke="rgb(0,0,0)"  stroke-width="4.0"/>
<line x1="109.3" y1="120.0" x2="132.7" y2="106.5" stroke="rgb(0,0,0)"  stroke-width="4.0"/>
<line x1="155.2" y1="106.5" x2="178.6" y2="120.0" stroke="rgb(0,0,0)"  stroke-width="4.0"/>
<line x1="178.6" y1="120.0" x2="178.6" y2="160.0" stroke="rgb(0,0,0)"  stroke-width="4.0"/>
<line x1="213.2" y1="100.0" x2="247.8" y2="120.0" stroke="rgb(0,0,0)"  stroke-width="4.0"/>
<line x1="247.8" y1="120.0" x2="282.5" y2="100.0" stroke="rgb(0,0,0)"  stroke-width="4.0"/>
<line x1="249.4" y1="110.8" x2="273.7" y2="96.8" stroke="rgb(0,0,0)"  stroke-width="4.0"/>
<line x1="282.5" y1="100.0" x2="282.5" y2="60.0" stroke="rgb(0,0,0)"  stroke-width="4.0"/>
<line x1="282.5" y1="60.0" x2="247.8" y2="40.0" stroke="rgb(0,0,0)"  stroke-width="4.0"/>
<line x1="273.7" y1="63.2" x2="249.4" y2="49.2" stroke="rgb(0,0,0)"  stroke-width="4.0"/>
<line x1="247.8" y1="40.0" x2="213.2" y2="60.0" stroke="rgb(0,0,0)"  stroke-width="4.0"/>
<line x1="213.2" y1="60.0" x2="213.2" y2="100.0" stroke="rgb(0,0,0)"  stroke-width="4.0"/>
<line x1="220.4" y1="66.0" x2="220.4" y2="94.0" stroke="rgb(0,0,0)"  stroke-width="4.0"/>
<text x="68.641016" y="228.000000" fill="rgb(0,0,0)"  stroke="rgb(0,0,0)" stroke-width="1" font-size="16" >OH</text>
<text x="137.923048" y="108.000000" fill="rgb(0,0,0)"  stroke="rgb(0,0,0)" stroke-width="1" font-size="16" >O</text>
<text x="311.128129" y="48.000000" fill="rgb(0,0,0)"  stroke="rgb(0,0,0)" stroke-width="1" font-size="16" >OH</text>
<title>WST - OBDepict</title>
</svg>
